SplineFontDB: 3.0
FontName: Loopshape
FullName: Loopshape
FamilyName: Loopshape
Weight: Medium
Copyright: Created by User's name with Font.My (http://font.my)
Version: 1.0
ItalicAngle: 0
UnderlinePosition: -150
UnderlineWidth: 50
Ascent: 800
Descent: 200
InvalidEm: 0
sfntRevision: 0x00010000
LayerCount: 2
Layer: 0 1 "Back" 1
Layer: 1 1 "Zeichen" 0
XUID: [1021 419 943234281 20665]
StyleMap: 0x0040
FSType: 0
OS2Version: 4
OS2_WeightWidthSlopeOnly: 0
OS2_UseTypoMetrics: 1
CreationTime: 1450530188
ModificationTime: 1450530190
PfmFamily: 17
TTFWeight: 500
TTFWidth: 5
LineGap: 90
VLineGap: 0
Panose: 2 0 6 3 0 0 0 0 0 0
OS2TypoAscent: 800
OS2TypoAOffset: 0
OS2TypoDescent: -200
OS2TypoDOffset: 0
OS2TypoLinegap: 90
OS2WinAscent: 823
OS2WinAOffset: 0
OS2WinDescent: 310
OS2WinDOffset: 0
HheadAscent: 825
HheadAOffset: 0
HheadDescent: -310
HheadDOffset: 0
OS2SubXSize: 650
OS2SubYSize: 700
OS2SubXOff: 0
OS2SubYOff: 140
OS2SupXSize: 650
OS2SupYSize: 700
OS2SupXOff: 0
OS2SupYOff: 480
OS2StrikeYSize: 49
OS2StrikeYPos: 258
OS2CapHeight: 673
OS2XHeight: 482
OS2Vendor: 'PfEd'
OS2CodePages: 00000001.00000000
OS2UnicodeRanges: 80000083.00000000.00000000.00000000
DEI: 91125
ShortTable: cvt  2
  33
  633
EndShort
ShortTable: maxp 16
  1
  0
  129
  432
  5
  0
  0
  2
  0
  1
  1
  0
  64
  46
  0
  0
EndShort
LangName: 1033 "" "" "" "FontForge 2.0 : Loopshape : 19-12-2015"
GaspTable: 1 65535 2 0
Encoding: UnicodeBmp
UnicodeInterp: none
NameList: AGL For New Fonts
DisplaySize: -48
AntiAlias: 1
FitToEm: 0
WinInfo: 0 27 10
BeginChars: 65539 129

StartChar: .notdef
Encoding: 65536 -1 0
Width: 364
Flags: W
LayerCount: 2
Fore
SplineSet
33 0 m 1,0,-1
 33 666 l 1,1,-1
 298 666 l 1,2,-1
 298 0 l 1,3,-1
 33 0 l 1,0,-1
66 33 m 1,4,-1
 265 33 l 1,5,-1
 265 633 l 1,6,-1
 66 633 l 1,7,-1
 66 33 l 1,4,-1
EndSplineSet
EndChar

StartChar: exclam
Encoding: 33 33 4
Width: 195
Flags: W
LayerCount: 2
Fore
SplineSet
93.5 144.5 m 128,-1,1
 75 148 75 148 63.5 164 c 128,-1,2
 52 180 52 180 55 199 c 2,3,-1
 57 209 l 2,4,5
 59 217 59 217 60 228 c 0,6,7
 61 241 61 241 61 248 c 0,8,9
 62 255 62 255 62 269.5 c 128,-1,10
 62 284 62 284 61 303 c 0,11,12
 59 322 59 322 59 332 c 0,13,14
 58 341 58 341 57 354 c 0,15,16
 57 368 57 368 57 382 c 256,17,18
 57 396 57 396 58 410 c 0,19,20
 59 419 59 419 60 431 c 0,21,22
 60 445 60 445 60 455 c 0,23,24
 60 466 60 466 60 477 c 2,25,-1
 60 499 l 2,26,27
 60 510 60 510 60.5 522 c 128,-1,28
 61 534 61 534 62 545 c 0,29,30
 63 555 63 555 64 563 c 0,31,32
 65 569 65 569 65 580 c 0,33,34
 65 588 65 588 65 591 c 2,35,-1
 63 600 l 2,36,37
 60 619 60 619 71 635 c 128,-1,38
 82 651 82 651 101 654.5 c 128,-1,39
 120 658 120 658 136 646.5 c 128,-1,40
 152 635 152 635 156 616 c 2,41,-1
 157 608 l 2,42,43
 159 594 159 594 159 577 c 0,44,45
 158 563 158 563 158 554 c 0,46,47
 157 546 157 546 156 536 c 0,48,49
 155 527 155 527 155 518 c 0,50,51
 154 508 154 508 154 499 c 2,52,-1
 154 477 l 2,53,54
 154 466 154 466 154 455 c 0,55,56
 154 443 154 443 154 429 c 0,57,58
 153 413 153 413 152 400 c 0,59,60
 151 391 151 391 151 381 c 256,61,62
 151 371 151 371 151 360 c 0,63,64
 152 347 152 347 153 337 c 0,65,66
 153 328 153 328 154 308 c 0,67,68
 156 287 156 287 156 269.5 c 128,-1,69
 156 252 156 252 155 243 c 0,70,71
 155 234 155 234 153 220 c 0,72,73
 152 204 152 204 150 192 c 2,74,-1
 148 183 l 2,75,76
 145 164 145 164 128.5 152.5 c 128,-1,0
 112 141 112 141 93.5 144.5 c 128,-1,1
50.5 86.5 m 128,-1,78
 64 100 64 100 83.5 100 c 128,-1,79
 103 100 103 100 117 86 c 2,80,-1
 120 83 l 2,81,82
 134 70 134 70 134 50 c 128,-1,83
 134 30 134 30 120.5 16.5 c 128,-1,84
 107 3 107 3 87 3 c 128,-1,85
 67 3 67 3 54 17 c 2,86,-1
 51 20 l 2,87,88
 37 33 37 33 37 53 c 128,-1,77
 37 73 37 73 50.5 86.5 c 128,-1,78
EndSplineSet
EndChar

StartChar: quotedbl
Encoding: 34 34 5
Width: 406
Flags: W
LayerCount: 2
Fore
SplineSet
345.5 659 m 128,-1,1
 362 650 362 650 368 631 c 128,-1,2
 374 612 374 612 364 595 c 2,3,-1
 358 583 l 2,4,5
 350 568 350 568 337 549 c 0,6,7
 325 533 325 533 309 513 c 128,-1,8
 293 493 293 493 275 473 c 0,9,10
 260 456 260 456 252 445 c 256,11,12
 244 434 244 434 239 425 c 2,13,-1
 233 413 l 2,14,15
 223 396 223 396 204 391 c 128,-1,16
 185 386 185 386 168.5 395 c 128,-1,17
 152 404 152 404 146.5 423 c 128,-1,18
 141 442 141 442 150 459 c 2,19,-1
 157 471 l 2,20,21
 165 485 165 485 176 500 c 256,22,23
 187 515 187 515 205 536 c 0,24,25
 221 554 221 554 235.5 571.5 c 128,-1,26
 250 589 250 589 260 604 c 0,27,28
 270 618 270 618 275 627 c 2,29,-1
 282 640 l 2,30,31
 291 657 291 657 310 662.5 c 128,-1,0
 329 668 329 668 345.5 659 c 128,-1,1
192 650 m 128,-1,33
 207 638 207 638 209 618.5 c 128,-1,34
 211 599 211 599 199 584 c 2,35,-1
 193 576 l 2,36,37
 186 568 186 568 178 560 c 0,38,39
 177 559 177 559 177 559 c 1,40,41
 171 541 171 541 162 524 c 0,42,43
 153 509 153 509 144 495 c 0,44,45
 139 487 139 487 136 479 c 256,46,47
 133 471 133 471 132 466 c 2,48,-1
 130 456 l 2,49,50
 127 437 127 437 111 425.5 c 128,-1,51
 95 414 95 414 76 417 c 128,-1,52
 57 420 57 420 46 436 c 128,-1,53
 35 452 35 452 38 471 c 2,54,-1
 39 481 l 2,55,56
 42 496 42 496 48 513 c 0,57,58
 55 530 55 530 66 546 c 0,59,60
 72 556 72 556 79 569 c 0,61,62
 85 580 85 580 88 590 c 0,63,64
 98 617 98 617 115 630 c 0,65,66
 117 632 117 632 120 636 c 2,67,-1
 126 643 l 2,68,69
 138 658 138 658 157.5 660 c 128,-1,32
 177 662 177 662 192 650 c 128,-1,33
EndSplineSet
EndChar

StartChar: numbersign
Encoding: 35 35 6
Width: 714
Flags: W
LayerCount: 2
Fore
SplineSet
40 196 m 128,-1,1
 33 214 33 214 41.5 232 c 128,-1,2
 50 250 50 250 68 256 c 2,3,-1
 74 259 l 2,4,5
 83 262 83 262 95 265 c 0,6,7
 106 267 106 267 127 269 c 0,8,9
 147 271 147 271 164 271 c 0,10,11
 179 272 179 272 200 273 c 0,12,13
 203 273 203 273 206 273 c 1,14,15
 206 277 206 277 207 280 c 0,16,17
 210 302 210 302 213 323 c 0,18,19
 217 346 217 346 221 365 c 0,20,21
 224 384 224 384 231 409 c 1,22,23
 208 411 208 411 181 412 c 0,24,25
 156 413 156 413 143 413 c 0,26,27
 134 413 134 413 126 412 c 2,28,-1
 115 410 l 2,29,30
 96 407 96 407 80 418 c 128,-1,31
 64 429 64 429 60.5 448 c 128,-1,32
 57 467 57 467 68.5 483 c 128,-1,33
 80 499 80 499 99 503 c 2,34,-1
 110 505 l 2,35,36
 125 507 125 507 143 507 c 0,37,38
 158 507 158 507 186 505.5 c 128,-1,39
 214 504 214 504 240 503 c 0,40,41
 246 503 246 503 252 502 c 1,42,43
 255 519 255 519 258 536 c 0,44,45
 261 555 261 555 264 571 c 0,46,47
 267 589 267 589 271 603 c 0,48,49
 275 620 275 620 282 635 c 2,50,-1
 288 648 l 2,51,52
 295 665 295 665 313.5 672 c 128,-1,53
 332 679 332 679 349.5 671.5 c 128,-1,54
 367 664 367 664 374 645.5 c 128,-1,55
 381 627 381 627 373 609 c 2,56,-1
 368 597 l 2,57,58
 364 589 364 589 362 580 c 0,59,60
 359 568 359 568 356 554 c 0,61,62
 353 538 353 538 350 519 c 0,63,64
 348 508 348 508 346 497 c 1,65,66
 369 495 369 495 392 495 c 0,67,68
 416 495 416 495 439 497 c 0,69,70
 447 497 447 497 455 498 c 1,71,72
 456 506 456 506 457 513 c 0,73,74
 460 533 460 533 464 555 c 0,75,76
 468 578 468 578 473 595 c 0,77,78
 477 612 477 612 483 628 c 0,79,80
 487 639 487 639 488 643 c 2,81,-1
 489 650 l 2,82,83
 494 669 494 669 510.5 679.5 c 128,-1,84
 527 690 527 690 545.5 686 c 128,-1,85
 564 682 564 682 574.5 665.5 c 128,-1,86
 585 649 585 649 581 630 c 2,87,-1
 580 623 l 2,88,89
 577 613 577 613 571 596 c 0,90,91
 567 584 567 584 564 571 c 0,92,93
 560 558 560 558 557 538 c 0,94,95
 553 518 553 518 550 500 c 0,96,97
 550 499 550 499 550 498 c 1,98,99
 555 498 555 498 560 498 c 0,100,101
 582 497 582 497 599 494 c 0,102,103
 615 492 615 492 627 490 c 2,104,-1
 638 489 l 2,105,106
 657 486 657 486 668.5 470 c 128,-1,107
 680 454 680 454 677 435 c 128,-1,108
 674 416 674 416 658 404.5 c 128,-1,109
 642 393 642 393 623 396 c 2,110,-1
 612 397 l 2,111,112
 601 399 601 399 586 401 c 0,113,114
 573 403 573 403 556 404 c 0,115,116
 545 404 545 404 536 405 c 1,117,118
 531 382 531 382 523 357 c 0,119,120
 515 331 515 331 508 307 c 0,121,122
 505 295 505 295 502 283 c 1,123,124
 540 284 540 284 557 283 c 0,125,126
 576 283 576 283 597 282 c 2,127,-1
 617 280 l 2,128,129
 637 279 637 279 650 264.5 c 128,-1,130
 663 250 663 250 662 231 c 128,-1,131
 661 212 661 212 646.5 199 c 128,-1,132
 632 186 632 186 612 187 c 2,133,-1
 592 188 l 2,134,135
 571 189 571 189 554 189 c 0,136,137
 537 190 537 190 489 189 c 0,138,139
 480 189 480 189 472 189 c 1,140,141
 468 175 468 175 463 159 c 0,142,143
 457 139 457 139 450 120 c 256,144,145
 443 101 443 101 437 84 c 0,146,147
 431 69 431 69 427 56 c 0,148,149
 423 44 423 44 421 35 c 0,150,151
 419 27 419 27 418 25 c 2,152,-1
 418 18 l 2,153,154
 416 -1 416 -1 400.5 -13.5 c 128,-1,155
 385 -26 385 -26 366 -24 c 128,-1,156
 347 -22 347 -22 334.5 -7 c 128,-1,157
 322 8 322 8 324 28 c 2,158,-1
 325 34 l 2,159,160
 326 44 326 44 329 58 c 0,161,162
 333 71 333 71 338 86 c 0,163,164
 342 100 342 100 349 118 c 0,165,166
 355 134 355 134 361 151 c 0,167,168
 367 167 367 167 372 185 c 1,169,170
 361 185 361 185 352 185 c 0,171,172
 324 184 324 184 297 183 c 0,173,174
 290 183 290 183 282 182 c 1,175,176
 279 167 279 167 276.5 152.5 c 128,-1,177
 274 138 274 138 272 125.5 c 128,-1,178
 270 113 270 113 268.5 103 c 128,-1,179
 267 93 267 93 267 87 c 2,180,-1
 267 80 l 2,181,182
 265 61 265 61 250.5 48 c 128,-1,183
 236 35 236 35 217 36.5 c 128,-1,184
 198 38 198 38 185 52.5 c 128,-1,185
 172 67 172 67 173 86 c 2,186,-1
 173 93 l 2,187,188
 174 102 174 102 175 114 c 0,189,190
 177 125 177 125 179 139.5 c 128,-1,191
 181 154 181 154 184 170 c 0,192,193
 185 174 185 174 185 178 c 1,194,195
 177 178 177 178 168 178 c 0,196,197
 154 177 154 177 136 175 c 0,198,199
 119 174 119 174 114 172 c 0,200,201
 109 172 109 172 106 170 c 2,202,-1
 100 168 l 2,203,204
 82 161 82 161 64.5 169.5 c 128,-1,0
 47 178 47 178 40 196 c 128,-1,1
438 403 m 1,205,206
 415 401 415 401 392 401 c 0,207,208
 365 401 365 401 338 403 c 0,209,210
 335 403 335 403 327 404 c 1,211,212
 326 398 326 398 324 391 c 0,213,214
 316 365 316 365 313 348 c 0,215,216
 310 330 310 330 306 309 c 0,217,218
 304 292 304 292 301 277 c 1,219,220
 324 278 324 278 348 279 c 0,221,222
 375 280 375 280 403 281 c 1,223,224
 403 281 403 281 403 282 c 0,225,226
 411 308 411 308 418 331 c 0,227,228
 424 357 424 357 433 385 c 0,229,230
 436 394 436 394 438 403 c 1,205,206
EndSplineSet
EndChar

StartChar: dollar
Encoding: 36 36 7
Width: 494
Flags: W
LayerCount: 2
Fore
SplineSet
295 778 m 256,0,1
 314 778 314 778 328 764 c 128,-1,2
 342 750 342 750 342 731 c 2,3,-1
 342 718 l 2,4,5
 342 711 342 711 344 701 c 0,6,7
 349 683 349 683 351 661 c 0,8,9
 351 657 351 657 351 653 c 0,10,11
 353 651 353 651 355 650 c 0,12,13
 368 641 368 641 381 629 c 0,14,15
 392 618 392 618 402 606 c 0,16,17
 412 593 412 593 420 581 c 0,18,19
 426 571 426 571 431 560 c 0,20,21
 436 550 436 550 440 542 c 0,22,23
 446 530 446 530 449 518 c 0,24,25
 451 510 451 510 454 499 c 2,26,-1
 456 488 l 2,27,28
 461 469 461 469 450.5 452.5 c 128,-1,29
 440 436 440 436 421.5 431.5 c 128,-1,30
 403 427 403 427 386.5 437 c 128,-1,31
 370 447 370 447 365 466 c 2,32,-1
 362 477 l 2,33,34
 360 486 360 486 358 495 c 0,35,36
 357 498 357 498 355 502 c 2,37,38
 355 502 355 502 355 503 c 1,39,40
 355 474 355 474 356 442 c 0,41,42
 357 399 357 399 358 373 c 0,43,44
 358 353 358 353 358 334 c 1,45,46
 367 330 367 330 375 325 c 0,47,48
 388 316 388 316 401 302 c 0,49,50
 412 290 412 290 420 276 c 0,51,52
 428 263 428 263 434 250 c 0,53,54
 440 235 440 235 444 216 c 0,55,56
 446 200 446 200 447 184 c 0,57,58
 447 162 447 162 439 141 c 0,59,60
 433 125 433 125 425 111 c 0,61,62
 418 98 418 98 410 87 c 0,63,64
 401 74 401 74 389 63 c 0,65,66
 381 55 381 55 369 46 c 0,67,68
 369 45 369 45 369.5 43 c 128,-1,69
 370 41 370 41 370 40 c 0,70,71
 370 26 370 26 371 14 c 0,72,73
 371 6 371 6 372 1 c 0,74,75
 374 -6 374 -6 377 -14 c 0,76,77
 380 -24 380 -24 385 -37 c 0,78,79
 390 -52 390 -52 394 -67 c 2,80,-1
 398 -80 l 2,81,82
 403 -99 403 -99 393.5 -116 c 128,-1,83
 384 -133 384 -133 365.5 -138 c 128,-1,84
 347 -143 347 -143 329.5 -133.5 c 128,-1,85
 312 -124 312 -124 307 -106 c 2,86,-1
 306 -102 l 1,87,88
 298 -110 298 -110 287 -113 c 0,89,90
 269 -118 269 -118 251.5 -108.5 c 128,-1,91
 234 -99 234 -99 229 -81 c 2,92,-1
 226 -70 l 2,93,94
 223 -60 223 -60 220 -48 c 0,95,96
 216 -34 216 -34 213 -21 c 0,97,98
 211 -10 211 -10 210 2 c 1,99,100
 192 3 192 3 176 7 c 0,101,102
 160 12 160 12 145 18 c 0,103,104
 129 25 129 25 115 34 c 256,105,106
 101 43 101 43 92 51 c 2,107,-1
 85 57 l 2,108,109
 70 69 70 69 68.5 88.5 c 128,-1,110
 67 108 67 108 79 123 c 128,-1,111
 91 138 91 138 110.5 139.5 c 128,-1,112
 130 141 130 141 145 129 c 2,113,-1
 153 123 l 2,114,115
 158 118 158 118 166 113 c 256,116,117
 174 108 174 108 182 105 c 0,118,119
 191 101 191 101 202 98 c 0,120,121
 207 96 207 96 213 96 c 1,122,123
 213 111 213 111 213 127 c 0,124,125
 213 146 213 146 211 170 c 0,126,127
 209 197 209 197 208 219 c 0,128,129
 206 240 206 240 204 267 c 1,130,131
 193 268 193 268 181 270 c 0,132,133
 166 272 166 272 149 276 c 0,134,135
 131 280 131 280 120 285 c 0,136,137
 110 290 110 290 97 298 c 0,138,139
 81 309 81 309 70 324 c 0,140,141
 61 335 61 335 54 348 c 0,142,143
 45 364 45 364 41 383 c 0,144,145
 37 400 37 400 37 420 c 0,146,147
 37 435 37 435 38 449 c 0,148,149
 39 465 39 465 42 483 c 256,150,151
 45 501 45 501 49.5 517 c 128,-1,152
 54 533 54 533 61 549 c 0,153,154
 69 569 69 569 83 588 c 0,155,156
 95 604 95 604 109 618 c 0,157,158
 124 632 124 632 140 643 c 256,159,160
 156 654 156 654 174 661 c 0,161,162
 175 661 175 661 176 662 c 0,163,164
 175 674 175 674 175 685 c 0,165,166
 174 704 174 704 174 723 c 2,167,-1
 174 742 l 2,168,169
 174 762 174 762 188 775.5 c 128,-1,170
 202 789 202 789 221 789 c 0,171,172
 249 789 249 789 263 765 c 1,173,174
 276 778 276 778 295 778 c 256,0,1
199 362 m 1,175,176
 197 404 197 404 196 424 c 0,177,178
 194 447 194 447 193 472 c 0,179,180
 191 495 191 495 189 514 c 0,181,182
 187 535 187 535 185 557 c 1,183,184
 185 557 185 557 184.5 558 c 128,-1,185
 184 559 184 559 184 559 c 1,186,187
 180 555 180 555 175 550 c 0,188,189
 166 541 166 541 158 531 c 0,190,191
 151 522 151 522 148 514 c 0,192,193
 143 502 143 502 140 491 c 128,-1,194
 137 480 137 480 135 467 c 0,195,196
 132 455 132 455 132 444 c 0,197,198
 131 432 131 432 131 419 c 0,199,200
 131 410 131 410 132 404 c 0,201,202
 134 398 134 398 136 394 c 0,203,204
 140 386 140 386 145 381 c 0,205,206
 146 379 146 379 148 377 c 0,207,208
 155 373 155 373 159 371 c 0,209,210
 162 369 162 369 172 367 c 0,211,212
 183 364 183 364 193 363 c 0,213,214
 196 362 196 362 199 362 c 1,175,176
EndSplineSet
EndChar

StartChar: percent
Encoding: 37 37 8
Width: 696
Flags: W
LayerCount: 2
Fore
SplineSet
463 200 m 1,0,-1
 458 193 l 2,1,2
 448 179 448 179 431 175 c 0,3,4
 427 171 427 171 423 168 c 0,5,6
 420 158 420 158 413 144 c 0,7,8
 407 133 407 133 404 124 c 1,9,10
 406 117 406 117 409 111 c 0,11,12
 410 109 410 109 412 107 c 0,13,14
 418 103 418 103 427 100 c 0,15,16
 434 97 434 97 444 97 c 128,-1,17
 454 97 454 97 471 104 c 0,18,19
 492 111 492 111 509 121 c 0,20,21
 523 129 523 129 535 142 c 0,22,23
 548 156 548 156 556 168 c 0,24,25
 561 177 561 177 563 193 c 0,26,27
 567 212 567 212 565 228 c 0,28,29
 564 243 564 243 561 254 c 0,30,31
 559 259 559 259 558 262 c 0,32,33
 557 262 557 262 556 263 c 0,34,35
 553 264 553 264 550 264 c 0,36,37
 544 237 544 237 517 229 c 2,38,-1
 503 225 l 2,39,40
 496 223 496 223 486 217 c 0,41,42
 478 211 478 211 463 200 c 1,0,-1
395 266 m 0,43,44
 406 280 406 280 423 296 c 0,45,46
 437 310 437 310 455 322 c 0,47,48
 466 330 466 330 481 338 c 256,49,50
 496 346 496 346 502.5 349 c 128,-1,51
 509 352 509 352 522 355.5 c 128,-1,52
 535 359 535 359 548 359 c 0,53,54
 571 358 571 358 590 351 c 0,55,56
 612 342 612 342 627 325 c 256,57,58
 642 308 642 308 650 283 c 0,59,60
 657 261 657 261 659 234 c 0,61,62
 661 208 661 208 656 178 c 0,63,64
 651 144 651 144 636 120 c 0,65,66
 623 99 623 99 604 77 c 0,67,68
 582 55 582 55 556 40 c 0,69,70
 533 26 533 26 504 15 c 0,71,72
 471 3 471 3 444.5 3 c 128,-1,73
 418 3 418 3 395 12 c 0,74,75
 375 19 375 19 358 31 c 0,76,77
 338 45 338 45 327 65 c 0,78,79
 317 82 317 82 313 100 c 0,80,81
 306 126 306 126 314 153 c 0,82,83
 320 170 320 170 330 189 c 0,84,85
 332 193 332 193 334 196 c 0,86,87
 336 209 336 209 342 219.5 c 128,-1,88
 348 230 348 230 353 234.5 c 128,-1,89
 358 239 358 239 369 246.5 c 128,-1,90
 380 254 380 254 384 257 c 0,91,92
 389 262 389 262 395 266 c 0,43,44
233 528 m 0,93,94
 231 526 231 526 228 526 c 0,95,96
 227 525 227 525 227 525 c 2,97,98
 219 521 219 521 211 515 c 0,99,100
 200 507 200 507 192 496 c 0,101,102
 183 484 183 484 175 467 c 2,103,-1
 166 445 l 2,104,105
 156 423 156 423 132 418 c 1,106,107
 133 412 133 412 134 409 c 0,108,109
 137 404 137 404 141 400 c 0,110,111
 143 399 143 399 145 398 c 0,112,113
 149 396 149 396 156 396 c 0,114,115
 160 396 160 396 170 401 c 0,116,117
 184 407 184 407 199 418 c 0,118,119
 212 429 212 429 223 446 c 0,120,121
 236 464 236 464 242 482 c 0,122,123
 248 499 248 499 248 511 c 0,124,125
 249 521 249 521 248 525 c 0,126,127
 248 526 248 526 247 527 c 0,128,129
 245 529 245 529 244.5 529.5 c 128,-1,130
 244 530 244 530 241 530 c 256,131,132
 238 530 238 530 233 528 c 0,93,94
190 612 m 2,133,134
 195 614 195 614 199 615 c 0,135,136
 227 626 227 626 250 624 c 0,137,138
 271 622 271 622 288 613 c 128,-1,139
 305 604 305 604 319 588 c 0,140,141
 333 571 333 571 339 550 c 0,142,143
 344 531 344 531 342 505 c 0,144,145
 341 480 341 480 330 451 c 0,146,147
 320 422 320 422 302 394 c 0,148,149
 282 365 282 365 257 345 c 0,150,151
 233 326 233 326 207 314 c 0,152,153
 177 301 177 301 153 302 c 0,154,155
 132 303 132 303 113 310 c 0,156,157
 93 317 93 317 77 332 c 0,158,159
 63 345 63 345 53 361 c 0,160,161
 42 379 42 379 38 406 c 0,162,163
 35 433 35 433 41 456 c 0,164,165
 46 474 46 474 56 495 c 0,166,167
 67 517 67 517 83 536 c 0,168,169
 98 554 98 554 116 568 c 0,170,171
 131 580 131 580 145 590 c 0,172,173
 162 601 162 601 180 608 c 2,174,-1
 190 612 l 2,133,134
103 9.5 m 128,-1,176
 87 20 87 20 83.5 39.5 c 128,-1,177
 80 59 80 59 91 75 c 2,178,-1
 105 95 l 2,179,180
 117 113 117 113 126 131 c 0,181,182
 138 154 138 154 157 182 c 0,183,184
 174 208 174 208 191 232 c 0,185,186
 209 257 209 257 231 287 c 0,187,188
 254 318 254 318 278.5 349.5 c 128,-1,189
 303 381 303 381 329 410 c 0,190,191
 354 439 354 439 374 461 c 256,192,193
 394 483 394 483 420.5 512.5 c 128,-1,194
 447 542 447 542 464 561 c 256,195,196
 481 580 481 580 492 592 c 0,197,198
 504 605 504 605 517 618 c 0,199,200
 531 632 531 632 543 642 c 2,201,-1
 553 650 l 2,202,203
 567 662 567 662 587 660.5 c 128,-1,204
 607 659 607 659 619 644 c 128,-1,205
 631 629 631 629 629.5 609.5 c 128,-1,206
 628 590 628 590 613 578 c 2,207,-1
 603 569 l 2,208,209
 595 562 595 562 583 551 c 0,210,211
 572 540 572 540 562 529 c 0,212,213
 551 517 551 517 534 498 c 0,214,215
 518 480 518 480 491 450 c 128,-1,216
 464 420 464 420 444 398 c 256,217,218
 424 376 424 376 400 348 c 0,219,220
 376 321 376 321 352 291 c 128,-1,221
 328 261 328 261 307 232 c 0,222,223
 285 202 285 202 268 178 c 256,224,225
 251 154 251 154 235 129 c 0,226,227
 219 106 219 106 210 88 c 0,228,229
 198 65 198 65 182 42 c 2,230,-1
 168 22 l 2,231,232
 157 6 157 6 138 2.5 c 128,-1,175
 119 -1 119 -1 103 9.5 c 128,-1,176
EndSplineSet
EndChar

StartChar: ampersand
Encoding: 38 38 9
Width: 620
Flags: W
LayerCount: 2
Fore
SplineSet
179 267 m 1,0,1
 172 259 172 259 168 253 c 0,2,3
 161 243 161 243 152 227 c 0,4,5
 144 213 144 213 140 202 c 256,6,7
 136 191 136 191 133.5 180 c 128,-1,8
 131 169 131 169 131 160 c 0,9,10
 131 153 131 153 132 148 c 0,11,12
 134 141 134 141 136 135 c 0,13,14
 140 129 140 129 144 123 c 0,15,16
 148 118 148 118 153 112 c 0,17,18
 157 108 157 108 162 105 c 0,19,20
 167 103 167 103 177 102 c 0,21,22
 199 100 199 100 208 102 c 0,23,24
 224 106 224 106 242 111 c 256,25,26
 260 116 260 116 276 122 c 256,27,28
 292 128 292 128 310 137 c 0,29,30
 312 138 312 138 314 139 c 1,31,32
 301 148 301 148 292 155 c 0,33,34
 282 164 282 164 266.5 177.5 c 128,-1,35
 251 191 251 191 236 205 c 0,36,37
 220 219 220 219 212 229 c 0,38,39
 207 235 207 235 194 249 c 0,40,41
 185 258 185 258 179 267 c 1,0,1
205 412 m 1,42,43
 219 423 219 423 235 434 c 0,44,45
 250 445 250 445 262 455 c 0,46,47
 275 465 275 465 286 475 c 0,48,49
 296 483 296 483 304 492 c 0,50,51
 312 502 312 502 316 509 c 0,52,53
 321 516 321 516 324 523 c 128,-1,54
 327 530 327 530 332 550 c 0,55,56
 335 566 335 566 336 572 c 0,57,58
 335 577 335 577 334 582 c 0,59,60
 334 583 334 583 333 584 c 0,61,62
 330 588 330 588 326 591.5 c 128,-1,63
 322 595 322 595 318 598 c 0,64,65
 311 603 311 603 301 607 c 0,66,67
 296 610 296 610 293 611 c 0,68,69
 288 611 288 611 279 611 c 0,70,71
 267 610 267 610 261 609 c 0,72,73
 257 609 257 609 246 605 c 0,74,75
 241 604 241 604 239 602 c 0,76,77
 231 596 231 596 213 579 c 0,78,79
 202 569 202 569 199 564 c 0,80,81
 197 558 197 558 196 556 c 0,82,83
 195 550 195 550 193 537 c 0,84,85
 191 523 191 523 189 515 c 0,86,87
 189 511 189 511 188 500 c 0,88,89
 188 489 188 489 190 480 c 2,90,-1
 192 470 l 2,91,92
 197 456 197 456 199 442 c 0,93,94
 201 431 201 431 204 418 c 0,95,96
 204 415 204 415 205 412 c 1,42,43
396 196 m 1,97,98
 413 211 413 211 437 234 c 0,99,100
 481 276 481 276 490 283 c 2,101,-1
 497 290 l 2,102,103
 512 302 512 302 531.5 300.5 c 128,-1,104
 551 299 551 299 563.5 284.5 c 128,-1,105
 576 270 576 270 574.5 250.5 c 128,-1,106
 573 231 573 231 558 218 c 2,107,-1
 551 212 l 2,108,109
 544 206 544 206 502 166 c 0,110,111
 484 150 484 150 471 137 c 1,112,113
 481 130 481 130 492 120 c 0,114,115
 501 112 501 112 507 108 c 0,116,117
 514 103 514 103 519 99 c 0,118,119
 524 96 524 96 534 91 c 0,120,121
 534 90 534 90 534.5 90 c 128,-1,122
 535 90 535 90 536 90 c 0,123,124
 556 90 556 90 569.5 76 c 128,-1,125
 583 62 583 62 583 43 c 128,-1,126
 583 24 583 24 569.5 10 c 128,-1,127
 556 -4 556 -4 536 -4 c 2,128,-1
 530 -4 l 2,129,130
 511 -4 511 -4 489 8 c 0,131,132
 474 16 474 16 466 22 c 0,133,134
 459 27 459 27 451 33 c 256,135,136
 443 39 443 39 431 48 c 0,137,138
 422 56 422 56 416 61 c 0,139,140
 408 66 408 66 396 77 c 0,141,142
 394 76 394 76 394 76 c 2,143,144
 373 63 373 63 351 52 c 0,145,146
 329 42 329 42 310 34 c 0,147,148
 290 27 290 27 268 20 c 0,149,150
 246 14 246 14 228 10 c 0,151,152
 204 5 204 5 168 9 c 0,153,154
 167 9 167 9 161 9.5 c 128,-1,155
 155 10 155 10 153 10 c 128,-1,156
 151 10 151 10 146 11 c 128,-1,157
 141 12 141 12 138.5 12.5 c 128,-1,158
 136 13 136 13 131.5 14.5 c 128,-1,159
 127 16 127 16 123.5 17.5 c 128,-1,160
 120 19 120 19 116 21.5 c 128,-1,161
 112 24 112 24 108 27 c 0,162,163
 98 35 98 35 87 45 c 0,164,165
 76 56 76 56 67 69 c 0,166,167
 58 81 58 81 52 94 c 0,168,169
 45 108 45 108 41 125 c 256,170,171
 37 142 37 142 37 162 c 0,172,173
 38 180 38 180 41.5 198.5 c 128,-1,174
 45 217 45 217 52 235 c 256,175,176
 59 253 59 253 70 273 c 0,177,178
 81 292 81 292 90 305 c 0,179,180
 100 321 100 321 117 338 c 0,181,182
 121 343 121 343 127 348 c 1,183,184
 119 363 119 363 116 374 c 0,185,186
 114 385 114 385 111 399 c 0,187,188
 108 415 108 415 106 426 c 0,189,190
 105 432 105 432 104 435 c 0,191,192
 100 447 100 447 97 465 c 256,193,194
 94 483 94 483 95 502 c 0,195,196
 95 521 95 521 97 532 c 0,197,198
 98 539 98 539 100 551 c 0,199,200
 102 565 102 565 103 572 c 0,201,202
 105 583 105 583 112 600 c 0,203,204
 121 622 121 622 149 648 c 0,205,206
 170 668 170 668 180 676 c 0,207,208
 196 688 196 688 219 695 c 0,209,210
 236 701 236 701 247 702 c 0,211,212
 257 704 257 704 273 705 c 0,213,214
 294 706 294 706 310 703 c 0,215,216
 327 700 327 700 344 691 c 0,217,218
 356 685 356 685 367 679 c 0,219,220
 380 671 380 671 391 660 c 0,221,222
 402 650 402 650 410 639 c 0,223,224
 420 624 420 624 425 605 c 0,225,226
 429 591 429 591 430 575 c 0,227,228
 430 558 430 558 423 529 c 0,229,230
 417 501 417 501 410.5 486 c 128,-1,231
 404 471 404 471 395 458 c 0,232,233
 387 446 387 446 375 431 c 0,234,235
 363 417 363 417 348 404 c 0,236,237
 335 393 335 393 321 381 c 0,238,239
 307 370 307 370 289 358 c 0,240,241
 274 347 274 347 259 336 c 0,242,243
 254 332 254 332 250 329 c 1,244,245
 254 322 254 322 262 313 c 0,246,247
 277 298 277 298 284 290 c 0,248,249
 288 285 288 285 300 273 c 0,250,251
 314 261 314 261 328 248 c 0,252,253
 343 235 343 235 352 227 c 0,254,255
 359 221 359 221 372 213 c 0,256,257
 384 205 384 205 396 196 c 1,97,98
EndSplineSet
EndChar

StartChar: quotesingle
Encoding: 39 39 10
Width: 250
Flags: W
LayerCount: 2
Fore
SplineSet
150 680 m 128,-1,1
 169 685 169 685 186 675 c 128,-1,2
 203 665 203 665 207 647 c 2,3,-1
 211 634 l 2,4,5
 214 621 214 621 213 607 c 128,-1,6
 212 593 212 593 207 579 c 0,7,8
 201 561 201 561 188 540 c 0,9,10
 178 524 178 524 171 511 c 0,11,12
 163 496 163 496 157 485 c 0,13,14
 151 473 151 473 145 461 c 0,15,16
 140 449 140 449 137 441 c 0,17,18
 134 432 134 432 133 427 c 0,19,20
 132 423 132 423 131 419 c 2,21,-1
 131 410 l 2,22,23
 130 391 130 391 115.5 378 c 128,-1,24
 101 365 101 365 81.5 366 c 128,-1,25
 62 367 62 367 49 381.5 c 128,-1,26
 36 396 36 396 37 416 c 2,27,-1
 38 424 l 2,28,29
 38 437 38 437 41 450 c 0,30,31
 44 459 44 459 48 472 c 0,32,33
 53 485 53 485 60 501 c 0,34,35
 67 516 67 516 74 529 c 0,36,37
 81 541 81 541 88 555 c 0,38,39
 97 571 97 571 108 589 c 0,40,41
 115 601 115 601 119 612 c 1,42,-1
 116 623 l 2,43,44
 112 642 112 642 121.5 658.5 c 128,-1,0
 131 675 131 675 150 680 c 128,-1,1
EndSplineSet
EndChar

StartChar: parenleft
Encoding: 40 40 11
Width: 380
Flags: W
LayerCount: 2
Fore
SplineSet
318 739.5 m 128,-1,1
 328 723 328 723 323 704 c 128,-1,2
 318 685 318 685 301 675 c 2,3,-1
 295 672 l 2,4,5
 287 667 287 667 275 662 c 0,6,7
 271 660 271 660 267 656 c 0,8,9
 258 650 258 650 251 644 c 0,10,11
 245 638 245 638 236 630 c 256,12,13
 227 622 227 622 215.5 610 c 128,-1,14
 204 598 204 598 195 587 c 0,15,16
 187 577 187 577 180 566 c 256,17,18
 173 555 173 555 166.5 541.5 c 128,-1,19
 160 528 160 528 155 515 c 0,20,21
 150 501 150 501 145 488 c 0,22,23
 141 476 141 476 138 460 c 256,24,25
 135 444 135 444 134 431 c 0,26,27
 132 415 132 415 131.5 400 c 128,-1,28
 131 385 131 385 131 368 c 0,29,30
 131 353 131 353 132 338 c 0,31,32
 133 321 133 321 134 309 c 256,33,34
 135 297 135 297 137 279 c 0,35,36
 140 259 140 259 143 241 c 0,37,38
 145 224 145 224 148 206 c 0,39,40
 150 190 150 190 154 175 c 0,41,42
 158 158 158 158 161.5 143 c 128,-1,43
 165 128 165 128 169 117 c 0,44,45
 171 109 171 109 177 97 c 0,46,47
 184 82 184 82 190 71 c 0,48,49
 197 58 197 58 204 46 c 0,50,51
 210 34 210 34 218 21 c 0,52,53
 226 7 226 7 236 -9 c 0,54,55
 241 -19 241 -19 247 -28 c 0,56,57
 254 -38 254 -38 268 -60 c 0,58,59
 282 -80 282 -80 287 -87 c 0,60,61
 292 -92 292 -92 307 -105 c 2,62,-1
 327 -121 l 2,63,64
 341 -133 341 -133 343 -152.5 c 128,-1,65
 345 -172 345 -172 333 -187 c 128,-1,66
 321 -202 321 -202 301.5 -204 c 128,-1,67
 282 -206 282 -206 267 -193 c 2,68,-1
 248 -178 l 2,69,70
 225 -159 225 -159 215 -147 c 0,71,72
 206 -136 206 -136 190 -112 c 0,73,74
 175 -89 175 -89 168 -78 c 256,75,76
 161 -67 161 -67 153 -53 c 0,77,78
 146 -41 146 -41 138 -28 c 0,79,80
 129 -13 129 -13 121 1 c 0,81,82
 114 14 114 14 107 26 c 0,83,84
 100 39 100 39 92 57 c 0,85,86
 83 76 83 76 78 91 c 0,87,88
 75 103 75 103 70.5 119.5 c 128,-1,89
 66 136 66 136 62 154 c 0,90,91
 58 173 58 173 55 192 c 0,92,93
 52 210 52 210 50 228 c 0,94,95
 47 246 47 246 44 265 c 0,96,97
 41 287 41 287 40 301 c 256,98,99
 39 315 39 315 38 332 c 0,100,101
 37 350 37 350 37 369 c 0,102,103
 37 387 37 387 38 404 c 128,-1,104
 39 421 39 421 40 438 c 0,105,106
 41 457 41 457 46 479 c 0,107,108
 50 501 50 501 56 518 c 0,109,110
 61 533 61 533 68 549 c 0,111,112
 74 566 74 566 82 582 c 0,113,114
 90 599 90 599 100 615 c 0,115,116
 109 631 109 631 122 647 c 0,117,118
 134 661 134 661 147.5 675.5 c 128,-1,119
 161 690 161 690 172 700 c 0,120,121
 183 709 183 709 192 716 c 0,122,123
 199 723 199 723 209 730 c 0,124,125
 222 741 222 741 237 747 c 0,126,127
 243 750 243 750 247 753 c 2,128,-1
 253 756 l 2,129,130
 270 766 270 766 289 761 c 128,-1,0
 308 756 308 756 318 739.5 c 128,-1,1
EndSplineSet
EndChar

StartChar: parenright
Encoding: 41 41 12
Width: 403
Flags: W
LayerCount: 2
Fore
SplineSet
44 738.5 m 128,-1,1
 54 755 54 755 73 759.5 c 128,-1,2
 92 764 92 764 108 754 c 2,3,-1
 117 749 l 2,4,5
 128 742 128 742 138 735 c 0,6,7
 146 729 146 729 158 721 c 0,8,9
 173 710 173 710 186 699 c 0,10,11
 196 690 196 690 206 682 c 0,12,13
 219 671 219 671 232 659 c 0,14,15
 243 647 243 647 254 636 c 0,16,17
 267 623 267 623 279 606 c 0,18,19
 291 591 291 591 302 574 c 0,20,21
 314 555 314 555 324 535 c 128,-1,22
 334 515 334 515 340 495 c 256,23,24
 346 475 346 475 350 449 c 256,25,26
 354 423 354 423 356 406 c 256,27,28
 358 389 358 389 360 369 c 256,29,30
 362 349 362 349 364 328 c 0,31,32
 365 306 365 306 366 287 c 0,33,34
 367 265 367 265 364 240 c 0,35,36
 362 216 362 216 359 194 c 0,37,38
 355 173 355 173 350 150 c 256,39,40
 345 127 345 127 340 108 c 0,41,42
 335 88 335 88 326 66 c 0,43,44
 319 47 319 47 309 28 c 0,45,46
 300 8 300 8 287 -13 c 0,47,48
 275 -33 275 -33 263 -50 c 0,49,50
 252 -66 252 -66 240 -82 c 0,51,52
 229 -97 229 -97 219 -111 c 0,53,54
 207 -127 207 -127 195 -140 c 0,55,56
 184 -150 184 -150 174 -160 c 0,57,58
 162 -172 162 -172 151 -180 c 0,59,60
 148 -182 148 -182 140 -191 c 2,61,-1
 129 -204 l 2,62,63
 116 -219 116 -219 96.5 -220.5 c 128,-1,64
 77 -222 77 -222 62.5 -209.5 c 128,-1,65
 48 -197 48 -197 46.5 -177 c 128,-1,66
 45 -157 45 -157 57 -143 c 2,67,-1
 69 -130 l 2,68,69
 84 -112 84 -112 97 -103 c 0,70,71
 102 -99 102 -99 109 -93 c 0,72,73
 118 -84 118 -84 127 -74 c 0,74,75
 135 -66 135 -66 143 -55 c 0,76,77
 153 -41 153 -41 165 -26 c 0,78,79
 176 -11 176 -11 186 3 c 0,80,81
 196 18 196 18 207 36 c 0,82,83
 217 53 217 53 225 69 c 0,84,85
 232 85 232 85 239 102 c 0,86,87
 245 117 245 117 249 132 c 0,88,89
 254 149 254 149 258 170 c 0,90,91
 263 191 263 191 266 210 c 0,92,93
 269 228 269 228 271 248 c 0,94,95
 273 267 273 267 272 283 c 0,96,97
 271 302 271 302 270 322 c 256,98,99
 269 342 269 342 267 360 c 256,100,101
 265 378 265 378 263 394 c 256,102,103
 261 410 261 410 257 433 c 0,104,105
 254 455 254 455 250 468 c 0,106,107
 246 480 246 480 239 494 c 0,108,109
 232 509 232 509 224 522 c 0,110,111
 214 537 214 537 204 550 c 0,112,113
 195 562 195 562 187 570 c 0,114,115
 176 581 176 581 165 592 c 0,116,117
 156 602 156 602 147 609 c 0,118,119
 135 618 135 618 124 628 c 0,120,121
 115 636 115 636 105 643 c 0,122,123
 91 653 91 653 82 659 c 0,124,125
 75 664 75 664 68 669 c 2,126,-1
 59 674 l 2,127,128
 43 684 43 684 38.5 703 c 128,-1,0
 34 722 34 722 44 738.5 c 128,-1,1
EndSplineSet
EndChar

StartChar: asterisk
Encoding: 42 42 13
Width: 493
Flags: W
LayerCount: 2
Fore
SplineSet
237.5 523 m 128,-1,1
 257 523 257 523 271 509 c 128,-1,2
 285 495 285 495 285 476 c 2,3,-1
 285 462 l 2,4,5
 285 451 285 451 287 430 c 0,6,7
 287 428 287 428 287 426 c 1,8,9
 292 432 292 432 296 436 c 0,10,11
 307 448 307 448 320 460.5 c 128,-1,12
 333 473 333 473 344 482 c 0,13,14
 357 492 357 492 366 498 c 2,15,-1
 372 502 l 2,16,17
 388 513 388 513 407.5 508.5 c 128,-1,18
 427 504 427 504 437 488 c 128,-1,19
 447 472 447 472 443 452.5 c 128,-1,20
 439 433 439 433 423 423 c 2,21,-1
 416 419 l 2,22,23
 412 416 412 416 404 409 c 0,24,25
 395 402 395 402 385 392.5 c 128,-1,26
 375 383 375 383 367 374 c 0,27,28
 358 363 358 363 343 346 c 0,29,30
 333 335 333 335 323 324 c 1,31,32
 326 323 326 323 327 322 c 0,33,34
 343 312 343 312 356 305 c 0,35,36
 370 297 370 297 388 287 c 0,37,38
 406 276 406 276 420 267 c 2,39,-1
 434 259 l 2,40,41
 450 249 450 249 454.5 229.5 c 128,-1,42
 459 210 459 210 449 194 c 128,-1,43
 439 178 439 178 420 173.5 c 128,-1,44
 401 169 401 169 384 179 c 2,45,-1
 371 188 l 2,46,47
 360 194 360 194 346 202 c 1,48,49
 349 196 349 196 351 189 c 2,50,-1
 362 158 l 2,51,52
 369 139 369 139 360.5 121.5 c 128,-1,53
 352 104 352 104 334 97.5 c 128,-1,54
 316 91 316 91 298 99 c 128,-1,55
 280 107 280 107 274 126 c 2,56,-1
 263 157 l 2,57,58
 251 188 251 188 242 217 c 0,59,60
 240 221 240 221 239 224 c 1,61,62
 231 213 231 213 227 208 c 2,63,-1
 218 195 l 2,64,65
 207 180 207 180 188 176.5 c 128,-1,66
 169 173 169 173 153 183.5 c 128,-1,67
 137 194 137 194 133.5 213.5 c 128,-1,68
 130 233 130 233 141 249 c 2,69,-1
 150 261 l 2,70,71
 160 276 160 276 182 301 c 1,72,73
 168 310 168 310 152 319 c 0,74,75
 134 329 134 329 120 337 c 0,76,77
 107 345 107 345 94 352 c 0,78,79
 82 360 82 360 71 366 c 2,80,-1
 60 373 l 2,81,82
 44 383 44 383 39 402 c 128,-1,83
 34 421 34 421 43.5 437.5 c 128,-1,84
 53 454 53 454 72 459 c 128,-1,85
 91 464 91 464 108 454 c 2,86,-1
 119 447 l 2,87,88
 130 441 130 441 143 433 c 256,89,90
 156 425 156 425 168 418 c 0,91,92
 179 411 179 411 196 402 c 1,93,94
 195 411 195 411 194 419 c 0,95,96
 191 446 191 446 191 462 c 2,97,-1
 191 476 l 2,98,99
 191 495 191 495 204.5 509 c 128,-1,0
 218 523 218 523 237.5 523 c 128,-1,1
EndSplineSet
EndChar

StartChar: plus
Encoding: 43 43 14
Width: 553
Flags: W
LayerCount: 2
Fore
SplineSet
37.5 322 m 128,-1,1
 40 341 40 341 55 353 c 128,-1,2
 70 365 70 365 89 363 c 2,3,-1
 98 362 l 2,4,5
 105 361 105 361 131 360 c 0,6,7
 158 359 158 359 176 359 c 0,8,9
 192 358 192 358 210 358 c 0,10,11
 219 358 219 358 226 358 c 1,12,13
 226 359 226 359 226 359.5 c 128,-1,14
 226 360 226 360 226 360 c 2,15,16
 224 381 224 381 225 405 c 0,17,18
 225 426 225 426 226 446 c 0,19,20
 226 468 226 468 228 486 c 0,21,22
 229 502 229 502 230 515 c 0,23,24
 232 530 232 530 234 542 c 0,25,26
 236 549 236 549 236 552 c 2,27,-1
 237 559 l 2,28,29
 239 578 239 578 254 590.5 c 128,-1,30
 269 603 269 603 288 601 c 128,-1,31
 307 599 307 599 319.5 583.5 c 128,-1,32
 332 568 332 568 330 549 c 2,33,-1
 330 543 l 2,34,35
 329 534 329 534 326 522 c 0,36,37
 325 515 325 515 324 505 c 0,38,39
 323 494 323 494 321 477 c 0,40,41
 320 463 320 463 320 445 c 0,42,43
 319 424 319 424 319 402 c 0,44,45
 318 384 318 384 320 368 c 0,46,47
 320 363 320 363 320 358 c 1,48,-1
 402 358 l 2,49,50
 423 358 423 358 448 357 c 2,51,-1
 472 356 l 2,52,53
 491 355 491 355 504 340.5 c 128,-1,54
 517 326 517 326 516 306.5 c 128,-1,55
 515 287 515 287 500.5 274 c 128,-1,56
 486 261 486 261 467 262 c 2,57,-1
 443 263 l 2,58,59
 421 264 421 264 402 264 c 2,60,-1
 327 264 l 1,61,62
 328 252 328 252 328 241 c 0,63,64
 330 219 330 219 330 198 c 0,65,66
 330 175 330 175 327 154 c 0,67,68
 325 133 325 133 320 114 c 0,69,70
 317 100 317 100 314 89 c 0,71,72
 312 78 312 78 310 69 c 0,73,74
 308 61 308 61 308 55 c 2,75,-1
 306 46 l 2,76,77
 304 27 304 27 288.5 15 c 128,-1,78
 273 3 273 3 254 5.5 c 128,-1,79
 235 8 235 8 223 23.5 c 128,-1,80
 211 39 211 39 213 58 c 2,81,-1
 214 66 l 2,82,83
 216 77 216 77 218 89 c 0,84,85
 220 98 220 98 223 109 c 0,86,87
 225 121 225 121 229 137 c 0,88,89
 232 149 232 149 234 164.5 c 128,-1,90
 236 180 236 180 236 198 c 0,91,92
 236 217 236 217 235 236 c 0,93,94
 234 250 234 250 233 264 c 1,95,96
 223 264 223 264 210 264 c 0,97,98
 191 264 191 264 173.5 264.5 c 128,-1,99
 156 265 156 265 127 266 c 256,100,101
 98 267 98 267 87 268 c 2,102,-1
 79 270 l 2,103,104
 59 272 59 272 47 287.5 c 128,-1,0
 35 303 35 303 37.5 322 c 128,-1,1
EndSplineSet
EndChar

StartChar: comma
Encoding: 44 44 15
Width: 210
Flags: W
LayerCount: 2
Fore
SplineSet
142 124 m 128,-1,1
 160 118 160 118 168.5 100 c 128,-1,2
 177 82 177 82 171 64 c 2,3,-1
 168 55 l 2,4,5
 164 44 164 44 157 24 c 0,6,7
 150 3 150 3 144 -11 c 0,8,9
 139 -23 139 -23 136 -30 c 0,10,11
 134 -34 134 -34 133 -41 c 256,12,13
 132 -48 132 -48 131 -52 c 2,14,-1
 131 -59 l 2,15,16
 129 -78 129 -78 114.5 -90.5 c 128,-1,17
 100 -103 100 -103 80.5 -102 c 128,-1,18
 61 -101 61 -101 48.5 -86 c 128,-1,19
 36 -71 36 -71 37 -52 c 2,20,-1
 38 -45 l 2,21,22
 38 -36 38 -36 41 -23 c 0,23,24
 44 -8 44 -8 48 3 c 0,25,26
 51 12 51 12 57 25 c 0,27,28
 62 37 62 37 68 56 c 0,29,30
 76 76 76 76 79 85 c 2,31,-1
 82 95 l 2,32,33
 88 113 88 113 106 121.5 c 128,-1,0
 124 130 124 130 142 124 c 128,-1,1
EndSplineSet
EndChar

StartChar: hyphen
Encoding: 45 45 16
Width: 455
Flags: W
LayerCount: 2
Fore
SplineSet
37.5 289.5 m 128,-1,1
 39 309 39 309 53.5 321.5 c 128,-1,2
 68 334 68 334 87 333 c 2,3,-1
 97 332 l 2,4,5
 109 331 109 331 121 330 c 0,6,7
 129 329 129 329 149 328 c 0,8,9
 167 327 167 327 189 329 c 0,10,11
 218 331 218 331 238 330 c 0,12,13
 257 329 257 329 279 326 c 0,14,15
 296 323 296 323 312 322 c 0,16,17
 327 321 327 321 335 320 c 0,18,19
 345 320 345 320 359 319 c 2,20,-1
 374 318 l 2,21,22
 393 318 393 318 406 303 c 128,-1,23
 419 288 419 288 418 269 c 128,-1,24
 417 250 417 250 402.5 237 c 128,-1,25
 388 224 388 224 369 225 c 2,26,-1
 354 225 l 2,27,28
 339 226 339 226 331 226 c 0,29,30
 322 227 322 227 304 228 c 0,31,32
 286 230 286 230 265 233 c 0,33,34
 247 235 247 235 232 236 c 0,35,36
 219 237 219 237 198 235 c 0,37,38
 170 233 170 233 145 234 c 256,39,40
 120 235 120 235 108 237 c 0,41,42
 99 238 99 238 91 238 c 2,43,-1
 81 239 l 2,44,45
 61 241 61 241 48.5 255.5 c 128,-1,0
 36 270 36 270 37.5 289.5 c 128,-1,1
EndSplineSet
EndChar

StartChar: period
Encoding: 46 46 17
Width: 170
Flags: W
LayerCount: 2
Fore
SplineSet
50.5 83.5 m 128,-1,1
 64 97 64 97 83.5 97 c 128,-1,2
 103 97 103 97 117 84 c 2,3,-1
 120 80 l 2,4,5
 134 67 134 67 134 47.5 c 128,-1,6
 134 28 134 28 120.5 14 c 128,-1,7
 107 0 107 0 87 0 c 128,-1,8
 67 0 67 0 54 14 c 2,9,-1
 51 17 l 2,10,11
 37 31 37 31 37 50.5 c 128,-1,0
 37 70 37 70 50.5 83.5 c 128,-1,1
EndSplineSet
EndChar

StartChar: slash
Encoding: 47 47 18
Width: 562
Flags: W
LayerCount: 2
Fore
SplineSet
58 -74.5 m 128,-1,1
 42 -64 42 -64 38 -44.5 c 128,-1,2
 34 -25 34 -25 45 -9 c 2,3,-1
 51 0 l 2,4,5
 53 4 53 4 58 16 c 0,6,7
 66 38 66 38 83 58 c 0,8,9
 90 66 90 66 95 75 c 0,10,11
 102 91 102 91 120 126 c 0,12,13
 139 161 139 161 155 187 c 0,14,15
 168 209 168 209 176 227 c 0,16,17
 187 251 187 251 208 283 c 0,18,19
 225 310 225 310 240 340 c 0,20,21
 257 374 257 374 283 414 c 0,22,23
 306 450 306 450 316 470 c 0,24,25
 329 494 329 494 348 523 c 0,26,27
 365 548 365 548 372 558 c 0,28,29
 377 566 377 566 382 576 c 0,30,31
 390 592 390 592 402 608 c 0,32,33
 410 620 410 620 413 624 c 0,34,35
 414 628 414 628 416 632 c 0,36,37
 423 650 423 650 439 665 c 2,38,-1
 447 672 l 2,39,40
 462 685 462 685 481.5 684 c 128,-1,41
 501 683 501 683 514 669 c 128,-1,42
 527 655 527 655 526 635.5 c 128,-1,43
 525 616 525 616 511 603 c 2,44,-1
 503 596 l 1,45,46
 499 586 499 586 494 577.5 c 128,-1,47
 489 569 489 569 479 554 c 0,48,49
 471 543 471 543 466 533 c 0,50,51
 458 518 458 518 450 506 c 256,52,53
 442 494 442 494 426 470 c 256,54,55
 410 446 410 446 400 427 c 0,56,57
 388 403 388 403 362 363 c 0,58,59
 339 327 339 327 324 298 c 0,60,61
 307 263 307 263 287 232 c 0,62,63
 270 206 270 206 262 189 c 0,64,65
 252 166 252 166 235 138 c 0,66,67
 221 114 221 114 203 82 c 0,68,69
 186 48 186 48 179 35 c 0,70,71
 170 15 170 15 154 -4 c 0,72,73
 148 -11 148 -11 146 -17 c 0,74,75
 138 -38 138 -38 129 -52 c 2,76,-1
 123 -61 l 2,77,78
 112 -77 112 -77 93 -81 c 128,-1,0
 74 -85 74 -85 58 -74.5 c 128,-1,1
EndSplineSet
EndChar

StartChar: zero
Encoding: 48 48 19
Width: 529
Flags: W
LayerCount: 2
Fore
SplineSet
270 661 m 0,0,1
 281 663 281 663 292 663 c 0,2,3
 309 663 309 663 328 661 c 0,4,5
 348 658 348 658 367 652 c 0,6,7
 388 646 388 646 406 634 c 128,-1,8
 424 622 424 622 439 604 c 0,9,10
 457 583 457 583 466 551 c 0,11,12
 474 524 474 524 477 492 c 0,13,14
 480 464 480 464 483 434 c 0,15,16
 485 408 485 408 487 379 c 0,17,18
 490 351 490 351 491 326 c 0,19,20
 493 298 493 298 492 272 c 0,21,22
 490 244 490 244 484 216 c 0,23,24
 477 188 477 188 459 153 c 0,25,26
 444 122 444 122 434 106 c 0,27,28
 420 83 420 83 397 68 c 0,29,30
 384 60 384 60 359 41 c 0,31,32
 331 20 331 20 311 7 c 0,33,34
 281 -12 281 -12 246 -13 c 0,35,36
 221 -13 221 -13 205 -11 c 0,37,38
 187 -7 187 -7 171 1 c 0,39,40
 163 5 163 5 153 10 c 0,41,42
 130 23 130 23 116 50 c 0,43,44
 112 57 112 57 106 63 c 0,45,46
 87 82 87 82 75 111 c 0,47,48
 69 127 69 127 62 139 c 0,49,50
 45 165 45 165 42 198 c 0,51,52
 41 220 41 220 39.5 244.5 c 128,-1,53
 38 269 38 269 37 295 c 0,54,55
 37 322 37 322 38 345 c 0,56,57
 38 366 38 366 41 391 c 0,58,59
 43 416 43 416 47 436 c 0,60,61
 50 457 50 457 56 473 c 0,62,63
 62 492 62 492 81 522 c 0,64,65
 99 549 99 549 127 583 c 0,66,67
 157 617 157 617 172 629 c 0,68,69
 182 636 182 636 194 646 c 0,70,71
 224 671 224 671 255 665 c 2,72,-1
 263 663 l 2,73,74
 266 662 266 662 270 661 c 0,0,1
196 518 m 1,75,76
 173 492 173 492 160 471 c 0,77,78
 148 451 148 451 145 443 c 0,79,80
 142 433 142 433 139 419 c 0,81,82
 136 404 136 404 134 382 c 256,83,84
 132 360 132 360 131 341 c 0,85,86
 131 322 131 322 131 298 c 0,87,88
 132 272 132 272 133 249 c 128,-1,89
 134 226 134 226 136 205 c 0,90,91
 137 196 137 196 141 190 c 0,92,93
 153 170 153 170 163 145 c 0,94,95
 167 135 167 135 171 131 c 0,96,97
 188 114 188 114 199 93 c 1,98,-1
 200 92 l 2,99,100
 208 88 208 88 216 84 c 0,101,102
 218 82 218 82 222 82 c 0,103,104
 228 81 228 81 245 81 c 0,105,106
 253 81 253 81 260 86 c 0,107,108
 278 97 278 97 303 116 c 0,109,110
 330 137 330 137 346 147 c 0,111,112
 350 150 350 150 353 155 c 0,113,114
 361 168 361 168 375 196 c 0,115,116
 388 221 388 221 392 239 c 0,117,118
 397 257 397 257 398 276 c 0,119,120
 399 297 399 297 397 320 c 0,121,122
 396 344 396 344 394 371 c 0,123,124
 392 397 392 397 389 427 c 0,125,126
 387 455 387 455 384 482 c 0,127,128
 381 506 381 506 376 525 c 0,129,130
 372 538 372 538 368 543 c 0,131,132
 361 551 361 551 354 555.5 c 128,-1,133
 347 560 347 560 339 563 c 0,134,135
 329 566 329 566 317 567 c 0,136,137
 304 569 304 569 293 569 c 0,138,139
 284 569 284 569 276 567 c 0,140,141
 271 566 271 566 263 562 c 0,142,143
 254 558 254 558 240 545 c 2,144,-1
 222 529 l 2,145,146
 211 520 211 520 196 518 c 1,75,76
EndSplineSet
EndChar

StartChar: one
Encoding: 49 49 20
Width: 493
Flags: W
LayerCount: 2
Fore
SplineSet
38.5 409.5 m 128,-1,1
 34 428 34 428 44 445 c 128,-1,2
 54 462 54 462 73 467 c 2,3,-1
 80 468 l 2,4,5
 90 471 90 471 100 472 c 0,6,7
 108 473 108 473 115 474 c 256,8,9
 122 475 122 475 141 478 c 0,10,11
 153 480 153 480 161 485 c 0,12,13
 179 495 179 495 204 504 c 0,14,15
 223 510 223 510 240 519 c 256,16,17
 257 528 257 528 287 551 c 0,18,19
 308 567 308 567 315 575 c 0,20,21
 322 587 322 587 332 602.5 c 128,-1,22
 342 618 342 618 348 626 c 0,23,24
 352 633 352 633 359 645 c 0,25,26
 359 646 359 646 359 648 c 128,-1,27
 359 650 359 650 360.5 654.5 c 128,-1,28
 362 659 362 659 365.5 663 c 128,-1,29
 369 667 369 667 378.5 670 c 128,-1,30
 388 673 388 673 402 674 c 0,31,32
 426 675 426 675 439 668 c 128,-1,33
 452 661 452 661 454.5 651 c 128,-1,34
 457 641 457 641 456 630.5 c 128,-1,35
 455 620 455 620 452 612 c 2,36,-1
 448 605 l 1,37,38
 445 591 445 591 443 574 c 0,39,40
 442 554 442 554 441 534 c 0,41,42
 440 512 440 512 439 486 c 2,43,-1
 437 437 l 2,44,45
 436 413 436 413 432 382 c 256,46,47
 428 351 428 351 424 324 c 0,48,49
 419 295 419 295 414 266 c 0,50,51
 409 238 409 238 406 213 c 0,52,53
 402 187 402 187 401 171 c 0,54,55
 400 154 400 154 399 142 c 0,56,57
 399 130 399 130 398 117 c 0,58,59
 397 105 397 105 396.5 96.5 c 128,-1,60
 396 88 396 88 396 79 c 2,61,-1
 396 70 l 2,62,63
 396 51 396 51 381.5 37 c 128,-1,64
 367 23 367 23 348 23.5 c 128,-1,65
 329 24 329 24 315.5 38.5 c 128,-1,66
 302 53 302 53 302 72 c 2,67,-1
 302 81 l 2,68,69
 303 91 303 91 303 100 c 128,-1,70
 303 109 303 109 304 122 c 128,-1,71
 305 135 305 135 305 147 c 0,72,73
 306 160 306 160 307.5 178 c 128,-1,74
 309 196 309 196 312 225 c 0,75,76
 316 253 316 253 321 283 c 0,77,78
 327 311 327 311 330.5 337.5 c 128,-1,79
 334 364 334 364 338 394 c 0,80,81
 342 421 342 421 343 441 c 2,82,-1
 344 476 l 1,83,84
 307 448 307 448 283 436 c 0,85,86
 260 424 260 424 236 415 c 0,87,88
 218 409 218 409 206 402 c 0,89,90
 185 391 185 391 157 386 c 0,91,92
 137 382 137 382 128 381 c 0,93,94
 120 380 120 380 111 379 c 0,95,96
 107 378 107 378 103 377 c 2,97,-1
 95 375 l 2,98,99
 77 371 77 371 60 381 c 128,-1,0
 43 391 43 391 38.5 409.5 c 128,-1,1
EndSplineSet
EndChar

StartChar: two
Encoding: 50 50 21
Width: 602
Flags: W
LayerCount: 2
Fore
SplineSet
95 410 m 0,0,1
 76 406 76 406 60 417 c 128,-1,2
 44 428 44 428 40 447 c 2,3,-1
 38 456 l 2,4,5
 32 487 32 487 52 511 c 0,6,7
 56 515 56 515 58 519 c 0,8,9
 65 529 65 529 87 550 c 0,10,11
 105 569 105 569 123 584 c 0,12,13
 140 600 140 600 149 607 c 0,14,15
 160 616 160 616 202 639 c 0,16,17
 245 662 245 662 267 668 c 0,18,19
 284 673 284 673 305 680 c 0,20,21
 330 687 330 687 353 690 c 0,22,23
 378 693 378 693 401 689 c 0,24,25
 426 685 426 685 449 673 c 0,26,27
 472 660 472 660 489 641 c 0,28,29
 504 624 504 624 515 603 c 0,30,31
 527 579 527 579 529 549 c 0,32,33
 531 521 531 521 523 491 c 0,34,35
 515 463 515 463 501 437 c 0,36,37
 489 413 489 413 466 379 c 0,38,39
 444 347 444 347 419.5 315.5 c 128,-1,40
 395 284 395 284 367.5 254.5 c 128,-1,41
 340 225 340 225 312 200 c 0,42,43
 294 184 294 184 273 167 c 1,44,45
 283 163 283 163 293 159 c 0,46,47
 310 152 310 152 328 140 c 0,48,49
 343 129 343 129 354 121 c 0,50,51
 364 114 364 114 375 106 c 0,52,53
 387 101 387 101 420 97 c 0,54,55
 464 91 464 91 484 94 c 2,56,-1
 510 98 l 2,57,58
 529 101 529 101 545 89.5 c 128,-1,59
 561 78 561 78 564.5 59.5 c 128,-1,60
 568 41 568 41 556.5 25 c 128,-1,61
 545 9 545 9 526 6 c 2,62,-1
 499 1 l 2,63,64
 466 -4 466 -4 408 3 c 0,65,66
 405 4 405 4 401 4 c 0,67,68
 346 12 346 12 323 27 c 0,69,70
 309 37 309 37 298 46 c 0,71,72
 288 53 288 53 275 62 c 0,73,74
 264 69 264 69 255 73 c 0,75,76
 245 77 245 77 235 79 c 128,-1,77
 225 81 225 81 213 81 c 0,78,79
 201 80 201 80 185 76 c 0,80,81
 167 72 167 72 146 65 c 0,82,83
 125 57 125 57 113 52 c 1,84,85
 113 52 113 52 78 72 c 0,86,87
 26 107 26 107 61 133 c 0,88,89
 70 140 70 140 97 157 c 0,90,91
 121 172 121 172 144 187 c 0,92,93
 165 201 165 201 194 224 c 0,94,95
 224 248 224 248 250 271 c 0,96,97
 274 293 274 293 298.5 319 c 128,-1,98
 323 345 323 345 345.5 373.5 c 128,-1,99
 368 402 368 402 388 432 c 0,100,101
 408 461 408 461 418 480 c 0,102,103
 427 497 427 497 432 516 c 0,104,105
 436 532 436 532 435 543 c 0,106,107
 435 552 435 552 431 560 c 0,108,109
 425 571 425 571 418 579 c 0,110,111
 412 586 412 586 404 591 c 0,112,113
 395 595 395 595 386 597 c 0,114,115
 376 598 376 598 364 597 c 0,116,117
 350 595 350 595 333 590 c 0,118,119
 311 583 311 583 293 578 c 0,120,121
 281 574 281 574 247 556 c 0,122,123
 215 539 215 539 208 533 c 0,124,125
 200 527 200 527 185 513.5 c 128,-1,126
 170 500 170 500 153 484 c 0,127,128
 140 471 140 471 136 466 c 0,129,130
 134 463 134 463 133 461 c 0,131,132
 134 444 134 444 123.5 429 c 128,-1,133
 113 414 113 414 95 410 c 0,0,1
EndSplineSet
EndChar

StartChar: three
Encoding: 51 51 22
Width: 584
Flags: W
LayerCount: 2
Fore
SplineSet
60 665 m 128,-1,1
 68 683 68 683 86 690 c 128,-1,2
 104 697 104 697 122 689 c 2,3,-1
 132 685 l 2,4,5
 139 681 139 681 144 679 c 0,6,7
 153 677 153 677 182 674 c 0,8,9
 220 669 220 669 244.5 667 c 128,-1,10
 269 665 269 665 290 663.5 c 128,-1,11
 311 662 311 662 332 662 c 0,12,13
 356 661 356 661 376 660 c 0,14,15
 396 658 396 658 413 656 c 0,16,17
 430 653 430 653 447 650 c 0,18,19
 462 647 462 647 475 644 c 0,20,21
 489 641 489 641 501 638 c 0,22,23
 520 632 520 632 529 618 c 128,-1,24
 538 604 538 604 536.5 589.5 c 128,-1,25
 535 575 535 575 532 564.5 c 128,-1,26
 529 554 529 554 526 549 c 0,27,28
 513 531 513 531 494 514 c 0,29,30
 480 501 480 501 462 485 c 256,31,32
 444 469 444 469 423.5 451.5 c 128,-1,33
 403 434 403 434 383 417 c 0,34,35
 372 407 372 407 360 398 c 1,36,37
 383 399 383 399 402 397 c 0,38,39
 428 394 428 394 452 383 c 0,40,41
 473 374 473 374 490 361 c 0,42,43
 508 348 508 348 520 332 c 0,44,45
 534 314 534 314 541 293 c 0,46,47
 550 269 550 269 547 245 c 0,48,49
 545 223 545 223 533 196 c 0,50,51
 520 169 520 169 500 145 c 0,52,53
 479 122 479 122 448 102 c 0,54,55
 419 83 419 83 388 70 c 0,56,57
 356 57 356 57 323 50 c 0,58,59
 292 43 292 43 264 39.5 c 128,-1,60
 236 36 236 36 203 35 c 0,61,62
 170 35 170 35 147 36 c 0,63,64
 120 37 120 37 99 43 c 0,65,66
 77 49 77 49 65 56 c 2,67,-1
 59 60 l 2,68,69
 43 70 43 70 38.5 89.5 c 128,-1,70
 34 109 34 109 44 125 c 128,-1,71
 54 141 54 141 73 145.5 c 128,-1,72
 92 150 92 150 109 140 c 2,73,-1
 114 137 l 2,74,75
 117 135 117 135 124 134 c 0,76,77
 135 131 135 131 152 130 c 0,78,79
 172 129 172 129 201 129 c 0,80,81
 229 130 229 130 252.5 133 c 128,-1,82
 276 136 276 136 303 142 c 0,83,84
 328 147 328 147 352 157 c 0,85,86
 375 167 375 167 397 181 c 0,87,88
 417 194 417 194 429 207 c 0,89,90
 440 220 440 220 447 234 c 0,91,92
 453 248 453 248 454 255 c 0,93,94
 454 258 454 258 453 262 c 0,95,96
 450 269 450 269 446 274 c 0,97,98
 441 280 441 280 434 286 c 0,99,100
 425 292 425 292 413 298 c 0,101,102
 403 302 403 302 393 303 c 0,103,104
 378 305 378 305 360 304 c 0,105,106
 344 304 344 304 329 300 c 0,107,108
 310 296 310 296 290 290 c 256,109,110
 270 284 270 284 248 277 c 0,111,112
 213 264 213 264 190 271 c 0,113,114
 166 277 166 277 157 309 c 128,-1,115
 148 341 148 341 168 360 c 0,116,117
 175 366 175 366 185 375 c 0,118,119
 197 386 197 386 211 397 c 0,120,121
 224 408 224 408 246 426 c 0,122,123
 268 445 268 445 287 460 c 0,124,125
 304 474 304 474 323.5 490 c 128,-1,126
 343 506 343 506 362.5 522.5 c 128,-1,127
 382 539 382 539 399 555 c 0,128,129
 400 556 400 556 402.5 558 c 128,-1,130
 405 560 405 560 407 562 c 1,131,132
 403 562 403 562 400 563 c 0,133,134
 386 565 386 565 369 566 c 256,135,136
 352 567 352 567 330 568 c 0,137,138
 307 568 307 568 285 569.5 c 128,-1,139
 263 571 263 571 236.5 573 c 128,-1,140
 210 575 210 575 170 580 c 0,141,142
 126 586 126 586 114 591 c 0,143,144
 105 594 105 594 94 599 c 2,145,-1
 84 603 l 2,146,147
 66 611 66 611 59 629 c 128,-1,0
 52 647 52 647 60 665 c 128,-1,1
EndSplineSet
EndChar

StartChar: four
Encoding: 52 52 23
Width: 660
Flags: W
LayerCount: 2
Fore
SplineSet
470 543.5 m 128,-1,1
 487 534 487 534 492 515 c 128,-1,2
 497 496 497 496 488 480 c 2,3,-1
 476 458 l 2,4,5
 465 439 465 439 454 415 c 0,6,7
 442 388 442 388 426 355 c 0,8,9
 420 342 420 342 413 329 c 1,10,11
 444 343 444 343 465 351 c 0,12,13
 485 359 485 359 503 367 c 0,14,15
 525 377 525 377 540 380 c 0,16,17
 554 382 554 382 566 383 c 2,18,-1
 575 383 l 2,19,20
 594 383 594 383 608.5 369.5 c 128,-1,21
 623 356 623 356 623.5 337 c 128,-1,22
 624 318 624 318 610 303.5 c 128,-1,23
 596 289 596 289 577 289 c 2,24,-1
 569 289 l 2,25,26
 565 289 565 289 559 288 c 0,27,28
 553 286 553 286 539 280 c 0,29,30
 520 272 520 272 499 264 c 0,31,32
 480 256 480 256 448 241 c 0,33,34
 413 225 413 225 377 212 c 0,35,36
 357 204 357 204 337 197 c 1,37,38
 326 179 326 179 316 161 c 0,39,40
 296 130 296 130 278 96 c 0,41,42
 260 64 260 64 248 34 c 0,43,44
 236 5 236 5 231 -15 c 0,45,46
 227 -29 227 -29 228 -35 c 2,47,-1
 230 -48 l 2,48,49
 232 -67 232 -67 220.5 -82.5 c 128,-1,50
 209 -98 209 -98 190 -101 c 128,-1,51
 171 -104 171 -104 155 -92.5 c 128,-1,52
 139 -81 139 -81 137 -62 c 2,53,-1
 135 -48 l 2,54,55
 131 -26 131 -26 139 7 c 0,56,57
 146 35 146 35 161 70 c 256,58,59
 176 105 176 105 196 141 c 0,60,61
 202 153 202 153 209 165 c 1,62,63
 186 162 186 162 164 162 c 0,64,65
 130 163 130 163 110 168 c 0,66,67
 86 175 86 175 69 190 c 0,68,69
 52 204 52 204 44 221 c 0,70,71
 34 242 34 242 38 268 c 0,72,73
 41 282 41 282 46 299 c 0,74,75
 53 322 53 322 77 353 c 0,76,77
 96 378 96 378 122 409 c 0,78,79
 146 437 146 437 169 467 c 0,80,81
 194 499 194 499 228 538 c 0,82,83
 260 575 260 575 275 592 c 0,84,85
 288 608 288 608 297 620 c 0,86,87
 308 636 308 636 320 649 c 2,88,-1
 330 660 l 2,89,90
 343 674 343 674 362.5 675 c 128,-1,91
 382 676 382 676 396.5 663 c 128,-1,92
 411 650 411 650 412 630.5 c 128,-1,93
 413 611 413 611 400 597 c 2,94,-1
 390 586 l 2,95,96
 382 577 382 577 374 566 c 0,97,98
 363 550 363 550 346 531 c 0,99,100
 331 514 331 514 299 476 c 0,101,102
 267 440 267 440 244 410 c 0,103,104
 219 378 219 378 193 348 c 0,105,106
 169 320 169 320 152 296 c 0,107,108
 138 279 138 279 136 271 c 0,109,110
 134 265 134 265 133 260 c 0,111,112
 134 259 134 259 135 259 c 0,113,114
 144 257 144 257 166.5 256.5 c 128,-1,115
 189 256 189 256 214 262 c 0,116,117
 243 268 243 268 275 277 c 0,118,119
 276 278 276 278 276 278 c 1,120,121
 297 314 297 314 312 340 c 256,122,123
 327 366 327 366 341 396 c 0,124,125
 357 427 357 427 368 453 c 0,126,127
 381 481 381 481 394 505 c 2,128,-1
 406 526 l 2,129,130
 415 543 415 543 434 548 c 128,-1,0
 453 553 453 553 470 543.5 c 128,-1,1
EndSplineSet
EndChar

StartChar: five
Encoding: 53 53 24
Width: 534
Flags: W
LayerCount: 2
Fore
SplineSet
182 624 m 1,0,1
 179 641 179 641 188 656 c 128,-1,2
 197 671 197 671 214 676 c 2,3,-1
 235 683 l 2,4,5
 264 693 264 693 299 692 c 0,6,7
 328 692 328 692 362 688 c 0,8,9
 396 685 396 685 426 682 c 2,10,-1
 456 679 l 2,11,12
 475 677 475 677 487.5 661.5 c 128,-1,13
 500 646 500 646 498 627 c 128,-1,14
 496 608 496 608 480.5 595.5 c 128,-1,15
 465 583 465 583 446 585 c 2,16,-1
 416 588 l 2,17,18
 386 592 386 592 353 595 c 0,19,20
 323 598 323 598 298 598 c 0,21,22
 282 598 282 598 270 595 c 1,23,24
 269 588 269 588 265 581 c 2,25,-1
 257 566 l 2,26,27
 250 553 250 553 243 535 c 0,28,29
 235 514 235 514 219 482 c 128,-1,30
 203 450 203 450 189 425 c 0,31,32
 175 402 175 402 160 377 c 2,33,34
 160 377 160 377 159 375 c 1,35,36
 185 382 185 382 210 387 c 0,37,38
 243 393 243 393 264 395 c 0,39,40
 287 396 287 396 310 394 c 0,41,42
 337 392 337 392 364 380.5 c 128,-1,43
 391 369 391 369 411 351 c 0,44,45
 432 331 432 331 445 305 c 0,46,47
 458 277 458 277 458 242 c 0,48,49
 457 205 457 205 437 170 c 0,50,51
 419 141 419 141 390 110 c 0,52,53
 360 78 360 78 321 55 c 0,54,55
 284 34 284 34 231 14 c 0,56,57
 174 -7 174 -7 151 -8 c 0,58,59
 118 -9 118 -9 96 9 c 0,60,61
 73 27 73 27 68 63 c 2,62,-1
 66 80 l 2,63,64
 64 99 64 99 76 114.5 c 128,-1,65
 88 130 88 130 107 132.5 c 128,-1,66
 126 135 126 135 141.5 123 c 128,-1,67
 157 111 157 111 160 91 c 2,68,-1
 160 89 l 1,69,70
 175 94 175 94 198 102 c 0,71,72
 244 119 244 119 273 137 c 0,73,74
 301 153 301 153 322 175 c 0,75,76
 344 198 344 198 355 217 c 0,77,78
 363 231 363 231 364 243 c 0,79,80
 364 257 364 257 360 265 c 0,81,82
 355 274 355 274 348 281 c 0,83,84
 339 289 339 289 326.5 294.5 c 128,-1,85
 314 300 314 300 302 301 c 0,86,87
 286 302 286 302 271 301 c 256,88,89
 256 300 256 300 229 295 c 0,90,91
 201 289 201 289 173 281 c 0,92,93
 141 272 141 272 117 269 c 0,94,95
 73 265 73 265 51 291 c 0,96,97
 40 304 40 304 37.5 323 c 128,-1,98
 35 342 35 342 42 357 c 0,99,100
 47 368 47 368 56 385 c 0,101,102
 65 401 65 401 80 426 c 0,103,104
 94 450 94 450 108 473 c 0,105,106
 120 494 120 494 134.5 523.5 c 128,-1,107
 149 553 149 553 156 571 c 0,108,109
 165 593 165 593 174 610 c 2,110,-1
 182 624 l 1,0,1
EndSplineSet
EndChar

StartChar: six
Encoding: 54 54 25
Width: 533
Flags: W
LayerCount: 2
Fore
SplineSet
144 131 m 1,0,1
 150 107 150 107 155 92 c 0,2,3
 159 80 159 80 166 70 c 0,4,5
 171 64 171 64 175 62 c 0,6,7
 179 59 179 59 190 59 c 0,8,9
 204 58 204 58 222 62 c 0,10,11
 243 67 243 67 259 74 c 0,12,13
 275 82 275 82 289 91 c 0,14,15
 302 99 302 99 316 114 c 128,-1,16
 330 129 330 129 339 145 c 0,17,18
 349 163 349 163 354 180 c 0,19,20
 359 195 359 195 360 206 c 0,21,22
 360 211 360 211 360 215 c 0,23,24
 355 219 355 219 346 225 c 0,25,26
 327 236 327 236 314 238 c 0,27,28
 295 240 295 240 275 238 c 256,29,30
 255 236 255 236 239 232 c 0,31,32
 226 229 226 229 210 220 c 0,33,34
 195 211 195 211 184 200 c 0,35,36
 174 189 174 189 164 169 c 2,37,-1
 151 142 l 2,38,39
 149 137 149 137 144 131 c 1,0,1
131 279 m 1,40,41
 146 291 146 291 163 301 c 0,42,43
 190 317 190 317 216 324 c 0,44,45
 239 329 239 329 267 332 c 0,46,47
 296 334 296 334 324 331 c 0,48,49
 358 328 358 328 395 305 c 0,50,51
 409 296 409 296 416 291 c 128,-1,52
 423 286 423 286 432.5 275 c 128,-1,53
 442 264 442 264 447 251 c 0,54,55
 455 229 455 229 454 201 c 0,56,57
 452 177 452 177 443 150 c 0,58,59
 435 126 435 126 421 100 c 0,60,61
 407 73 407 73 384.5 49.5 c 128,-1,62
 362 26 362 26 340 12 c 0,63,64
 320 -1 320 -1 297 -11 c 0,65,66
 273 -22 273 -22 245 -29 c 0,67,68
 212 -37 212 -37 183 -35 c 0,69,70
 152 -33 152 -33 130 -21 c 256,71,72
 108 -9 108 -9 91 14 c 0,73,74
 75 35 75 35 67 60 c 0,75,76
 59 81 59 81 52 111 c 0,77,78
 45 142 45 142 42 176 c 0,79,80
 41 186 41 186 40 196 c 0,81,82
 38 218 38 218 37 241 c 0,83,84
 36 274 36 274 38 305 c 0,85,86
 40 338 40 338 47 372 c 0,87,88
 55 404 55 404 64 432 c 0,89,90
 74 462 74 462 90 493 c 256,91,92
 106 524 106 524 127 548 c 0,93,94
 147 570 147 570 169 589 c 0,95,96
 192 609 192 609 217.5 624.5 c 128,-1,97
 243 640 243 640 268 649 c 256,98,99
 293 658 293 658 314 662 c 0,100,101
 337 666 337 666 361 664 c 0,102,103
 385 663 385 663 411 654 c 0,104,105
 439 644 439 644 457 629 c 0,106,107
 462 624 462 624 465 622 c 2,108,-1
 472 618 l 2,109,110
 489 609 489 609 495 590.5 c 128,-1,111
 501 572 501 572 491.5 555 c 128,-1,112
 482 538 482 538 463.5 532 c 128,-1,113
 445 526 445 526 428 535 c 2,114,-1
 421 539 l 2,115,116
 409 546 409 546 393 559 c 0,117,118
 390 562 390 562 380 565 c 0,119,120
 367 570 367 570 355 571 c 0,121,122
 343 571 343 571 332 569 c 0,123,124
 318 567 318 567 300 560 c 0,125,126
 283 554 283 554 265 543.5 c 128,-1,127
 247 533 247 533 231 518 c 0,128,129
 213 503 213 503 198 486 c 0,130,131
 184 470 184 470 173 449 c 0,132,133
 161 426 161 426 153 403 c 0,134,135
 145 379 145 379 139 351 c 0,136,137
 133 325 133 325 132 300 c 0,138,139
 131 290 131 290 131 279 c 1,40,41
EndSplineSet
EndChar

StartChar: seven
Encoding: 55 55 26
Width: 622
Flags: W
LayerCount: 2
Fore
SplineSet
194.5 192.5 m 128,-1,1
 190 211 190 211 200.5 228 c 128,-1,2
 211 245 211 245 229 250 c 2,3,-1
 247 254 l 2,4,5
 266 259 266 259 291 263 c 0,6,7
 311 266 311 266 336 269 c 1,8,9
 345 294 345 294 355 320 c 0,10,11
 369 359 369 359 382 394 c 0,12,13
 391 419 391 419 400 442 c 1,14,15
 393 440 393 440 387 439 c 0,16,17
 357 432 357 432 329 433 c 0,18,19
 299 434 299 434 279 443 c 0,20,21
 259 451 259 451 242 466 c 0,22,23
 228 478 228 478 216 491 c 0,24,25
 204 505 204 505 194 523 c 1,26,27
 193 520 193 520 190 516 c 0,28,29
 163 475 163 475 154 463 c 0,30,31
 148 454 148 454 144 445 c 0,32,33
 137 430 137 430 131 419 c 2,34,-1
 125 409 l 2,35,36
 116 392 116 392 97 386.5 c 128,-1,37
 78 381 78 381 61.5 390 c 128,-1,38
 45 399 45 399 39 418 c 128,-1,39
 33 437 33 437 43 454 c 2,40,-1
 48 464 l 2,41,42
 53 472 53 472 58 484 c 0,43,44
 66 502 66 502 77 517 c 0,45,46
 86 529 86 529 112 568 c 0,47,48
 134 601 134 601 139 610 c 0,49,50
 143 620 143 620 146 629 c 0,51,52
 154 647 154 647 166.5 654 c 128,-1,53
 179 661 179 661 191 659 c 128,-1,54
 203 657 203 657 215 651 c 128,-1,55
 227 645 227 645 234 640 c 128,-1,56
 241 635 241 635 242 633 c 0,57,58
 255 615 255 615 264 596 c 0,59,60
 269 582 269 582 276 569 c 0,61,62
 281 560 281 560 287 553 c 0,63,64
 294 545 294 545 303 537 c 0,65,66
 309 532 309 532 315 530 c 0,67,68
 320 528 320 528 333 527 c 0,69,70
 348 526 348 526 366 530 c 0,71,72
 385 535 385 535 404 544 c 0,73,74
 419 552 419 552 431 560 c 0,75,76
 435 563 435 563 438 565 c 0,77,78
 453 577 453 577 460 585 c 0,79,80
 468 594 468 594 472 599 c 0,81,82
 475 604 475 604 477 607 c 0,83,84
 478 608 478 608 502 602.5 c 128,-1,85
 526 597 526 597 546.5 585.5 c 128,-1,86
 567 574 567 574 561 563 c 0,87,88
 556 555 556 555 551 547 c 0,89,90
 545 538 545 538 539 527 c 0,91,92
 528 509 528 509 518 485 c 0,93,94
 507 458 507 458 495 427 c 256,95,96
 483 396 483 396 470 361 c 256,97,98
 457 326 457 326 443 287 c 0,99,100
 440 282 440 282 438 276 c 1,101,102
 460 277 460 277 483 278 c 0,103,104
 521 279 521 279 529 279 c 2,105,-1
 537 279 l 2,106,107
 556 280 556 280 570.5 266.5 c 128,-1,108
 585 253 585 253 585.5 234 c 128,-1,109
 586 215 586 215 572.5 200.5 c 128,-1,110
 559 186 559 186 540 185 c 2,111,-1
 532 185 l 2,112,113
 525 185 525 185 486 184 c 0,114,115
 448 183 448 183 416 181 c 0,116,117
 410 180 410 180 405 180 c 1,118,119
 398 158 398 158 391 139 c 0,120,121
 379 104 379 104 369 73 c 0,122,123
 359 41 359 41 353 23 c 0,124,125
 347 6 347 6 342 -10 c 0,126,127
 339 -24 339 -24 338 -30 c 2,128,-1
 337 -39 l 2,129,130
 335 -59 335 -59 319.5 -71 c 128,-1,131
 304 -83 304 -83 285 -81 c 128,-1,132
 266 -79 266 -79 253.5 -64 c 128,-1,133
 241 -49 241 -49 243 -30 c 2,134,-1
 244 -20 l 2,135,136
 246 -7 246 -7 252 15 c 0,137,138
 257 33 257 33 263 53 c 0,139,140
 270 71 270 71 280 102 c 0,141,142
 290 134 290 134 302 169 c 1,143,144
 284 166 284 166 269 163 c 2,145,-1
 252 158 l 2,146,147
 233 154 233 154 216 164 c 128,-1,0
 199 174 199 174 194.5 192.5 c 128,-1,1
EndSplineSet
EndChar

StartChar: eight
Encoding: 56 56 27
Width: 606
Flags: W
LayerCount: 2
Fore
SplineSet
197 510 m 1,0,1
 189 505 189 505 179 497 c 0,2,3
 161 484 161 484 157 473 c 0,4,5
 150 453 150 453 148 441 c 0,6,7
 146 432 146 432 148 422 c 0,8,9
 150 409 150 409 155 395 c 0,10,11
 158 384 158 384 166 372 c 256,12,13
 174 360 174 360 186 347 c 0,14,15
 198 335 198 335 208 328 c 256,16,17
 218 321 218 321 230 316 c 1,18,19
 237 321 237 321 244 324 c 2,20,-1
 257 328 l 2,21,22
 274 334 274 334 309 339 c 0,23,24
 336 342 336 342 359 341 c 1,25,26
 377 353 377 353 389 365 c 0,27,28
 403 378 403 378 414 391 c 0,29,30
 424 402 424 402 430 414 c 0,31,32
 437 427 437 427 443 441 c 0,33,34
 446 447 446 447 446 451 c 0,35,36
 445 458 445 458 439 474 c 0,37,38
 433 491 433 491 429 497 c 0,39,40
 420 505 420 505 412 512 c 0,41,42
 405 518 405 518 397 523 c 0,43,44
 390 527 390 527 382 529 c 0,45,46
 373 532 373 532 359 533 c 0,47,48
 347 535 347 535 336 533 c 0,49,50
 323 532 323 532 308 528 c 0,51,52
 292 524 292 524 278 520 c 0,53,54
 264 514 264 514 253 510 c 2,55,-1
 242 505 l 2,56,57
 219 496 219 496 197 510 c 1,0,1
391 623 m 1,58,59
 401 621 401 621 409 619 c 0,60,61
 427 614 427 614 443 604 c 0,62,63
 459 596 459 596 472 584 c 0,64,65
 484 575 484 575 496 562 c 0,66,67
 514 544 514 544 527 507 c 0,68,69
 541 471 541 471 540 451 c 0,70,71
 540 429 540 429 530 404 c 0,72,73
 522 387 522 387 513 369 c 0,74,75
 502 349 502 349 486 331 c 0,76,77
 477 320 477 320 467 309 c 1,78,79
 475 305 475 305 484 300 c 0,80,81
 512 284 512 284 531 263 c 0,82,83
 549 242 549 242 558.5 221.5 c 128,-1,84
 568 201 568 201 570 180 c 0,85,86
 572 154 572 154 559 125 c 0,87,88
 549 103 549 103 532 79 c 0,89,90
 516 57 516 57 490 29 c 0,91,92
 463 0 463 0 429 -21 c 0,93,94
 395 -43 395 -43 362 -53 c 0,95,96
 336 -61 336 -61 305 -71 c 0,97,98
 263 -85 263 -85 229 -81 c 0,99,100
 198 -78 198 -78 172 -67 c 0,101,102
 145 -55 145 -55 123 -37 c 0,103,104
 105 -20 105 -20 87 0 c 0,105,106
 66 25 66 25 58 49 c 0,107,108
 53 61 53 61 47 73 c 0,109,110
 34 99 34 99 38 133 c 0,111,112
 41 162 41 162 48 178 c 0,113,114
 55 191 55 191 72 216 c 0,115,116
 90 242 90 242 110 258 c 0,117,118
 118 265 118 265 128 272 c 1,119,120
 123 277 123 277 118 282 c 0,121,122
 100 302 100 302 87 322 c 0,123,124
 73 343 73 343 65 365 c 0,125,126
 59 386 59 386 55 407 c 0,127,128
 51 432 51 432 55 456 c 0,129,130
 58 477 58 477 69 506 c 0,131,132
 83 543 83 543 123 573 c 0,133,134
 154 595 154 595 168 604 c 0,135,136
 185 614 185 614 211 624 c 0,137,138
 236 633 236 633 256 636 c 0,139,140
 271 639 271 639 283 641 c 0,141,142
 300 645 300 645 331 643 c 2,143,-1
 356 642 l 2,144,145
 377 641 377 641 391 623 c 1,58,59
229 219 m 1,146,147
 218 214 218 214 203 207 c 0,148,149
 182 196 182 196 171 187 c 256,150,151
 160 178 160 178 149 161 c 0,152,153
 137 145 137 145 134 138 c 0,154,155
 132 134 132 134 131 124 c 2,156,-1
 132 115 l 1,157,158
 140 97 140 97 146 80 c 0,159,160
 149 73 149 73 158 61 c 0,161,162
 172 46 172 46 185 34 c 0,163,164
 195 25 195 25 208 20 c 0,165,166
 221 14 221 14 239 13 c 0,167,168
 253 11 253 11 276 18 c 0,169,170
 309 29 309 29 335 37 c 0,171,172
 355 43 355 43 378 58 c 0,173,174
 402 73 402 73 422 94 c 0,175,176
 443 117 443 117 456 134 c 0,177,178
 467 150 467 150 473 163 c 0,179,180
 475 169 475 169 476 172 c 0,181,182
 475 177 475 177 472 184 c 256,183,184
 469 191 469 191 461 200 c 0,185,186
 452 210 452 210 438 218 c 0,187,188
 419 229 419 229 398 237 c 0,189,190
 388 241 388 241 379 243 c 1,191,192
 367 237 367 237 356 233 c 0,193,194
 349 230 349 230 341 227 c 0,195,196
 329 220 329 220 315 220 c 0,197,198
 309 219 309 219 303 218 c 0,199,200
 276 214 276 214 249 216 c 0,201,202
 239 217 239 217 229 219 c 1,146,147
EndSplineSet
EndChar

StartChar: nine
Encoding: 57 57 28
Width: 544
Flags: W
LayerCount: 2
Fore
SplineSet
476 378 m 1,0,1
 478 357 478 357 481 339 c 0,2,3
 484 313 484 313 486 288 c 0,4,5
 488 261 488 261 486.5 228.5 c 128,-1,6
 485 196 485 196 480 163 c 0,7,8
 474 130 474 130 466 101 c 256,9,10
 458 72 458 72 449 51 c 0,11,12
 440 32 440 32 432 16 c 0,13,14
 423 -3 423 -3 412 -17 c 0,15,16
 402 -31 402 -31 389 -42 c 0,17,18
 373 -57 373 -57 356 -64 c 0,19,20
 337 -73 337 -73 312 -74 c 0,21,22
 288 -74 288 -74 260 -64 c 0,23,24
 236 -56 236 -56 213 -42 c 0,25,26
 193 -29 193 -29 164 -5 c 0,27,28
 134 21 134 21 123 34 c 0,29,30
 111 52 111 52 107 71 c 2,31,-1
 105 79 l 2,32,33
 101 98 101 98 112 114.5 c 128,-1,34
 123 131 123 131 141.5 135 c 128,-1,35
 160 139 160 139 176.5 128 c 128,-1,36
 193 117 193 117 197 99 c 2,37,-1
 198 91 l 2,38,39
 199 91 199 91 199 90 c 0,40,41
 205 84 205 84 225 67 c 0,42,43
 248 47 248 47 263 38 c 0,44,45
 276 30 276 30 291 24 c 0,46,47
 303 20 303 20 309 20 c 0,48,49
 315 21 315 21 318 22 c 256,50,51
 321 23 321 23 325 27 c 0,52,53
 332 33 332 33 337 40 c 256,54,55
 342 47 342 47 348 58 c 0,56,57
 355 72 355 72 362 89 c 0,58,59
 369 104 369 104 376 127 c 0,60,61
 382 151 382 151 387 178 c 0,62,63
 392 206 392 206 393 233 c 0,64,65
 393 251 393 251 393 268 c 1,66,67
 366 243 366 243 336 227 c 0,68,69
 306 212 306 212 274 203 c 0,70,71
 240 193 240 193 214 195 c 0,72,73
 185 197 185 197 161 209 c 0,74,75
 139 220 139 220 119 238 c 0,76,77
 101 255 101 255 86 275 c 0,78,79
 71 296 71 296 60 320 c 0,80,81
 50 344 50 344 43 372 c 0,82,83
 36 401 36 401 37 431 c 128,-1,84
 38 461 38 461 46 489 c 0,85,86
 54 515 54 515 68 539 c 0,87,88
 82 564 82 564 106 587 c 0,89,90
 128 608 128 608 154 624 c 0,91,92
 178 639 178 639 202 650 c 0,93,94
 232 664 232 664 264 665 c 0,95,96
 290 667 290 667 314 664 c 0,97,98
 339 661 339 661 360 654 c 256,99,100
 381 647 381 647 407 630 c 0,101,102
 432 615 432 615 446 602 c 0,103,104
 454 595 454 595 459 589 c 1,105,106
 483 583 483 583 495 561 c 0,107,108
 502 547 502 547 504 532 c 0,109,110
 506 522 506 522 507 504 c 0,111,112
 508 484 508 484 505 467 c 0,113,114
 503 452 503 452 496 428 c 0,115,116
 489 403 489 403 476 378 c 1,0,1
388 527 m 0,117,118
 386 530 386 530 383 532 c 0,119,120
 375 540 375 540 357 551 c 0,121,122
 340 562 340 562 330 565 c 0,123,124
 319 569 319 569 304 571 c 0,125,126
 288 573 288 573 269 572 c 0,127,128
 255 571 255 571 241 564 c 0,129,130
 222 555 222 555 203 544 c 0,131,132
 186 533 186 533 171 519 c 0,133,134
 157 506 157 506 150 493 c 0,135,136
 142 478 142 478 136 461 c 0,137,138
 132 446 132 446 131 428.5 c 128,-1,139
 130 411 130 411 135 394 c 0,140,141
 139 374 139 374 146 359 c 0,142,143
 153 343 153 343 162 331 c 0,144,145
 171 318 171 318 183 307 c 0,146,147
 193 298 193 298 203 293 c 0,148,149
 210 290 210 290 220 289 c 0,150,151
 231 288 231 288 249 293 c 0,152,153
 271 299 271 299 292 310 c 0,154,155
 312 321 312 321 331 338 c 0,156,157
 350 356 350 356 366 378 c 0,158,159
 373 389 373 389 380 399 c 1,160,161
 379 415 379 415 378 428 c 0,162,163
 378 451 378 451 380 477 c 0,164,165
 383 504 383 504 388 524 c 0,166,167
 388 526 388 526 388 527 c 0,117,118
EndSplineSet
EndChar

StartChar: colon
Encoding: 58 58 29
Width: 189
Flags: W
LayerCount: 2
Fore
SplineSet
69.5 89.5 m 128,-1,1
 83 103 83 103 103 103 c 128,-1,2
 123 103 123 103 136 89 c 2,3,-1
 139 86 l 2,4,5
 153 72 153 72 153 52.5 c 128,-1,6
 153 33 153 33 139.5 19.5 c 128,-1,7
 126 6 126 6 106 6 c 128,-1,8
 86 6 86 6 73 20 c 2,9,-1
 70 23 l 2,10,11
 56 36 56 36 56 56 c 128,-1,0
 56 76 56 76 69.5 89.5 c 128,-1,1
50.5 482.5 m 128,-1,13
 64 496 64 496 83.5 496 c 128,-1,14
 103 496 103 496 117 482 c 2,15,-1
 120 479 l 2,16,17
 134 466 134 466 134 446 c 128,-1,18
 134 426 134 426 120.5 412.5 c 128,-1,19
 107 399 107 399 87 399 c 128,-1,20
 67 399 67 399 54 413 c 2,21,-1
 51 416 l 2,22,23
 37 429 37 429 37 449 c 128,-1,12
 37 469 37 469 50.5 482.5 c 128,-1,13
EndSplineSet
EndChar

StartChar: semicolon
Encoding: 59 59 30
Width: 241
Flags: W
LayerCount: 2
Fore
SplineSet
121.5 461 m 128,-1,1
 135 475 135 475 154.5 475 c 128,-1,2
 174 475 174 475 188 461 c 2,3,-1
 191 458 l 2,4,5
 205 444 205 444 205 424.5 c 128,-1,6
 205 405 205 405 191.5 391.5 c 128,-1,7
 178 378 178 378 158 378 c 128,-1,8
 138 378 138 378 125 391 c 2,9,-1
 122 394 l 2,10,11
 108 408 108 408 108 427.5 c 128,-1,0
 108 447 108 447 121.5 461 c 128,-1,1
170.5 130.5 m 128,-1,13
 188 122 188 122 194 103.5 c 128,-1,14
 200 85 200 85 191 67 c 2,15,-1
 183 52 l 2,16,17
 176 39 176 39 168 19 c 0,18,19
 161 2 161 2 158 -10 c 0,20,21
 152 -33 152 -33 145 -46 c 0,22,23
 141 -53 141 -53 132 -67 c 2,24,-1
 131 -69 l 1,25,26
 129 -89 129 -89 115 -101.5 c 128,-1,27
 101 -114 101 -114 82 -113 c 128,-1,28
 63 -112 63 -112 49.5 -97.5 c 128,-1,29
 36 -83 36 -83 37 -64 c 2,30,-1
 37 -58 l 2,31,32
 38 -39 38 -39 53 -16 c 0,33,34
 60 -6 60 -6 63 1 c 0,35,36
 65 4 65 4 66 12 c 0,37,38
 71 32 71 32 82 57 c 0,39,40
 91 78 91 78 99 95 c 2,41,-1
 107 110 l 2,42,43
 116 127 116 127 134.5 133 c 128,-1,12
 153 139 153 139 170.5 130.5 c 128,-1,13
EndSplineSet
EndChar

StartChar: less
Encoding: 60 60 31
Width: 526
Flags: W
LayerCount: 2
Fore
SplineSet
489 412 m 128,-1,1
 489 393 489 393 475.5 379 c 128,-1,2
 462 365 462 365 442 365 c 2,3,-1
 438 365 l 1,4,5
 426 359 426 359 411 354 c 0,6,7
 400 351 400 351 384 346 c 0,8,9
 369 340 369 340 352 334 c 256,10,11
 335 328 335 328 319 322 c 0,12,13
 304 315 304 315 287 308 c 0,14,15
 269 300 269 300 256 294 c 256,16,17
 243 288 243 288 228 280 c 128,-1,18
 213 272 213 272 202 265 c 0,19,20
 196 261 196 261 189 257 c 1,21,22
 204 253 204 253 220 249 c 0,23,24
 242 243 242 243 259 238 c 0,25,26
 274 232 274 232 293.5 225 c 128,-1,27
 313 218 313 218 329 211 c 0,28,29
 347 204 347 204 364 195 c 0,30,31
 380 187 380 187 395 178 c 256,32,33
 410 169 410 169 423 161 c 0,34,35
 433 154 433 154 445 148 c 2,36,-1
 459 140 l 2,37,38
 476 131 476 131 481.5 112 c 128,-1,39
 487 93 487 93 478 76 c 128,-1,40
 469 59 469 59 450 53.5 c 128,-1,41
 431 48 431 48 414 57 c 2,42,-1
 400 65 l 2,43,44
 384 74 384 74 371 83 c 0,45,46
 361 89 361 89 348 96 c 0,47,48
 335 104 335 104 320 112 c 0,49,50
 307 119 307 119 294 124 c 0,51,52
 278 130 278 130 260.5 137 c 128,-1,53
 243 144 243 144 228 149 c 0,54,55
 215 153 215 153 197 158 c 0,56,57
 176 163 176 163 158 168 c 0,58,59
 139 173 139 173 121 178 c 256,60,61
 103 183 103 183 89 188 c 0,62,63
 69 195 69 195 55 206 c 0,64,65
 46 212 46 212 40 229.5 c 128,-1,66
 34 247 34 247 39 267.5 c 128,-1,67
 44 288 44 288 66 296 c 0,68,69
 71 298 71 298 75 300 c 0,70,71
 81 303 81 303 89 307 c 0,72,73
 97 312 97 312 107 317.5 c 128,-1,74
 117 323 117 323 129 330 c 0,75,76
 141 338 141 338 153 345 c 0,77,78
 166 353 166 353 183.5 362.5 c 128,-1,79
 201 372 201 372 217 379 c 0,80,81
 231 386 231 386 249 394 c 256,82,83
 267 402 267 402 284 409 c 256,84,85
 301 416 301 416 319.5 422.5 c 128,-1,86
 338 429 338 429 355 435 c 0,87,88
 372 440 372 440 384 444 c 0,89,90
 392 447 392 447 397 449 c 0,91,92
 416 459 416 459 435 459 c 2,93,-1
 442 459 l 2,94,95
 462 459 462 459 475.5 445 c 128,-1,0
 489 431 489 431 489 412 c 128,-1,1
EndSplineSet
EndChar

StartChar: equal
Encoding: 61 61 32
Width: 525
Flags: W
LayerCount: 2
Fore
SplineSet
37 217 m 128,-1,1
 35 236 35 236 47.5 251 c 128,-1,2
 60 266 60 266 79 268 c 2,3,-1
 107 272 l 2,4,5
 137 275 137 275 160 275 c 0,6,7
 182 276 182 276 196 276 c 256,8,9
 210 276 210 276 227 276.5 c 128,-1,10
 244 277 244 277 264 278 c 0,11,12
 286 278 286 278 297 278 c 0,13,14
 309 279 309 279 330 279 c 0,15,16
 351 280 351 280 359 280 c 0,17,18
 369 281 369 281 385 281 c 0,19,20
 400 281 400 281 415 281 c 2,21,-1
 430 281 l 2,22,23
 450 282 450 282 463.5 268 c 128,-1,24
 477 254 477 254 477.5 234.5 c 128,-1,25
 478 215 478 215 464 201.5 c 128,-1,26
 450 188 450 188 431 187 c 2,27,-1
 416 187 l 2,28,29
 401 187 401 187 387 187 c 256,30,31
 373 187 373 187 364 186 c 0,32,33
 354 186 354 186 333 185 c 0,34,35
 312 185 312 185 299 184 c 0,36,37
 286 184 286 184 266 184 c 0,38,39
 246 183 246 183 230 183 c 0,40,41
 213 182 213 182 198 182 c 0,42,43
 184 182 184 182 162 181 c 0,44,45
 143 181 143 181 117 178 c 2,46,-1
 89 175 l 2,47,48
 70 173 70 173 54.5 185.5 c 128,-1,0
 39 198 39 198 37 217 c 128,-1,1
63.5 389.5 m 128,-1,50
 59 408 59 408 69.5 425 c 128,-1,51
 80 442 80 442 98 446 c 2,52,-1
 108 448 l 2,53,54
 125 452 125 452 144 450 c 0,55,56
 154 448 154 448 165 447 c 0,57,58
 174 445 174 445 188 444 c 0,59,60
 203 443 203 443 223 443 c 0,61,62
 239 442 239 442 245 443 c 0,63,64
 252 443 252 443 278 446 c 0,65,66
 303 450 303 450 312 451 c 0,67,68
 327 453 327 453 349 451 c 0,69,70
 366 450 366 450 382 447 c 0,71,72
 396 445 396 445 405 444 c 256,73,74
 414 443 414 443 429 441 c 2,75,-1
 445 440 l 2,76,77
 464 439 464 439 476.5 424 c 128,-1,78
 489 409 489 409 487.5 390 c 128,-1,79
 486 371 486 371 471.5 358 c 128,-1,80
 457 345 457 345 437 347 c 2,81,-1
 421 348 l 2,82,83
 404 349 404 349 392 351 c 0,84,85
 382 352 382 352 367 354 c 0,86,87
 354 356 354 356 340 358 c 0,88,89
 330 359 330 359 326 358 c 0,90,91
 315 356 315 356 289 353 c 256,92,93
 263 350 263 350 254 349 c 0,94,95
 242 348 242 348 219 349 c 0,96,97
 199 349 199 349 182 350 c 0,98,99
 163 352 163 352 150 354 c 0,100,101
 140 355 140 355 131 357 c 0,102,103
 130 357 130 357 129 357 c 2,104,-1
 120 355 l 2,105,106
 101 350 101 350 84.5 360.5 c 128,-1,49
 68 371 68 371 63.5 389.5 c 128,-1,50
EndSplineSet
EndChar

StartChar: greater
Encoding: 62 62 33
Width: 547
Flags: W
LayerCount: 2
Fore
SplineSet
40.5 432 m 128,-1,1
 48 450 48 450 66.5 457 c 128,-1,2
 85 464 85 464 102 457 c 2,3,-1
 116 451 l 2,4,5
 129 445 129 445 141 440 c 256,6,7
 153 435 153 435 166 430 c 0,8,9
 180 424 180 424 194.5 418 c 128,-1,10
 209 412 209 412 223.5 405.5 c 128,-1,11
 238 399 238 399 257 391 c 256,12,13
 276 383 276 383 292 376 c 256,14,15
 308 369 308 369 324 363 c 0,16,17
 342 356 342 356 356 351 c 256,18,19
 370 346 370 346 381.5 342 c 128,-1,20
 393 338 393 338 404 335 c 0,21,22
 416 332 416 332 426 329 c 0,23,24
 436 327 436 327 445 324.5 c 128,-1,25
 454 322 454 322 461 320 c 256,26,27
 468 318 468 318 477 314 c 0,28,29
 494 308 494 308 502.5 292 c 128,-1,30
 511 276 511 276 510.5 260.5 c 128,-1,31
 510 245 510 245 505 235 c 0,32,33
 493 215 493 215 472 203 c 0,34,35
 462 197 462 197 447 189 c 256,36,37
 432 181 432 181 419 174 c 128,-1,38
 406 167 406 167 389 159 c 0,39,40
 373 151 373 151 354 143 c 0,41,42
 337 135 337 135 321 128 c 256,43,44
 305 121 305 121 288 115 c 0,45,46
 271 108 271 108 256.5 102.5 c 128,-1,47
 242 97 242 97 228 92 c 256,48,49
 214 87 214 87 202 84 c 0,50,51
 192 81 192 81 185 78 c 0,52,53
 177 75 177 75 170 72 c 0,54,55
 164 70 164 70 160 67 c 2,56,-1
 154 63 l 2,57,58
 137 53 137 53 118 58 c 128,-1,59
 99 63 99 63 89 79.5 c 128,-1,60
 79 96 79 96 84 115 c 128,-1,61
 89 134 89 134 105 144 c 2,62,-1
 112 148 l 2,63,64
 121 154 121 154 133 158 c 0,65,66
 142 163 142 163 153 166 c 0,67,68
 163 170 163 170 174 174 c 0,69,70
 184 177 184 177 197 181 c 0,71,72
 210 186 210 186 224 191 c 256,73,74
 238 196 238 196 254 202 c 0,75,76
 269 208 269 208 284 215 c 0,77,78
 299 221 299 221 316 229 c 0,79,80
 333 236 333 236 348 243 c 0,81,82
 354 247 354 247 361 250 c 1,83,84
 357 251 357 251 353 252 c 0,85,86
 339 257 339 257 323 263 c 0,87,88
 308 268 308 268 291 275 c 0,89,90
 273 282 273 282 255 289 c 0,91,92
 239 296 239 296 219 305 c 0,93,94
 201 313 201 313 186.5 319.5 c 128,-1,95
 172 326 172 326 158 332 c 0,96,97
 144 337 144 337 131 343 c 0,98,99
 117 348 117 348 105 353 c 256,100,101
 93 358 93 358 79 364 c 2,102,-1
 65 370 l 2,103,104
 48 378 48 378 40.5 396 c 128,-1,0
 33 414 33 414 40.5 432 c 128,-1,1
EndSplineSet
EndChar

StartChar: question
Encoding: 63 63 34
Width: 518
Flags: W
LayerCount: 2
Fore
SplineSet
90 463.5 m 128,-1,1
 71 461 71 461 56 473.5 c 128,-1,2
 41 486 41 486 38 505 c 2,3,-1
 37 514 l 2,4,5
 34 541 34 541 55 568 c 0,6,7
 67 584 67 584 78 594 c 0,8,9
 88 603 88 603 108 617 c 0,10,11
 127 630 127 630 147 642 c 0,12,13
 171 656 171 656 188 661 c 0,14,15
 201 665 201 665 223 670 c 0,16,17
 248 675 248 675 271 676 c 0,18,19
 293 676 293 676 310 674 c 0,20,21
 326 672 326 672 337 670 c 0,22,23
 349 668 349 668 367 661 c 0,24,25
 396 650 396 650 410 631 c 0,26,27
 414 625 414 625 424 611 c 0,28,29
 432 601 432 601 436 596 c 0,30,31
 445 586 445 586 453 575 c 0,32,33
 461 562 461 562 467 548 c 0,34,35
 472 535 472 535 476 521 c 0,36,37
 481 504 481 504 481 491 c 0,38,39
 482 479 482 479 481 466 c 0,40,41
 480 451 480 451 476 437 c 0,42,43
 472 421 472 421 460 403 c 0,44,45
 450 386 450 386 436 373 c 0,46,47
 424 361 424 361 407 348 c 0,48,49
 388 333 388 333 363 320 c 0,50,51
 343 309 343 309 324 299 c 0,52,53
 304 288 304 288 281 278 c 0,54,55
 263 271 263 271 250 264 c 0,56,57
 235 255 235 255 225 249 c 0,58,59
 217 245 217 245 211 240 c 0,60,61
 207 236 207 236 204.5 233 c 128,-1,62
 202 230 202 230 201 226 c 0,63,64
 202 225 202 225 203 224 c 0,65,66
 205 223 205 223 210 221 c 0,67,68
 223 216 223 216 229 215 c 2,69,-1
 238 214 l 2,70,71
 257 210 257 210 268 194 c 128,-1,72
 279 178 279 178 275.5 159 c 128,-1,73
 272 140 272 140 256 129 c 128,-1,74
 240 118 240 118 221 121 c 2,75,-1
 212 123 l 2,76,77
 200 125 200 125 180 132 c 0,78,79
 153 141 153 141 136 158 c 0,80,81
 122 172 122 172 115 187 c 0,82,83
 106 205 106 205 106 225 c 0,84,85
 106 246 106 246 114 264 c 0,86,87
 120 276 120 276 128 287 c 0,88,89
 137 300 137 300 151 312 c 0,90,91
 163 322 163 322 177 330 c 0,92,93
 188 337 188 337 204 346 c 0,94,95
 222 356 222 356 245 365 c 0,96,97
 263 373 263 373 279 381 c 0,98,99
 298 392 298 392 319 403 c 0,100,101
 337 412 337 412 348 421 c 0,102,103
 362 432 362 432 371 440 c 0,104,105
 377 446 377 446 381 453 c 0,106,107
 384 459 384 459 385 461 c 0,108,109
 387 467 387 467 387 472 c 0,110,111
 388 480 388 480 387 486 c 0,112,113
 387 490 387 490 385 496 c 0,114,115
 383 505 383 505 380 512 c 0,116,117
 378 518 378 518 375 522 c 0,118,119
 371 528 371 528 367 532 c 0,120,121
 359 541 359 541 348 556 c 0,122,123
 342 564 342 564 337 572 c 0,124,125
 335 572 335 572 334 573 c 0,126,127
 322 577 322 577 317 578 c 0,128,129
 311 580 311 580 299 581 c 0,130,131
 288 582 288 582 273 582 c 0,132,133
 259 582 259 582 243 578 c 0,134,135
 224 574 224 574 215 571 c 0,136,137
 209 570 209 570 196 561 c 0,138,139
 178 551 178 551 162 540 c 256,140,141
 146 529 146 529 140 523 c 0,142,143
 137 520 137 520 132 514 c 1,144,145
 133 496 133 496 121 481 c 128,-1,0
 109 466 109 466 90 463.5 c 128,-1,1
168.5 108.5 m 128,-1,147
 182 122 182 122 201.5 122 c 128,-1,148
 221 122 221 122 235 108 c 2,149,-1
 238 105 l 2,150,151
 251 92 251 92 251 72 c 128,-1,152
 251 52 251 52 237.5 38.5 c 128,-1,153
 224 25 224 25 204.5 25 c 128,-1,154
 185 25 185 25 171 39 c 2,155,-1
 168 42 l 2,156,157
 155 55 155 55 155 75 c 128,-1,146
 155 95 155 95 168.5 108.5 c 128,-1,147
EndSplineSet
EndChar

StartChar: at
Encoding: 64 64 35
Width: 799
Flags: W
LayerCount: 2
Fore
SplineSet
431 160 m 0,0,1
 431 162 431 162 431 163 c 0,2,3
 432 171 432 171 432.5 190.5 c 128,-1,4
 433 210 433 210 432 223 c 0,5,6
 432 237 432 237 431 246 c 2,7,-1
 430 272 l 2,8,9
 429 285 429 285 427 291 c 0,10,11
 426 297 426 297 423 303 c 0,12,13
 418 313 418 313 411 328 c 0,14,15
 403 347 403 347 398 365 c 0,16,17
 397 368 397 368 396 372 c 0,18,19
 394 372 394 372 394 373 c 1,20,21
 390 373 390 373 385.5 372.5 c 128,-1,22
 381 372 381 372 374 370 c 0,23,24
 364 367 364 367 356 364 c 0,25,26
 347 360 347 360 336 354 c 0,27,28
 328 350 328 350 320 343 c 0,29,30
 309 334 309 334 298 322 c 256,31,32
 287 310 287 310 278 299 c 0,33,34
 270 290 270 290 264 280 c 0,35,36
 258 269 258 269 254 260 c 0,37,38
 251 249 251 249 248 238 c 0,39,40
 246 227 246 227 245 218 c 0,41,42
 244 207 244 207 244 193 c 0,43,44
 243 180 243 180 245 169 c 0,45,46
 246 158 246 158 248 150 c 256,47,48
 250 142 250 142 253 134 c 0,49,50
 256 128 256 128 258 125 c 0,51,52
 264 117 264 117 271 108 c 0,53,54
 273 104 273 104 278 101 c 0,55,56
 285 96 285 96 291 92 c 256,57,58
 297 88 297 88 303.5 85.5 c 128,-1,59
 310 83 310 83 314 82 c 0,60,61
 319 81 319 81 324 80 c 0,62,63
 332 80 332 80 339 80 c 0,64,65
 341 80 341 80 344 80 c 0,66,67
 351 82 351 82 357 84 c 0,68,69
 361 86 361 86 365 88 c 0,70,71
 372 93 372 93 379 98 c 0,72,73
 382 101 382 101 388 108 c 0,74,75
 397 119 397 119 402 126 c 128,-1,76
 407 133 407 133 410 138 c 0,77,78
 417 151 417 151 431 160 c 0,0,1
633 -3 m 1,79,80
 647 -10 647 -10 654 -23 c 0,81,82
 663 -40 663 -40 657.5 -58.5 c 128,-1,83
 652 -77 652 -77 635 -87 c 2,84,-1
 621 -94 l 2,85,86
 610 -100 610 -100 591 -115 c 0,87,88
 570 -132 570 -132 549 -149 c 0,89,90
 526 -167 526 -167 507 -179 c 0,91,92
 486 -192 486 -192 466 -200 c 0,93,94
 445 -209 445 -209 406 -216 c 0,95,96
 364 -223 364 -223 323 -217 c 0,97,98
 286 -211 286 -211 267 -205 c 0,99,100
 250 -200 250 -200 233 -193 c 0,101,102
 215 -186 215 -186 199 -177 c 0,103,104
 183 -167 183 -167 166.5 -153.5 c 128,-1,105
 150 -140 150 -140 137 -126 c 0,106,107
 123 -110 123 -110 112 -91 c 0,108,109
 102 -74 102 -74 94 -56 c 0,110,111
 85 -35 85 -35 74 8 c 0,112,113
 64 47 64 47 59 68 c 256,114,115
 54 89 54 89 51 113 c 0,116,117
 47 136 47 136 44 154 c 0,118,119
 41 175 41 175 39 201 c 128,-1,120
 37 227 37 227 37 246 c 0,121,122
 37 266 37 266 39 290 c 128,-1,123
 41 314 41 314 44 334 c 0,124,125
 48 356 48 356 55 377 c 0,126,127
 61 397 61 397 71 421 c 0,128,129
 81 442 81 442 90 461 c 0,130,131
 100 482 100 482 113 501 c 0,132,133
 125 519 125 519 152 550 c 0,134,135
 179 582 179 582 194 594 c 0,136,137
 208 606 208 606 227 619 c 0,138,139
 248 633 248 633 288 649 c 0,140,141
 330 666 330 666 355 668 c 0,142,143
 376 669 376 669 409.5 666 c 128,-1,144
 443 663 443 663 461 658 c 0,145,146
 478 653 478 653 495 646 c 0,147,148
 513 639 513 639 527 630 c 0,149,150
 540 623 540 623 553 614 c 0,151,152
 568 605 568 605 583 593 c 0,153,154
 599 580 599 580 610 566 c 0,155,156
 618 556 618 556 627 545 c 0,157,158
 636 533 636 533 647 520 c 0,159,160
 658 506 658 506 667 492 c 0,161,162
 676 479 676 479 685 463 c 0,163,164
 694 448 694 448 703 433 c 0,165,166
 712 416 712 416 719 401 c 256,167,168
 726 386 726 386 733 370 c 0,169,170
 739 353 739 353 743 338 c 0,171,172
 747 324 747 324 751 310 c 0,173,174
 756 293 756 293 758 273 c 0,175,176
 760 255 760 255 761 236 c 0,177,178
 762 218 762 218 762 200 c 0,179,180
 762 181 762 181 761 166 c 256,181,182
 760 151 760 151 757 136 c 0,183,184
 753 119 753 119 747 105 c 0,185,186
 741 88 741 88 732 74 c 0,187,188
 724 62 724 62 714 50 c 0,189,190
 702 36 702 36 691 27 c 0,191,192
 678 16 678 16 659 8 c 0,193,194
 646 1 646 1 633 -3 c 1,79,80
521 125 m 0,195,196
 523 122 523 122 524 118 c 0,197,198
 527 113 527 113 532 106 c 0,199,200
 537 100 537 100 544 95 c 0,201,202
 550 90 550 90 553 89 c 0,203,204
 557 87 557 87 560 86 c 128,-1,205
 563 85 563 85 568 84 c 256,206,207
 573 83 573 83 579 83 c 0,208,209
 583 83 583 83 591 83 c 0,210,211
 597 84 597 84 602 86 c 0,212,213
 609 88 609 88 619 93 c 0,214,215
 627 96 627 96 631 100 c 0,216,217
 636 104 636 104 642 110 c 0,218,219
 648 118 648 118 653 126 c 0,220,221
 657 132 657 132 660 138 c 0,222,223
 663 146 663 146 664 154 c 0,224,225
 666 164 666 164 667 174.5 c 128,-1,226
 668 185 668 185 668 199 c 0,227,228
 668 215 668 215 667 231 c 256,229,230
 666 247 666 247 664 263 c 0,231,232
 663 276 663 276 660 286 c 0,233,234
 657 299 657 299 653 312 c 0,235,236
 650 323 650 323 645 335 c 0,237,238
 640 349 640 349 634 361 c 256,239,240
 628 373 628 373 620 387 c 0,241,242
 613 401 613 401 604 415 c 0,243,244
 596 429 596 429 589 440 c 256,245,246
 582 451 582 451 573 462 c 0,247,248
 562 475 562 475 553.5 486 c 128,-1,249
 545 497 545 497 537 507 c 0,250,251
 532 513 532 513 523 520 c 0,252,253
 513 529 513 529 503 535 c 0,254,255
 492 542 492 542 480 549 c 0,256,257
 471 554 471 554 459 559 c 256,258,259
 447 564 447 564 436 567 c 0,260,261
 426 570 426 570 400.5 572.5 c 128,-1,262
 375 575 375 575 362 574 c 0,263,264
 352 573 352 573 323 562 c 0,265,266
 292 549 292 549 279 541 c 0,267,268
 265 531 265 531 255 523 c 256,269,270
 245 515 245 515 223 489 c 0,271,272
 200 462 200 462 190 448 c 0,273,274
 181 435 181 435 174 420 c 0,275,276
 166 403 166 403 157 383 c 0,277,278
 149 365 149 365 144 349 c 0,279,280
 140 334 140 334 137 319 c 0,281,282
 134 302 134 302 132.5 282 c 128,-1,283
 131 262 131 262 131 247 c 0,284,285
 131 231 131 231 133 208 c 0,286,287
 135 186 135 186 137 168 c 0,288,289
 140 150 140 150 144 127 c 0,290,291
 147 107 147 107 151 89 c 0,292,293
 156 69 156 69 165 31 c 0,294,295
 174 -4 174 -4 179 -16 c 0,296,297
 186 -30 186 -30 194 -44 c 0,298,299
 200 -55 200 -55 207 -63 c 0,300,301
 215 -72 215 -72 226.5 -81 c 128,-1,302
 238 -90 238 -90 247 -96 c 256,303,304
 256 -102 256 -102 268 -106 c 0,305,306
 281 -111 281 -111 294 -115 c 256,307,308
 307 -119 307 -119 337 -124 c 0,309,310
 363 -128 363 -128 390 -123 c 0,311,312
 419 -118 419 -118 430 -113 c 0,313,314
 442 -108 442 -108 456 -100 c 0,315,316
 472 -90 472 -90 491 -75 c 0,317,318
 511 -58 511 -58 533 -41 c 0,319,320
 558 -22 558 -22 576 -12 c 0,321,322
 577 -12 577 -12 577 -11 c 1,323,324
 576 -11 576 -11 575 -11 c 0,325,326
 564 -11 564 -11 553 -9 c 0,327,328
 541 -7 541 -7 532 -4 c 0,329,330
 522 -1 522 -1 513 4 c 0,331,332
 501 9 501 9 486 21 c 0,333,334
 472 32 472 32 459 47 c 1,335,336
 446 31 446 31 435 23 c 0,337,338
 427 17 427 17 417 10 c 0,339,340
 404 1 404 1 390 -4 c 0,341,342
 379 -8 379 -8 368 -11 c 0,343,344
 354 -14 354 -14 339 -14 c 0,345,346
 328 -14 328 -14 317 -14 c 0,347,348
 303 -12 303 -12 292 -10 c 0,349,350
 280 -7 280 -7 267 -1 c 128,-1,351
 254 5 254 5 242 12 c 0,352,353
 231 18 231 18 220 27 c 0,354,355
 205 38 205 38 195 52 c 0,356,357
 189 61 189 61 183 68 c 0,358,359
 174 81 174 81 167 98 c 0,360,361
 160 112 160 112 157 127 c 0,362,363
 153 141 153 141 151 158 c 256,364,365
 149 175 149 175 150 194 c 0,366,367
 150 212 150 212 151 227 c 0,368,369
 153 242 153 242 156 259 c 0,370,371
 160 275 160 275 166 292 c 256,372,373
 172 309 172 309 183 327 c 0,374,375
 193 344 193 344 205 359 c 0,376,377
 216 373 216 373 230 387 c 0,378,379
 244 402 244 402 259 414 c 0,380,381
 275 428 275 428 293 437 c 0,382,383
 307 445 307 445 319 450 c 0,384,385
 332 455 332 455 346 460 c 0,386,387
 363 465 363 465 378 466 c 0,388,389
 392 467 392 467 405 466 c 0,390,391
 422 464 422 464 442 454 c 0,392,393
 466 441 466 441 476 422 c 0,394,395
 483 410 483 410 488 390 c 0,396,397
 491 379 491 379 497 368 c 0,398,399
 503 353 503 353 508 344 c 0,400,401
 515 329 515 329 519 314 c 0,402,403
 522 298 522 298 524 277 c 2,404,-1
 525 251 l 2,405,406
 526 242 526 242 526 228 c 0,407,408
 527 211 527 211 526.5 188 c 128,-1,409
 526 165 526 165 525 153 c 0,410,411
 524 142 524 142 522 130 c 0,412,413
 521 127 521 127 521 125 c 0,195,196
EndSplineSet
EndChar

StartChar: A
Encoding: 65 65 36
Width: 688
Flags: W
LayerCount: 2
Fore
SplineSet
74 -40.5 m 128,-1,1
 55 -36 55 -36 44.5 -19.5 c 128,-1,2
 34 -3 34 -3 38 16 c 2,3,-1
 40 23 l 2,4,5
 43 37 43 37 51 52 c 0,6,7
 55 59 55 59 57 64 c 0,8,9
 60 74 60 74 67 93 c 0,10,11
 75 115 75 115 90 144 c 0,12,13
 102 167 102 167 108 186 c 0,14,15
 117 212 117 212 128 240 c 0,16,17
 140 269 140 269 157 300 c 0,18,19
 170 324 170 324 176 347 c 0,20,21
 184 378 184 378 202 416 c 0,22,23
 218 451 218 451 233 480 c 0,24,25
 246 505 246 505 254 527 c 0,26,27
 263 553 263 553 276 579 c 0,28,29
 287 602 287 602 294 621 c 0,30,31
 303 651 303 651 315 667 c 0,32,33
 322 675 322 675 330 689 c 0,34,35
 342 708 342 708 352 719 c 0,36,37
 371 740 371 740 395 744 c 0,38,39
 412 747 412 747 430 737.5 c 128,-1,40
 448 728 448 728 455 713 c 0,41,42
 460 703 460 703 463 694 c 0,43,44
 467 682 467 682 470 657 c 0,45,46
 472 636 472 636 472 610 c 0,47,48
 472 586 472 586 472 563 c 128,-1,49
 472 540 472 540 472 515 c 2,50,-1
 472 462 l 2,51,52
 472 434 472 434 472.5 407 c 128,-1,53
 473 380 473 380 474 354 c 256,54,55
 475 328 475 328 477 303 c 0,56,57
 479 282 479 282 482 262 c 1,58,59
 491 263 491 263 500 264 c 0,60,61
 534 268 534 268 571 267 c 2,62,-1
 605 267 l 2,63,64
 624 267 624 267 637.5 252.5 c 128,-1,65
 651 238 651 238 651 219 c 128,-1,66
 651 200 651 200 637 186.5 c 128,-1,67
 623 173 623 173 603 173 c 2,68,-1
 569 173 l 2,69,70
 538 174 538 174 509 171 c 0,71,72
 508 171 508 171 507 171 c 1,73,74
 508 165 508 165 509 160 c 0,75,76
 514 135 514 135 518 111 c 0,77,78
 522 90 522 90 527 68 c 256,79,80
 532 46 532 46 536 32 c 0,81,82
 536 31 536 31 540 18 c 128,-1,83
 544 5 544 5 546 -2 c 2,84,-1
 551 -21 l 2,85,86
 557 -39 557 -39 547.5 -56.5 c 128,-1,87
 538 -74 538 -74 519.5 -79.5 c 128,-1,88
 501 -85 501 -85 484 -75.5 c 128,-1,89
 467 -66 467 -66 461 -47 c 2,90,-1
 446 6 l 2,91,92
 441 23 441 23 435 47 c 0,93,94
 430 72 430 72 426 95 c 0,95,96
 422 117 422 117 417 140 c 0,97,98
 415 149 415 149 413 158 c 1,99,100
 396 156 396 156 378 154 c 0,101,102
 341 152 341 152 320 152 c 0,103,104
 300 152 300 152 283.5 152 c 128,-1,105
 267 152 267 152 248 152 c 0,106,107
 229 153 229 153 217 154 c 2,108,-1
 206 155 l 2,109,110
 202 156 202 156 198 157 c 1,111,112
 189 130 189 130 173 100 c 0,113,114
 161 77 161 77 155 62 c 0,115,116
 149 42 149 42 146 34 c 0,117,118
 141 20 141 20 134 7 c 0,119,120
 132 4 132 4 131 2 c 2,121,-1
 130 -5 l 2,122,123
 126 -23 126 -23 109.5 -34 c 128,-1,0
 93 -45 93 -45 74 -40.5 c 128,-1,1
235 247 m 1,124,125
 242 246 242 246 250 246 c 0,126,127
 268 246 268 246 284 246 c 256,128,129
 300 246 300 246 320 246 c 0,130,131
 338 246 338 246 371 248 c 0,132,133
 380 249 380 249 389 250 c 1,134,135
 385 272 385 272 383 295 c 0,136,137
 381 323 381 323 380 351 c 0,138,139
 379 378 379 378 378.5 405.5 c 128,-1,140
 378 433 378 433 378 462 c 2,141,-1
 378 515 l 2,142,143
 378 540 378 540 378 562 c 0,144,145
 378 570 378 570 378 579 c 1,146,147
 371 560 371 560 361 539 c 0,148,149
 350 516 350 516 342 494 c 0,150,151
 333 468 333 468 317 437 c 0,152,153
 303 410 303 410 287 376 c 0,154,155
 273 345 273 345 267 322 c 0,156,157
 258 289 258 289 240 256 c 0,158,159
 237 251 237 251 235 247 c 1,124,125
EndSplineSet
EndChar

StartChar: B
Encoding: 66 66 37
Width: 669
Flags: W
LayerCount: 2
Fore
SplineSet
53.5 544 m 128,-1,1
 43 560 43 560 46.5 579 c 128,-1,2
 50 598 50 598 66 609 c 2,3,-1
 74 615 l 2,4,5
 83 621 83 621 106 637 c 0,6,7
 138 660 138 660 160 662 c 0,8,9
 167 664 167 664 184 671 c 0,10,11
 192 674 192 674 199 677 c 0,12,13
 214 695 214 695 236 695 c 0,14,15
 244 695 244 695 252 693 c 0,16,17
 277 699 277 699 300 703 c 0,18,19
 326 708 326 708 355 711 c 256,20,21
 384 714 384 714 413 715 c 0,22,23
 448 716 448 716 497 702 c 0,24,25
 547 687 547 687 570 668 c 0,26,27
 588 653 588 653 602 636 c 0,28,29
 617 617 617 617 625 597 c 0,30,31
 636 572 636 572 632 544 c 0,32,33
 629 523 629 523 620 502 c 0,34,35
 611 482 611 482 599 464 c 0,36,37
 586 446 586 446 567.5 425.5 c 128,-1,38
 549 405 549 405 527 387 c 0,39,40
 513 376 513 376 497 365 c 1,41,42
 531 352 531 352 549 338 c 0,43,44
 565 325 565 325 577 312 c 0,45,46
 593 294 593 294 599.5 271.5 c 128,-1,47
 606 249 606 249 602 223 c 0,48,49
 598 199 598 199 582 173 c 0,50,51
 567 149 567 149 522 112 c 0,52,53
 481 77 481 77 458 62 c 0,54,55
 435 48 435 48 405 34 c 0,56,57
 373 20 373 20 308 2 c 0,58,59
 246 -16 246 -16 216.5 -22 c 128,-1,60
 187 -28 187 -28 162 -32 c 0,61,62
 136 -35 136 -35 110 -36 c 2,63,-1
 86 -37 l 2,64,65
 66 -38 66 -38 52 -24.5 c 128,-1,66
 38 -11 38 -11 37 8 c 128,-1,67
 36 27 36 27 49.5 41.5 c 128,-1,68
 63 56 63 56 82 57 c 2,69,-1
 106 58 l 2,70,71
 128 58 128 58 149 61 c 0,72,73
 157 63 157 63 166 64 c 1,74,-1
 166 69 l 2,75,76
 168 80 168 80 171 94 c 0,77,78
 173 104 173 104 175 117 c 0,79,80
 177 133 177 133 179 152 c 0,81,82
 182 168 182 168 184 194 c 0,83,84
 186 221 186 221 188 245 c 0,85,86
 191 267 191 267 192.5 294.5 c 128,-1,87
 194 322 194 322 196 351 c 0,88,89
 197 378 197 378 198 404 c 256,90,91
 199 430 199 430 199 454 c 0,92,93
 198 478 198 478 196.5 503.5 c 128,-1,94
 195 529 195 529 193 549 c 0,95,96
 192 560 192 560 192 573 c 1,97,98
 183 570 183 570 174 569 c 0,99,100
 168 566 168 566 159 560 c 0,101,102
 137 544 137 544 128 538 c 2,103,-1
 119 532 l 2,104,105
 103 521 103 521 83.5 524.5 c 128,-1,0
 64 528 64 528 53.5 544 c 128,-1,1
265 87 m 1,106,107
 274 89 274 89 283 92 c 0,108,109
 341 108 341 108 365 120 c 0,110,111
 390 131 390 131 408 142 c 0,112,113
 425 153 425 153 462 184 c 0,114,115
 495 212 495 212 502 223 c 0,116,117
 508 233 508 233 509 239 c 0,118,119
 510 243 510 243 509.5 245 c 128,-1,120
 509 247 509 247 507 249 c 0,121,122
 500 256 500 256 490 264 c 0,123,124
 483 270 483 270 461 279 c 0,125,126
 438 287 438 287 409 291 c 0,127,128
 378 294 378 294 361 293 c 0,129,130
 353 292 353 292 346 291 c 0,131,132
 333 287 333 287 325 284 c 0,133,134
 311 280 311 280 291 276 c 0,135,136
 289 272 289 272 285 269 c 0,137,138
 283 251 283 251 282 236 c 0,139,140
 280 212 280 212 278 186 c 0,141,142
 275 158 275 158 272 138 c 0,143,144
 270 120 270 120 268 105 c 0,145,146
 267 96 267 96 265 87 c 1,106,107
291 377 m 1,147,148
 300 379 300 379 308 381 c 0,149,150
 314 382 314 382 322 383 c 0,151,152
 341 390 341 390 361 399 c 0,153,154
 372 403 372 403 383 409 c 0,155,156
 390 412 390 412 398 416 c 0,157,158
 416 426 416 426 434 437 c 0,159,160
 451 447 451 447 467.5 460.5 c 128,-1,161
 484 474 484 474 498 489 c 256,162,163
 512 504 512 504 521 516 c 0,164,165
 528 528 528 528 534 539 c 0,166,167
 538 549 538 549 539 557 c 0,168,169
 539 559 539 559 538 561 c 0,170,171
 535 569 535 569 528 577 c 0,172,173
 521 587 521 587 510 596 c 0,174,175
 501 602 501 602 470 612 c 0,176,177
 436 622 436 622 416 621 c 0,178,179
 391 621 391 621 366 618 c 0,180,181
 340 615 340 615 317 610 c 0,182,183
 301 608 301 608 284 604 c 1,184,185
 285 577 285 577 287 558 c 0,186,187
 289 536 289 536 290 509 c 0,188,189
 292 482 292 482 293 456 c 0,190,191
 293 430 293 430 292 401 c 0,192,193
 292 389 292 389 291 377 c 1,147,148
EndSplineSet
EndChar

StartChar: C
Encoding: 67 67 38
Width: 633
Flags: W
LayerCount: 2
Fore
SplineSet
536 427 m 128,-1,1
 517 427 517 427 503 441 c 128,-1,2
 489 455 489 455 489 474 c 2,3,-1
 489 492 l 1,4,5
 485 499 485 499 483 502 c 0,6,7
 478 508 478 508 470 516 c 0,8,9
 466 521 466 521 459 525 c 0,10,11
 449 530 449 530 438 535 c 0,12,13
 427 539 427 539 414 542 c 0,14,15
 403 544 403 544 387 543 c 0,16,17
 370 542 370 542 351 539 c 0,18,19
 334 536 334 536 313 527 c 0,20,21
 292 517 292 517 272 503 c 256,22,23
 252 489 252 489 229 469 c 0,24,25
 208 450 208 450 194 429 c 0,26,27
 177 405 177 405 164 383 c 0,28,29
 153 365 153 365 148 343 c 0,30,31
 141 318 141 318 137 291 c 128,-1,32
 133 264 133 264 131 236 c 0,33,34
 130 209 130 209 133 183 c 0,35,36
 137 155 137 155 141 131 c 0,37,38
 145 112 145 112 153 98 c 256,39,40
 161 84 161 84 169 75 c 0,41,42
 179 65 179 65 192 57 c 0,43,44
 202 51 202 51 217 47 c 0,45,46
 233 43 233 43 258 44 c 0,47,48
 284 45 284 45 314 53 c 0,49,50
 346 61 346 61 382 77 c 0,51,52
 420 95 420 95 457 113 c 0,53,54
 494 132 494 132 511 141 c 2,55,-1
 528 150 l 2,56,57
 545 159 545 159 564 153 c 128,-1,58
 583 147 583 147 591.5 130 c 128,-1,59
 600 113 600 113 594.5 94 c 128,-1,60
 589 75 589 75 572 67 c 2,61,-1
 554 58 l 2,62,63
 538 49 538 49 499 29 c 0,64,65
 460 10 460 10 420 -8 c 0,66,67
 377 -28 377 -28 338 -38 c 0,68,69
 297 -49 297 -49 261 -50 c 0,70,71
 223 -51 223 -51 195 -44 c 0,72,73
 164 -37 164 -37 141 -22 c 0,74,75
 120 -8 120 -8 103 9 c 0,76,77
 84 27 84 27 70 54 c 0,78,79
 56 80 56 80 50 112 c 0,80,81
 44 140 44 140 40 172 c 0,82,83
 36 206 36 206 37 240 c 0,84,85
 39 273 39 273 44 305 c 128,-1,86
 49 337 49 337 57 367 c 0,87,88
 66 401 66 401 83 430 c 0,89,90
 98 456 98 456 117 483 c 0,91,92
 138 513 138 513 166 539 c 0,93,94
 193 563 193 563 219 581 c 256,95,96
 245 599 245 599 275 612 c 0,97,98
 306 626 306 626 334 631 c 0,99,100
 359 636 359 636 383 637 c 0,101,102
 410 638 410 638 432 634 c 0,103,104
 453 630 453 630 472 623 c 0,105,106
 490 615 490 615 506 606 c 0,107,108
 525 595 525 595 539 580 c 0,109,110
 549 569 549 569 556 561 c 0,111,112
 564 551 564 551 572 536 c 0,113,114
 583 515 583 515 583 496 c 2,115,-1
 583 474 l 2,116,117
 583 455 583 455 569 441 c 128,-1,0
 555 427 555 427 536 427 c 128,-1,1
EndSplineSet
EndChar

StartChar: D
Encoding: 68 68 39
Width: 746
Flags: W
LayerCount: 2
Fore
SplineSet
57 474 m 128,-1,1
 41 485 41 485 37.5 504.5 c 128,-1,2
 34 524 34 524 45 540 c 2,3,-1
 50 547 l 2,4,5
 58 558 58 558 78 578 c 0,6,7
 100 599 100 599 118 609 c 0,8,9
 130 616 130 616 165 638 c 0,10,11
 206 663 206 663 234 672 c 0,12,13
 256 679 256 679 281 687 c 0,14,15
 311 698 311 698 343 702 c 0,16,17
 373 705 373 705 403 704 c 0,18,19
 436 703 436 703 473 693 c 0,20,21
 505 684 505 684 535 674 c 0,22,23
 569 662 569 662 598 642 c 0,24,25
 622 625 622 625 643 608 c 0,26,27
 667 587 667 587 682 562 c 0,28,29
 698 537 698 537 704 508 c 0,30,31
 710 481 710 481 710 453 c 0,32,33
 709 426 709 426 703 395 c 0,34,35
 696 365 696 365 685 338 c 0,36,37
 675 312 675 312 661 284 c 0,38,39
 646 253 646 253 626 227 c 0,40,41
 607 202 607 202 584 178.5 c 128,-1,42
 561 155 561 155 536 134 c 0,43,44
 510 113 510 113 480 96 c 0,45,46
 453 80 453 80 428 68 c 0,47,48
 402 54 402 54 373 45 c 0,49,50
 345 37 345 37 321 33 c 0,51,52
 297 30 297 30 277 29 c 128,-1,53
 257 28 257 28 238 29 c 0,54,55
 221 30 221 30 208 31 c 2,56,-1
 195 32 l 2,57,58
 176 33 176 33 163 48 c 128,-1,59
 150 63 150 63 151 82 c 128,-1,60
 152 101 152 101 167 114 c 128,-1,61
 182 127 182 127 201 126 c 2,62,-1
 215 125 l 2,63,64
 223 124 223 124 230 124 c 1,65,66
 228 133 228 133 226 141 c 0,67,68
 222 161 222 161 220 189 c 0,69,70
 218 213 218 213 216 239 c 256,71,72
 214 265 214 265 211 293 c 0,73,74
 207 321 207 321 202 353 c 0,75,76
 198 385 198 385 194 413 c 256,77,78
 190 441 190 441 187 461 c 0,79,80
 184 484 184 484 182 523 c 0,81,82
 182 531 182 531 181 538 c 1,83,84
 171 531 171 531 164 528 c 0,85,86
 157 523 157 523 144 511 c 128,-1,87
 131 499 131 499 128 494 c 2,88,-1
 123 486 l 2,89,90
 112 471 112 471 92.5 467 c 128,-1,0
 73 463 73 463 57 474 c 128,-1,1
325 130 m 1,91,92
 335 132 335 132 346 135 c 0,93,94
 366 142 366 142 386 151 c 0,95,96
 408 162 408 162 433 177 c 0,97,98
 456 191 456 191 476 207 c 0,99,100
 498 225 498 225 517 244.5 c 128,-1,101
 536 264 536 264 551 284 c 0,102,103
 565 303 565 303 577 326 c 0,104,105
 589 350 589 350 598 372 c 0,106,107
 606 392 606 392 611 415 c 0,108,109
 616 437 616 437 616 455 c 0,110,111
 616 472 616 472 613 488 c 0,112,113
 610 501 610 501 602 513 c 0,114,115
 595 525 595 525 582 536 c 0,116,117
 565 550 565 550 544 565 c 0,118,119
 526 577 526 577 504 585 c 0,120,121
 477 594 477 594 447 603 c 0,122,123
 421 610 421 610 401 610 c 0,124,125
 377 611 377 611 354 608 c 0,126,127
 332 606 332 606 312 599 c 0,128,129
 293 592 293 592 277 587 c 0,130,131
 277 586 277 586 277 585 c 2,132,-1
 276 571 l 2,133,134
 275 560 275 560 276 527 c 0,135,136
 277 493 277 493 280 475 c 0,137,138
 283 454 283 454 287 426 c 256,139,140
 291 398 291 398 296 364 c 0,141,142
 300 334 300 334 304 304 c 256,143,144
 308 274 308 274 310 246 c 0,145,146
 312 220 312 220 314 195 c 0,147,148
 315 175 315 175 318 162 c 0,149,150
 322 146 322 146 325 130 c 1,91,92
EndSplineSet
EndChar

StartChar: E
Encoding: 69 69 40
Width: 523
Flags: W
LayerCount: 2
Fore
SplineSet
167 644 m 1,0,1
 177 656 177 656 193 660 c 2,2,-1
 199 661 l 2,3,4
 208 664 208 664 227 666 c 0,5,6
 244 668 244 668 267 670 c 0,7,8
 291 672 291 672 323 673 c 0,9,10
 353 673 353 673 382 673.5 c 128,-1,11
 411 674 411 674 425 674 c 2,12,-1
 439 674 l 2,13,14
 458 674 458 674 472 660 c 128,-1,15
 486 646 486 646 486 627 c 128,-1,16
 486 608 486 608 472 594 c 128,-1,17
 458 580 458 580 439 580 c 2,18,-1
 425 580 l 2,19,20
 411 580 411 580 382.5 579.5 c 128,-1,21
 354 579 354 579 324 579 c 0,22,23
 297 579 297 579 276 576 c 0,24,25
 254 574 254 574 238 572 c 0,26,27
 231 572 231 572 225 571 c 1,28,29
 224 562 224 562 221 555 c 0,30,31
 217 543 217 543 207 521 c 0,32,33
 200 505 200 505 196 486 c 0,34,35
 191 458 191 458 182 430 c 0,36,37
 176 410 176 410 170 390 c 1,38,39
 175 391 175 391 187 391 c 0,40,41
 203 393 203 393 222 393 c 0,42,43
 241 394 241 394 259 394 c 0,44,45
 277 395 277 395 303 396 c 0,46,47
 327 397 327 397 349 399 c 2,48,-1
 373 402 l 2,49,50
 392 404 392 404 407 391.5 c 128,-1,51
 422 379 422 379 424 360 c 128,-1,52
 426 341 426 341 414 325.5 c 128,-1,53
 402 310 402 310 382 308 c 2,54,-1
 359 306 l 2,55,56
 334 303 334 303 306 302 c 0,57,58
 280 301 280 301 262 301 c 0,59,60
 244 300 244 300 225 299 c 0,61,62
 208 299 208 299 194 298 c 0,63,64
 185 297 185 297 181 296 c 2,65,-1
 175 295 l 2,66,67
 161 291 161 291 148 295 c 1,68,69
 147 289 147 289 145 280 c 0,70,71
 140 258 140 258 137 235.5 c 128,-1,72
 134 213 134 213 132 195 c 0,73,74
 131 178 131 178 131 163 c 0,75,76
 131 149 131 149 133 138 c 0,77,78
 134 130 134 130 136 127 c 0,79,80
 137 123 137 123 139 122 c 0,81,82
 143 118 143 118 149 115 c 0,83,84
 152 113 152 113 157 113 c 0,85,86
 167 112 167 112 180 113 c 0,87,88
 196 114 196 114 213 116 c 0,89,90
 229 118 229 118 244 121 c 0,91,92
 261 124 261 124 277 127 c 0,93,94
 290 129 290 129 309.5 135.5 c 128,-1,95
 329 142 329 142 341 147 c 2,96,-1
 355 153 l 2,97,98
 373 161 373 161 391 154.5 c 128,-1,99
 409 148 409 148 417 130.5 c 128,-1,100
 425 113 425 113 418 94.5 c 128,-1,101
 411 76 411 76 394 68 c 2,102,-1
 379 61 l 2,103,104
 363 54 363 54 338 46 c 128,-1,105
 313 38 313 38 294 35 c 0,106,107
 278 32 278 32 262 29 c 0,108,109
 244 25 244 25 225 23 c 0,110,111
 206 20 206 20 187 19 c 0,112,113
 165 17 165 17 146 19 c 0,114,115
 122 22 122 22 103 33 c 0,116,117
 88 41 88 41 76 52 c 0,118,119
 62 65 62 65 52 83 c 0,120,121
 43 101 43 101 40 124 c 0,122,123
 37 143 37 143 37 163 c 0,124,125
 37 182 37 182 39 203 c 0,126,127
 40 224 40 224 44 249 c 128,-1,128
 48 274 48 274 53 299 c 0,129,130
 58 323 58 323 63 348 c 0,131,132
 68 376 68 376 76 404 c 0,133,134
 84 431 84 431 92 458 c 0,135,136
 100 482 100 482 104 504 c 0,137,138
 110 534 110 534 121 559 c 0,139,140
 129 577 129 577 132 584 c 0,141,142
 133 589 133 589 134 594 c 2,143,-1
 135 604 l 2,144,145
 138 634 138 634 167 644 c 1,0,1
EndSplineSet
EndChar

StartChar: F
Encoding: 70 70 41
Width: 587
Flags: W
LayerCount: 2
Fore
SplineSet
47 335 m 0,0,1
 38 352 38 352 43.5 371 c 128,-1,2
 49 390 49 390 65 399 c 2,3,-1
 74 404 l 2,4,5
 77 406 77 406 80 407 c 0,6,7
 82 426 82 426 84 447 c 0,8,9
 87 474 87 474 91 502 c 0,10,11
 95 527 95 527 98 548 c 0,12,13
 101 568 101 568 101 585 c 0,14,15
 101 590 101 590 101 595 c 1,16,17
 72 599 72 599 62 626 c 0,18,19
 56 644 56 644 64.5 662 c 128,-1,20
 73 680 73 680 91 686 c 2,21,-1
 102 690 l 2,22,23
 118 696 118 696 135 698 c 0,24,25
 146 699 146 699 162 700.5 c 128,-1,26
 178 702 178 702 203 706 c 0,27,28
 229 709 229 709 255 712 c 256,29,30
 281 715 281 715 303 718 c 0,31,32
 328 721 328 721 352.5 723.5 c 128,-1,33
 377 726 377 726 402 728 c 0,34,35
 428 730 428 730 452 730 c 0,36,37
 474 731 474 731 488 731 c 2,38,-1
 503 731 l 2,39,40
 522 732 522 732 536 718 c 128,-1,41
 550 704 550 704 550.5 685 c 128,-1,42
 551 666 551 666 537.5 652 c 128,-1,43
 524 638 524 638 505 637 c 2,44,-1
 490 637 l 2,45,46
 476 637 476 637 453 636 c 0,47,48
 432 636 432 636 409 634 c 0,49,50
 385 633 385 633 362 630.5 c 128,-1,51
 339 628 339 628 316 625 c 0,52,53
 292 621 292 621 266 618 c 256,54,55
 240 615 240 615 214 612 c 0,56,57
 204 611 204 611 195 610 c 1,58,59
 195 600 195 600 195 582 c 0,60,61
 194 560 194 560 191 536 c 0,62,63
 188 513 188 513 184 486 c 0,64,65
 180 462 180 462 178 438 c 0,66,67
 177 435 177 435 177 432 c 1,68,69
 198 435 198 435 221 436 c 0,70,71
 246 437 246 437 272 440 c 0,72,73
 297 442 297 442 326 448 c 0,74,75
 361 455 361 455 379 456 c 2,76,-1
 395 458 l 2,77,78
 414 460 414 460 429 447 c 128,-1,79
 444 434 444 434 446 415 c 128,-1,80
 448 396 448 396 435 381 c 128,-1,81
 422 366 422 366 403 364 c 2,82,-1
 388 363 l 2,83,84
 374 362 374 362 345 356 c 0,85,86
 310 349 310 349 281 346 c 0,87,88
 253 344 253 344 225 342 c 0,89,90
 201 341 201 341 177 337 c 0,91,92
 171 336 171 336 166 335 c 1,93,94
 165 330 165 330 164 325 c 0,95,96
 159 298 159 298 153.5 263.5 c 128,-1,97
 148 229 148 229 144.5 199.5 c 128,-1,98
 141 170 141 170 139 152 c 256,99,100
 137 134 137 134 135 118 c 256,101,102
 133 102 133 102 132 93 c 2,103,-1
 131 84 l 2,104,105
 128 65 128 65 112.5 53 c 128,-1,106
 97 41 97 41 78 43.5 c 128,-1,107
 59 46 59 46 47 61.5 c 128,-1,108
 35 77 35 77 37 96 c 2,109,-1
 39 105 l 2,110,111
 40 114 40 114 42 130 c 0,112,113
 43 145 43 145 45 162 c 0,114,115
 47 181 47 181 51 212 c 128,-1,116
 55 243 55 243 61 278 c 0,117,118
 64 299 64 299 67 316 c 1,119,120
 54 323 54 323 47 335 c 0,0,1
EndSplineSet
EndChar

StartChar: G
Encoding: 71 71 42
Width: 624
Flags: W
LayerCount: 2
Fore
SplineSet
496.5 440 m 128,-1,1
 477 438 477 438 462 450 c 128,-1,2
 447 462 447 462 445 481 c 2,3,-1
 444 489 l 2,4,5
 443 495 443 495 443 501 c 0,6,7
 441 503 441 503 440 505 c 0,8,9
 427 521 427 521 420 530 c 0,10,11
 418 534 418 534 414 538 c 0,12,13
 406 544 406 544 397 551 c 0,14,15
 390 556 390 556 378 563 c 0,16,17
 371 567 371 567 362 569 c 0,18,19
 352 572 352 572 338 573 c 128,-1,20
 324 574 324 574 307 573 c 0,21,22
 294 572 294 572 279 565 c 0,23,24
 260 557 260 557 243 546 c 0,25,26
 227 535 227 535 207 516 c 0,27,28
 186 496 186 496 175 481 c 0,29,30
 165 469 165 469 155 448 c 256,31,32
 145 427 145 427 142 412 c 0,33,34
 138 394 138 394 135 370 c 0,35,36
 133 344 133 344 131 317 c 0,37,38
 130 293 130 293 133 271 c 0,39,40
 135 246 135 246 138 218 c 0,41,42
 141 195 141 195 146.5 175.5 c 128,-1,43
 152 156 152 156 161 140 c 0,44,45
 170 123 170 123 180 109 c 0,46,47
 191 95 191 95 203 85 c 0,48,49
 216 74 216 74 228 67 c 0,50,51
 237 61 237 61 254 56 c 0,52,53
 270 52 270 52 285 52 c 0,54,55
 300 51 300 51 321 56 c 0,56,57
 343 61 343 61 381 77 c 0,58,59
 418 93 418 93 430 101 c 0,60,61
 441 108 441 108 454 121 c 0,62,63
 466 134 466 134 472 144 c 0,64,65
 479 156 479 156 484 170 c 0,66,67
 489 185 489 185 492 197 c 0,68,69
 493 206 493 206 493 213 c 0,70,71
 493 218 493 218 492 221 c 0,72,73
 491 222 491 222 490 223 c 0,74,75
 485 228 485 228 478 232 c 0,76,77
 470 238 470 238 460 241 c 0,78,79
 451 245 451 245 445 247 c 0,80,81
 440 248 440 248 436 248 c 0,82,83
 432 247 432 247 427 245 c 2,84,-1
 418 242 l 2,85,86
 418 240 418 240 418 237 c 2,87,-1
 420 195 l 2,88,89
 421 176 421 176 407.5 161.5 c 128,-1,90
 394 147 394 147 375 146 c 128,-1,91
 356 145 356 145 341.5 158 c 128,-1,92
 327 171 327 171 326 190 c 2,93,-1
 324 232 l 2,94,95
 322 277 322 277 323.5 302 c 128,-1,96
 325 327 325 327 327 339 c 2,97,-1
 328 349 l 2,98,99
 331 368 331 368 347 379.5 c 128,-1,100
 363 391 363 391 382 388 c 0,101,102
 399 385 399 385 410 371.5 c 128,-1,103
 421 358 421 358 422 342 c 1,104,105
 430 343 430 343 440 342 c 0,106,107
 451 341 451 341 465 338 c 256,108,109
 479 335 479 335 496 328 c 0,110,111
 511 322 511 322 527 313 c 0,112,113
 544 302 544 302 557 289 c 0,114,115
 573 273 573 273 580 254 c 0,116,117
 585 238 585 238 587 218 c 0,118,119
 588 199 588 199 584 178 c 0,120,121
 580 159 580 159 572 138 c 0,122,123
 564 116 564 116 553 97 c 0,124,125
 542 77 542 77 521 55 c 0,126,127
 501 35 501 35 482 22 c 0,128,129
 463 10 463 10 418 -10 c 0,130,131
 372 -29 372 -29 341 -36 c 256,132,133
 310 -43 310 -43 284 -42 c 0,134,135
 257 -42 257 -42 229 -34 c 0,136,137
 200 -27 200 -27 179 -14 c 0,138,139
 160 -3 160 -3 141 14 c 256,140,141
 122 31 122 31 106 51 c 0,142,143
 90 72 90 72 78 96 c 0,144,145
 65 121 65 121 56.5 148.5 c 128,-1,146
 48 176 48 176 45 208 c 0,147,148
 42 236 42 236 39 261 c 0,149,150
 36 290 36 290 37 322 c 0,151,152
 39 351 39 351 42 380 c 256,153,154
 45 409 45 409 50 432 c 0,155,156
 56 458 56 458 70 488 c 0,157,158
 85 518 85 518 101 539 c 0,159,160
 116 558 116 558 142 583 c 0,161,162
 168 609 168 609 191.5 624.5 c 128,-1,163
 215 640 215 640 241 651 c 0,164,165
 270 664 270 664 299 666 c 0,166,167
 324 668 324 668 345.5 666.5 c 128,-1,168
 367 665 367 665 384 661 c 0,169,170
 406 656 406 656 425 644 c 0,171,172
 441 635 441 635 453 626 c 0,173,174
 465 618 465 618 475 609 c 0,175,176
 488 597 488 597 498 584 c 0,177,178
 502 577 502 577 513 564 c 0,179,180
 534 539 534 539 536 515 c 0,181,182
 536 507 536 507 537 499 c 2,183,-1
 538 492 l 2,184,185
 540 473 540 473 528 457.5 c 128,-1,0
 516 442 516 442 496.5 440 c 128,-1,1
EndSplineSet
EndChar

StartChar: H
Encoding: 72 72 43
Width: 643
Flags: W
LayerCount: 2
Fore
SplineSet
542.5 695.5 m 128,-1,1
 562 696 562 696 576 682.5 c 128,-1,2
 590 669 590 669 591 650 c 2,3,-1
 591 643 l 2,4,5
 594 634 594 634 596 621 c 0,6,7
 599 606 599 606 600 577 c 0,8,9
 600 552 600 552 598 525 c 256,10,11
 596 498 596 498 594 473 c 0,12,13
 591 449 591 449 590 423 c 0,14,15
 588 396 588 396 587 372 c 0,16,17
 586 358 586 358 585 343 c 1,18,19
 599 334 599 334 604 319 c 0,20,21
 610 302 610 302 603 285 c 128,-1,22
 596 268 596 268 580 261 c 1,23,24
 578 238 578 238 576 203 c 0,25,26
 573 160 573 160 572 144 c 0,27,28
 572 126 572 126 569 95 c 0,29,30
 567 63 567 63 564 50 c 0,31,32
 562 38 562 38 559 27 c 2,33,-1
 557 17 l 2,34,35
 552 -2 552 -2 535 -11.5 c 128,-1,36
 518 -21 518 -21 499.5 -16.5 c 128,-1,37
 481 -12 481 -12 471 5 c 128,-1,38
 461 22 461 22 466 41 c 2,39,-1
 468 51 l 2,40,41
 470 58 470 58 472 67 c 0,42,43
 473 75 473 75 476 102 c 0,44,45
 478 131 478 131 478 147 c 0,46,47
 479 165 479 165 482 210 c 0,48,49
 483 225 483 225 484 237 c 1,50,-1
 452 237 l 2,51,52
 435 237 435 237 422 238 c 0,53,54
 408 238 408 238 383 238 c 0,55,56
 355 239 355 239 331 243 c 0,57,58
 310 246 310 246 296 248 c 256,59,60
 282 250 282 250 259 252 c 0,61,62
 237 254 237 254 222 254 c 0,63,64
 200 256 200 256 187 257 c 0,65,66
 177 258 177 258 152 258 c 1,67,68
 152 250 152 250 151 241 c 0,69,70
 149 211 149 211 147 183 c 0,71,72
 144 155 144 155 141 131 c 0,73,74
 138 108 138 108 135 90 c 0,75,76
 133 72 133 72 132 61 c 0,77,78
 131 52 131 52 131 45 c 2,79,-1
 131 36 l 2,80,81
 131 17 131 17 117.5 3 c 128,-1,82
 104 -11 104 -11 84.5 -11.5 c 128,-1,83
 65 -12 65 -12 51 2 c 128,-1,84
 37 16 37 16 37 35 c 2,85,-1
 37 44 l 2,86,87
 37 56 37 56 39 71 c 0,88,89
 40 83 40 83 42 102 c 0,90,91
 45 120 45 120 48 143 c 0,92,93
 51 165 51 165 53 192 c 0,94,95
 56 218 56 218 57 247 c 0,96,97
 58 268 58 268 60 290 c 0,98,99
 57 298 57 298 57 306 c 0,100,101
 57 319 57 319 63 330 c 1,102,103
 65 350 65 350 67 369 c 0,104,105
 70 398 70 398 72 429 c 0,106,107
 75 460 75 460 78 489.5 c 128,-1,108
 81 519 81 519 86 569 c 0,109,110
 90 617 90 617 90 632 c 0,111,112
 90 644 90 644 89 652 c 2,113,-1
 86 665 l 2,114,115
 82 684 82 684 92.5 700.5 c 128,-1,116
 103 717 103 717 122 721 c 128,-1,117
 141 725 141 725 157.5 714.5 c 128,-1,118
 174 704 174 704 178 685 c 2,119,-1
 180 672 l 2,120,121
 184 654 184 654 184 632 c 0,122,123
 185 612 185 612 179 560 c 0,124,125
 174 510 174 510 172 481 c 0,126,127
 169 451 169 451 166 420 c 256,128,129
 163 389 163 389 161 361 c 0,130,131
 160 355 160 355 160 352 c 0,132,133
 183 351 183 351 195 350 c 256,134,135
 207 349 207 349 227 348 c 0,136,137
 244 347 244 347 268 345 c 256,138,139
 292 343 292 343 308 341 c 0,140,141
 323 339 323 339 345 336 c 0,142,143
 363 333 363 333 385 332 c 0,144,145
 410 332 410 332 423 332 c 0,146,147
 436 331 436 331 452 331 c 2,148,-1
 489 331 l 1,149,-1
 490 331 l 1,150,151
 492 355 492 355 493 377 c 0,152,153
 494 401 494 401 496 429 c 0,154,155
 497 457 497 457 500 483 c 0,156,157
 503 507 503 507 504 531 c 0,158,159
 506 555 506 555 506 576 c 0,160,161
 506 596 506 596 504 602 c 0,162,163
 502 611 502 611 501 615 c 0,164,165
 497 628 497 628 497 641 c 2,166,-1
 497 648 l 2,167,168
 496 667 496 667 509.5 681 c 128,-1,0
 523 695 523 695 542.5 695.5 c 128,-1,1
EndSplineSet
EndChar

StartChar: I
Encoding: 73 73 44
Width: 181
Flags: W
LayerCount: 2
Fore
SplineSet
108.5 674.5 m 128,-1,1
 127 670 127 670 137 653 c 128,-1,2
 147 636 147 636 143 618 c 2,3,-1
 140 605 l 2,4,5
 137 594 137 594 135 581 c 0,6,7
 133 569 133 569 132 552 c 256,8,9
 131 535 131 535 131 515 c 0,10,11
 131 497 131 497 132 481 c 0,12,13
 133 464 133 464 134.5 441.5 c 128,-1,14
 136 419 136 419 136 398 c 0,15,16
 137 379 137 379 137 354 c 2,17,18
 137 354 137 354 137 309 c 2,19,-1
 137 266 l 2,20,21
 137 245 137 245 136 224 c 0,22,23
 135 204 135 204 134 175 c 0,24,25
 134 144 134 144 134 133 c 2,26,-1
 134 112 l 2,27,28
 134 101 134 101 134 92 c 0,29,30
 133 84 133 84 133 76 c 0,31,32
 133 69 133 69 133 64 c 2,33,-1
 133 58 l 2,34,35
 133 38 133 38 119.5 24 c 128,-1,36
 106 10 106 10 86.5 10 c 128,-1,37
 67 10 67 10 53 23.5 c 128,-1,38
 39 37 39 37 39 57 c 2,39,-1
 39 63 l 2,40,41
 39 70 39 70 39 80 c 0,42,43
 40 88 40 88 40 96 c 0,44,45
 40 102 40 102 40 112 c 2,46,-1
 40 133 l 2,47,48
 40 145 40 145 40 176 c 0,49,50
 41 207 41 207 42 228 c 0,51,52
 43 247 43 247 43 266 c 2,53,-1
 43 309 l 1,54,-1
 43 354 l 2,55,56
 43 378 43 378 42 396 c 0,57,58
 42 415 42 415 41 437 c 0,59,60
 40 458 40 458 38 474 c 0,61,62
 37 493 37 493 37 516 c 0,63,64
 37 537 37 537 38 558 c 0,65,66
 40 579 40 579 42.5 596 c 128,-1,67
 45 613 45 613 49 627 c 2,68,-1
 52 640 l 2,69,70
 56 659 56 659 73 669 c 128,-1,0
 90 679 90 679 108.5 674.5 c 128,-1,1
EndSplineSet
EndChar

StartChar: J
Encoding: 74 74 45
Width: 500
Flags: W
LayerCount: 2
Fore
SplineSet
406 700.5 m 128,-1,1
 425 703 425 703 440.5 691 c 128,-1,2
 456 679 456 679 459 660 c 2,3,-1
 460 652 l 2,4,5
 461 642 461 642 461 629 c 0,6,7
 462 619 462 619 462 606 c 0,8,9
 463 593 463 593 463 576 c 0,10,11
 464 559 464 559 463 537 c 0,12,13
 463 517 463 517 462 496 c 0,14,15
 462 475 462 475 461 454 c 0,16,17
 459 434 459 434 458 411 c 0,18,19
 456 387 456 387 454 365 c 128,-1,20
 452 343 452 343 449 317 c 2,21,-1
 443 272 l 2,22,23
 440 251 440 251 436 226 c 0,24,25
 432 200 432 200 426 176 c 256,26,27
 420 152 420 152 414 131 c 0,28,29
 407 111 407 111 402 95 c 0,30,31
 395 73 395 73 384 54 c 0,32,33
 374 37 374 37 365 24 c 0,34,35
 356 10 356 10 343 -4 c 0,36,37
 329 -19 329 -19 315 -28 c 0,38,39
 301 -38 301 -38 283 -45 c 0,40,41
 266 -51 266 -51 248 -53 c 256,42,43
 230 -55 230 -55 212 -55 c 0,44,45
 195 -54 195 -54 178 -51 c 0,46,47
 159 -47 159 -47 138 -37 c 0,48,49
 116 -26 116 -26 99 -11 c 0,50,51
 85 2 85 2 73 18 c 0,52,53
 59 36 59 36 50 57 c 0,54,55
 42 77 42 77 38 99 c 0,56,57
 34 128 34 128 45 155 c 2,58,-1
 51 170 l 2,59,60
 59 188 59 188 77 195.5 c 128,-1,61
 95 203 95 203 113 195.5 c 128,-1,62
 131 188 131 188 138 169.5 c 128,-1,63
 145 151 145 151 138 134 c 2,64,-1
 132 119 l 2,65,66
 131 117 131 117 131 114 c 0,67,68
 133 103 133 103 137 93 c 256,69,70
 141 83 141 83 147 75 c 0,71,72
 155 66 155 66 163 58 c 0,73,74
 169 53 169 53 178 48 c 0,75,76
 189 43 189 43 196 42 c 0,77,78
 206 40 206 40 216 39 c 0,79,80
 226 39 226 39 236 40 c 0,81,82
 244 41 244 41 251 44 c 0,83,84
 257 46 257 46 262 49 c 0,85,86
 268 53 268 53 274 60 c 0,87,88
 282 68 282 68 287 77 c 0,89,90
 294 87 294 87 302 101 c 0,91,92
 309 112 309 112 312 124 c 0,93,94
 318 142 318 142 324 160 c 128,-1,95
 330 178 330 178 335 198 c 256,96,97
 340 218 340 218 343 240 c 0,98,99
 347 264 347 264 349 284 c 2,100,-1
 356 330 l 2,101,102
 359 354 359 354 361 374.5 c 128,-1,103
 363 395 363 395 364 417 c 0,104,105
 366 440 366 440 367 459 c 256,106,107
 368 478 368 478 368 499 c 0,108,109
 369 520 369 520 369 540 c 0,110,111
 370 559 370 559 369 574 c 0,112,113
 369 590 369 590 369 602 c 0,114,115
 368 615 368 615 368 625 c 0,116,117
 367 634 367 634 366 640 c 2,118,-1
 365 648 l 2,119,120
 363 667 363 667 375 682.5 c 128,-1,0
 387 698 387 698 406 700.5 c 128,-1,1
EndSplineSet
EndChar

StartChar: K
Encoding: 75 75 46
Width: 694
Flags: W
LayerCount: 2
Fore
SplineSet
605.5 695.5 m 128,-1,1
 619 682 619 682 619 662.5 c 128,-1,2
 619 643 619 643 606 629 c 2,3,-1
 600 623 l 2,4,5
 593 617 593 617 583 607 c 256,6,7
 573 597 573 597 555 580 c 0,8,9
 537 561 537 561 512 538 c 0,10,11
 487 516 487 516 461 495 c 0,12,13
 436 475 436 475 404 452 c 0,14,15
 373 430 373 430 348 412 c 0,16,17
 340 406 340 406 330 399 c 1,18,19
 340 396 340 396 349 391 c 0,20,21
 366 381 366 381 380 363 c 256,22,23
 394 345 394 345 401 319 c 0,24,25
 407 297 407 297 409 247 c 0,26,27
 410 202 410 202 411 181 c 0,28,29
 412 163 412 163 415 147 c 0,30,31
 419 132 419 132 423 119 c 0,32,33
 426 111 426 111 431 105 c 0,34,35
 438 97 438 97 451 90 c 0,36,37
 465 82 465 82 490 75 c 0,38,39
 519 67 519 67 548 63 c 0,40,41
 577 58 577 58 595 57 c 2,42,-1
 615 55 l 2,43,44
 634 53 634 53 646.5 38 c 128,-1,45
 659 23 659 23 657.5 4 c 128,-1,46
 656 -15 656 -15 641 -27.5 c 128,-1,47
 626 -40 626 -40 607 -39 c 2,48,-1
 587 -37 l 2,49,50
 565 -35 565 -35 533 -30 c 0,51,52
 500 -25 500 -25 466 -16 c 0,53,54
 428 -6 428 -6 404 9 c 0,55,56
 378 24 378 24 361 43 c 0,57,58
 343 63 343 63 334 87 c 0,59,60
 328 107 328 107 323 128 c 0,61,62
 319 151 319 151 317 177 c 0,63,64
 316 199 316 199 315 244 c 0,65,66
 314 283 314 283 311 294 c 0,67,68
 309 302 309 302 306 305 c 0,69,70
 303 309 303 309 301 310 c 2,71,-1
 300 310 l 2,72,73
 294 311 294 311 285 309 c 0,74,75
 273 308 273 308 259 304 c 128,-1,76
 245 300 245 300 227 293.5 c 128,-1,77
 209 287 209 287 194 280 c 0,78,79
 187 276 187 276 181 273 c 1,80,81
 177 248 177 248 173 229 c 0,82,83
 168 207 168 207 162 176 c 0,84,85
 155 143 155 143 149 120 c 0,86,87
 143 99 143 99 138 85 c 0,88,89
 134 73 134 73 132 65 c 2,90,-1
 129 55 l 2,91,92
 124 36 124 36 107 26.5 c 128,-1,93
 90 17 90 17 71.5 22 c 128,-1,94
 53 27 53 27 43.5 44 c 128,-1,95
 34 61 34 61 39 79 c 2,96,-1
 41 89 l 2,97,98
 44 100 44 100 49 114 c 0,99,100
 53 126 53 126 58 145 c 0,101,102
 64 165 64 165 70 195 c 0,103,104
 76 226 76 226 81 248 c 0,105,106
 85 269 85 269 90 298 c 1,107,108
 81 325 81 325 86 330 c 0,109,110
 90 333 90 333 95 337 c 1,111,112
 96 344 96 344 96 351 c 0,113,114
 98 377 98 377 100 408 c 0,115,116
 101 443 101 443 102 470 c 0,117,118
 104 498 104 498 107 527 c 0,119,120
 110 555 110 555 112 576 c 0,121,122
 113 595 113 595 113 607 c 0,123,124
 113 620 113 620 111 646 c 0,125,126
 110 659 110 659 110.5 673 c 128,-1,127
 111 687 111 687 116 701 c 2,128,-1
 119 708 l 2,129,130
 127 726 127 726 145 733.5 c 128,-1,131
 163 741 163 741 181 734 c 128,-1,132
 199 727 199 727 206.5 708.5 c 128,-1,133
 214 690 214 690 207 673 c 2,134,-1
 205 669 l 2,135,136
 205 662 205 662 205 651 c 0,137,138
 207 624 207 624 207 609 c 0,139,140
 207 592 207 592 206 568 c 0,141,142
 204 546 204 546 201 517 c 0,143,144
 198 490 198 490 196 465 c 0,145,146
 195 442 195 442 194 414 c 1,147,148
 217 432 217 432 240 449 c 0,149,150
 267 470 267 470 292.5 488.5 c 128,-1,151
 318 507 318 507 349 529 c 256,152,153
 380 551 380 551 403 569 c 256,154,155
 426 587 426 587 449 608 c 256,156,157
 472 629 472 629 489 646 c 0,158,159
 507 664 507 664 518 674 c 0,160,161
 527 683 527 683 533 689 c 2,162,-1
 539 695 l 2,163,164
 552 709 552 709 572 709 c 128,-1,0
 592 709 592 709 605.5 695.5 c 128,-1,1
EndSplineSet
EndChar

StartChar: L
Encoding: 76 76 47
Width: 679
Flags: W
LayerCount: 2
Fore
SplineSet
193 719.5 m 128,-1,1
 212 716 212 716 223 699.5 c 128,-1,2
 234 683 234 683 231 664 c 2,3,-1
 230 658 l 2,4,5
 229 653 229 653 228 647 c 0,6,7
 228 639 228 639 227 624 c 256,8,9
 226 609 226 609 224.5 586 c 128,-1,10
 223 563 223 563 220.5 540.5 c 128,-1,11
 218 518 218 518 215 494 c 0,12,13
 212 469 212 469 207 441 c 0,14,15
 202 415 202 415 198 384 c 0,16,17
 193 353 193 353 188 322 c 0,18,19
 184 288 184 288 175 256 c 0,20,21
 168 226 168 226 161 198 c 0,22,23
 155 172 155 172 149 139 c 0,24,25
 145 117 145 117 142 103 c 1,26,27
 152 106 152 106 163 110 c 0,28,29
 185 116 185 116 205.5 119.5 c 128,-1,30
 226 123 226 123 251 125 c 0,31,32
 275 126 275 126 298 126 c 256,33,34
 321 126 321 126 343 125 c 0,35,36
 365 123 365 123 387 121 c 0,37,38
 410 118 410 118 433 113 c 0,39,40
 455 109 455 109 475 104 c 0,41,42
 494 100 494 100 516 96 c 0,43,44
 537 92 537 92 566 90 c 2,45,-1
 598 88 l 2,46,47
 617 87 617 87 630 72 c 128,-1,48
 643 57 643 57 642 38 c 128,-1,49
 641 19 641 19 626 6 c 128,-1,50
 611 -7 611 -7 592 -6 c 2,51,-1
 560 -4 l 2,52,53
 526 -1 526 -1 500 3 c 0,54,55
 475 8 475 8 454 13 c 0,56,57
 435 17 435 17 414 21 c 0,58,59
 395 25 395 25 376 27 c 0,60,61
 356 30 356 30 337 31 c 256,62,63
 318 32 318 32 298 32 c 256,64,65
 278 32 278 32 257 31 c 0,66,67
 237 29 237 29 221.5 26.5 c 128,-1,68
 206 24 206 24 189 19 c 0,69,70
 173 15 173 15 160 9 c 0,71,72
 148 4 148 4 140 -1 c 0,73,74
 122 -11 122 -11 102 -13 c 0,75,76
 83 -16 83 -16 61.5 -2 c 128,-1,77
 40 12 40 12 38 37 c 0,78,79
 36 51 36 51 38 62 c 0,80,81
 39 71 39 71 41.5 84 c 128,-1,82
 44 97 44 97 48 111 c 0,83,84
 50 122 50 122 56 155 c 0,85,86
 63 192 63 192 70 221 c 0,87,88
 77 249 77 249 84 278 c 0,89,90
 91 306 91 306 95 335 c 0,91,92
 100 367 100 367 105 398.5 c 128,-1,93
 110 430 110 430 114 458 c 0,94,95
 119 484 119 484 122 506 c 0,96,97
 125 529 125 529 127 550 c 0,98,99
 130 571 130 571 131 592 c 0,100,101
 132 614 132 614 133 630 c 128,-1,102
 134 646 134 646 135 655 c 0,103,104
 136 666 136 666 137 675 c 2,105,-1
 138 681 l 2,106,107
 142 700 142 700 158 711.5 c 128,-1,0
 174 723 174 723 193 719.5 c 128,-1,1
EndSplineSet
EndChar

StartChar: M
Encoding: 77 77 48
Width: 759
Flags: W
LayerCount: 2
Fore
SplineSet
143 685 m 0,0,1
 176 679 176 679 195 649 c 0,2,3
 205 632 205 632 214 608 c 0,4,5
 221 587 221 587 229 562 c 0,6,7
 236 537 236 537 243 514 c 0,8,9
 251 489 251 489 259 460 c 0,10,11
 266 434 266 434 276 406 c 0,12,13
 287 376 287 376 296 347 c 0,14,15
 303 322 303 322 312 298 c 0,16,17
 323 271 323 271 331 245 c 0,18,19
 338 221 338 221 345 200 c 0,20,21
 350 184 350 184 355 170 c 1,22,-1
 355 171 l 1,23,24
 363 191 363 191 370 210 c 0,25,26
 377 228 377 228 388 258 c 0,27,28
 400 290 400 290 413 320 c 256,29,30
 426 350 426 350 443 380 c 256,31,32
 460 410 460 410 479 440 c 0,33,34
 498 468 498 468 514.5 492.5 c 128,-1,35
 531 517 531 517 544 536 c 0,36,37
 557 554 557 554 573 578 c 0,38,39
 588 600 588 600 596 616 c 0,40,41
 606 634 606 634 622 657 c 0,42,43
 622 659 622 659 623 661.5 c 128,-1,44
 624 664 624 664 627.5 669 c 128,-1,45
 631 674 631 674 636.5 678 c 128,-1,46
 642 682 642 682 651.5 684.5 c 128,-1,47
 661 687 661 687 673 686 c 0,48,49
 694 684 694 684 706.5 675.5 c 128,-1,50
 719 667 719 667 721 656.5 c 128,-1,51
 723 646 723 646 722.5 635.5 c 128,-1,52
 722 625 722 625 719 618 c 2,53,-1
 716 611 l 1,54,55
 711 576 711 576 706 550 c 0,56,57
 702 525 702 525 700 502 c 0,58,59
 698 478 698 478 696 449 c 0,60,61
 695 422 695 422 693 391 c 256,62,63
 691 360 691 360 688 330 c 0,64,65
 684 302 684 302 682 274 c 0,66,67
 679 246 679 246 679 196 c 0,68,69
 679 149 679 149 682 134 c 0,70,71
 686 116 686 116 689 103 c 0,72,73
 690 98 690 98 695 91 c 2,74,-1
 706 76 l 2,75,76
 717 61 717 61 714 41.5 c 128,-1,77
 711 22 711 22 695.5 10.5 c 128,-1,78
 680 -1 680 -1 660.5 2 c 128,-1,79
 641 5 641 5 630 21 c 2,80,-1
 619 36 l 2,81,82
 602 59 602 59 597 82 c 0,83,84
 594 96 594 96 590 117 c 0,85,86
 585 140 585 140 585 197 c 0,87,88
 586 251 586 251 588 282 c 0,89,90
 591 312 591 312 594 341 c 0,91,92
 597 368 597 368 599 396 c 0,93,94
 601 425 601 425 603 455 c 1,95,96
 598 448 598 448 592 440 c 0,97,98
 576 416 576 416 558 388 c 0,99,100
 540 361 540 361 525 335 c 0,101,102
 511 308 511 308 499 282 c 0,103,104
 487 255 487 255 476 226 c 0,105,106
 465 195 465 195 458 177 c 0,107,108
 451 158 451 158 444 138 c 0,109,110
 435 116 435 116 425 95 c 0,111,112
 416 77 416 77 406 58 c 0,113,114
 405 55 405 55 401 49.5 c 128,-1,115
 397 44 397 44 388 35.5 c 128,-1,116
 379 27 379 27 369 22 c 128,-1,117
 359 17 359 17 345 18.5 c 128,-1,118
 331 20 331 20 317 31 c 0,119,120
 301 45 301 45 294 62 c 0,121,122
 290 69 290 69 287 78 c 0,123,124
 282 89 282 89 278 105 c 0,125,126
 275 116 275 116 269 131 c 0,127,128
 262 150 262 150 255 172 c 0,129,130
 249 192 249 192 241 217 c 0,131,132
 234 240 234 240 225 264 c 0,133,134
 214 291 214 291 206 320 c 0,135,136
 198 346 198 346 188 374 c 0,137,138
 177 403 177 403 169 432 c 1,139,140
 169 421 169 421 169 411 c 0,141,142
 169 377 169 377 167 345 c 0,143,144
 165 312 165 312 158 282 c 0,145,146
 152 255 152 255 148 231 c 0,147,148
 144 209 144 209 143 189 c 0,149,150
 141 167 141 167 140 143 c 256,151,152
 139 119 139 119 138 99 c 0,153,154
 136 77 136 77 135 64 c 0,155,156
 134 52 134 52 132 36 c 2,157,-1
 131 18 l 2,158,159
 129 -1 129 -1 114 -13.5 c 128,-1,160
 99 -26 99 -26 80 -24.5 c 128,-1,161
 61 -23 61 -23 48 -7.5 c 128,-1,162
 35 8 35 8 37 27 c 2,163,-1
 39 44 l 2,164,165
 40 61 40 61 41 73 c 256,166,167
 42 85 42 85 44 105 c 0,168,169
 45 125 45 125 46 148 c 0,170,171
 47 172 47 172 49 195 c 0,172,173
 50 221 50 221 56 248 c 0,174,175
 60 274 60 274 66 301 c 0,176,177
 71 325 71 325 73 352 c 0,178,179
 75 380 75 380 75 410 c 0,180,181
 75 441 75 441 74 469 c 0,182,183
 73 496 73 496 72 519 c 0,184,185
 69 544 69 544 70 558 c 0,186,187
 70 573 70 573 72 592 c 0,188,189
 75 609 75 609 77 621 c 256,190,191
 79 633 79 633 80 641 c 0,192,193
 84 662 84 662 104.5 674 c 128,-1,194
 125 686 125 686 143 685 c 0,0,1
EndSplineSet
EndChar

StartChar: N
Encoding: 78 78 49
Width: 635
Flags: W
LayerCount: 2
Fore
SplineSet
79 -9 m 128,-1,1
 60 -7 60 -7 47.5 8.5 c 128,-1,2
 35 24 35 24 37 43 c 2,3,-1
 40 64 l 2,4,5
 42 84 42 84 43 96 c 0,6,7
 44 109 44 109 46 134 c 0,8,9
 48 160 48 160 51 186 c 0,10,11
 54 210 54 210 57 235 c 0,12,13
 61 261 61 261 64 286 c 0,14,15
 68 310 68 310 72 342 c 0,16,17
 75 373 75 373 77 400 c 0,18,19
 79 428 79 428 80 457 c 0,20,21
 81 487 81 487 82 513 c 0,22,23
 84 540 84 540 87 567 c 0,24,25
 91 596 91 596 96 611 c 0,26,27
 99 621 99 621 101 633 c 0,28,29
 106 651 106 651 111 663 c 0,30,31
 122 685 122 685 149 690.5 c 128,-1,32
 176 696 176 696 191 684 c 0,33,34
 207 673 207 673 220 652 c 0,35,36
 231 636 231 636 241 610 c 0,37,38
 251 586 251 586 259 561 c 0,39,40
 266 538 266 538 275 509 c 256,41,42
 284 480 284 480 290 452 c 0,43,44
 296 428 296 428 306 397 c 0,45,46
 317 363 317 363 326 333 c 0,47,48
 335 305 335 305 343 282 c 0,49,50
 352 258 352 258 363 232 c 0,51,52
 372 206 372 206 381 186 c 0,53,54
 389 167 389 167 396 155 c 0,55,56
 404 141 404 141 414 126 c 0,57,58
 417 120 417 120 420 115 c 1,59,60
 421 119 421 119 422 124 c 0,61,62
 425 139 425 139 429 179 c 0,63,64
 433 222 433 222 435 248 c 0,65,66
 437 275 437 275 440 304 c 0,67,68
 442 335 442 335 448 369 c 256,69,70
 454 403 454 403 463 439 c 0,71,72
 471 474 471 474 477 504 c 128,-1,73
 483 534 483 534 486 552 c 0,74,75
 490 571 490 571 493 590 c 0,76,77
 496 606 496 606 497 618 c 0,78,79
 499 633 499 633 503 646 c 2,80,-1
 506 656 l 2,81,82
 512 674 512 674 529.5 683.5 c 128,-1,83
 547 693 547 693 565 687 c 128,-1,84
 583 681 583 681 592.5 664 c 128,-1,85
 602 647 602 647 596 628 c 2,86,-1
 593 618 l 2,87,88
 591 612 591 612 590 605 c 0,89,90
 589 593 589 593 586 574 c 0,91,92
 582 556 582 556 579 537 c 0,93,94
 576 517 576 517 569.5 485 c 128,-1,95
 563 453 563 453 554 417 c 0,96,97
 546 384 546 384 541 353 c 0,98,99
 536 323 536 323 534 296 c 0,100,101
 531 268 531 268 529 240 c 0,102,103
 527 213 527 213 523 170 c 0,104,105
 518 124 518 124 514 104 c 0,106,107
 509 82 509 82 501 63 c 0,108,109
 493 45 493 45 481 25 c 0,110,111
 480 24 480 24 477.5 19 c 128,-1,112
 475 14 475 14 472.5 10.5 c 128,-1,113
 470 7 470 7 465 2 c 128,-1,114
 460 -3 460 -3 454.5 -6.5 c 128,-1,115
 449 -10 449 -10 440.5 -12 c 128,-1,116
 432 -14 432 -14 422 -13 c 0,117,118
 395 -12 395 -12 376 12 c 0,119,120
 367 22 367 22 361 31 c 0,121,122
 356 38 356 38 350 50 c 0,123,124
 343 61 343 61 334 77 c 0,125,126
 324 93 324 93 315 107 c 0,127,128
 305 124 305 124 295 148 c 0,129,130
 285 171 285 171 275 198 c 0,131,132
 264 225 264 225 255 249 c 0,133,134
 246 275 246 275 236 306 c 0,135,136
 228 335 228 335 217 367 c 0,137,138
 205 402 205 402 199 431 c 0,139,140
 193 455 193 455 185 482 c 0,141,142
 180 497 180 497 176 510 c 1,143,144
 176 509 176 509 176 508 c 0,145,146
 175 483 175 483 174 453 c 0,147,148
 172 423 172 423 171 394 c 0,149,150
 169 365 169 365 165 331 c 256,151,152
 161 297 161 297 157 272 c 0,153,154
 154 249 154 249 151 225 c 0,155,156
 148 198 148 198 145 174 c 256,157,158
 142 150 142 150 140 126 c 0,159,160
 138 101 138 101 136.5 87.5 c 128,-1,161
 135 74 135 74 133 54 c 2,162,-1
 131 33 l 2,163,164
 129 14 129 14 113.5 1.5 c 128,-1,0
 98 -11 98 -11 79 -9 c 128,-1,1
EndSplineSet
EndChar

StartChar: O
Encoding: 79 79 50
Width: 619
Flags: W
LayerCount: 2
Fore
SplineSet
334 637 m 0,0,1
 355 641 355 641 373 640 c 0,2,3
 397 639 397 639 419 630 c 0,4,5
 442 620 442 620 460 604 c 0,6,7
 478 589 478 589 494 568 c 0,8,9
 508 548 508 548 520 527 c 0,10,11
 534 505 534 505 545 476 c 0,12,13
 556 449 556 449 563 422 c 0,14,15
 570 396 570 396 575 366 c 0,16,17
 581 335 581 335 582 303 c 0,18,19
 584 271 584 271 581 240 c 0,20,21
 579 207 579 207 568 173 c 0,22,23
 558 140 558 140 542 109.5 c 128,-1,24
 526 79 526 79 506 54 c 0,25,26
 484 26 484 26 457 7 c 0,27,28
 432 -11 432 -11 406 -23 c 0,29,30
 380 -36 380 -36 356 -42 c 256,31,32
 332 -48 332 -48 307 -49 c 0,33,34
 283 -50 283 -50 258 -47 c 0,35,36
 231 -43 231 -43 208 -33 c 256,37,38
 185 -23 185 -23 164 -6 c 0,39,40
 145 8 145 8 127 26 c 0,41,42
 107 47 107 47 94 72 c 0,43,44
 83 93 83 93 72 120 c 0,45,46
 60 149 60 149 53 181 c 0,47,48
 47 209 47 209 42 239 c 0,49,50
 37 271 37 271 37 301 c 0,51,52
 37 330 37 330 41 360 c 0,53,54
 45 391 45 391 54 418 c 0,55,56
 63 443 63 443 77 473 c 0,57,58
 93 505 93 505 115 529 c 0,59,60
 134 551 134 551 159 573 c 0,61,62
 186 596 186 596 212 610 c 0,63,64
 237 623 237 623 263 630 c 0,65,66
 288 636 288 636 308 637 c 0,67,68
 322 637 322 637 334 637 c 0,0,1
422 506 m 1,69,70
 412 502 412 502 403 503 c 0,71,72
 387 503 387 503 375 513.5 c 128,-1,73
 363 524 363 524 359 538 c 1,74,75
 352 541 352 541 348 542 c 0,76,77
 346 543 346 543 342 543 c 0,78,79
 328 540 328 540 316 533 c 2,80,-1
 297 523 l 2,81,82
 275 511 275 511 251 524 c 1,83,84
 237 516 237 516 221 502 c 0,85,86
 200 484 200 484 185 467 c 0,87,88
 171 452 171 452 161 431 c 0,89,90
 150 408 150 408 143 388 c 0,91,92
 137 370 137 370 134 347 c 256,93,94
 131 324 131 324 131 301 c 0,95,96
 131 279 131 279 135 254 c 0,97,98
 140 226 140 226 145 200 c 0,99,100
 150 177 150 177 159 156 c 0,101,102
 168 133 168 133 177 116 c 0,103,104
 184 103 184 103 195 92 c 0,105,106
 208 79 208 79 222 68 c 0,107,108
 233 59 233 59 246 53 c 0,109,110
 258 48 258 48 272 46 c 0,111,112
 287 44 287 44 303 44 c 0,113,114
 318 45 318 45 332 49 c 0,115,116
 347 53 347 53 365 62 c 0,117,118
 384 71 384 71 403 84 c 0,119,120
 419 95 419 95 432 112 c 0,121,122
 447 131 447 131 459 153.5 c 128,-1,123
 471 176 471 176 479 201 c 0,124,125
 486 225 486 225 488 248 c 0,126,127
 490 273 490 273 489 299 c 0,128,129
 487 324 487 324 483 349 c 0,130,131
 478 375 478 375 472 397 c 0,132,133
 466 420 466 420 457 442 c 0,134,135
 449 463 449 463 440 479 c 0,136,137
 432 493 432 493 422 506 c 1,69,70
EndSplineSet
EndChar

StartChar: P
Encoding: 80 80 51
Width: 706
Flags: W
LayerCount: 2
Fore
SplineSet
63.5 436 m 128,-1,1
 46 444 46 444 39.5 462.5 c 128,-1,2
 33 481 33 481 41 499 c 2,3,-1
 47 511 l 2,4,5
 57 531 57 531 82 555 c 0,6,7
 102 573 102 573 128 593 c 0,8,9
 154 615 154 615 184 633 c 0,10,11
 216 652 216 652 246 662 c 0,12,13
 267 669 267 669 291 681 c 0,14,15
 327 701 327 701 360 703 c 0,16,17
 382 705 382 705 411 707 c 256,18,19
 440 709 440 709 471 709 c 256,20,21
 502 709 502 709 528 706 c 0,22,23
 557 702 557 702 583 691 c 0,24,25
 610 679 610 679 628 664 c 0,26,27
 649 645 649 645 659 618 c 0,28,29
 668 594 668 594 669 573 c 0,30,31
 670 549 670 549 660 522 c 0,32,33
 650 498 650 498 635 479 c 0,34,35
 621 461 621 461 605 448 c 0,36,37
 592 436 592 436 581 427 c 0,38,39
 566 415 566 415 551 406 c 256,40,41
 536 397 536 397 519 391 c 0,42,43
 505 385 505 385 476 375 c 0,44,45
 448 365 448 365 420 355 c 0,46,47
 394 345 394 345 374 336 c 2,48,-1
 352 326 l 2,49,50
 328 316 328 316 305 331 c 1,51,52
 305 311 305 311 304 291 c 0,53,54
 303 262 303 262 302 230 c 0,55,56
 301 199 301 199 302 174 c 0,57,58
 302 148 302 148 303 131 c 0,59,60
 304 112 304 112 305 93 c 0,61,62
 306 76 306 76 307 69 c 2,63,-1
 307 62 l 2,64,65
 309 42 309 42 296 27.5 c 128,-1,66
 283 13 283 13 264 11.5 c 128,-1,67
 245 10 245 10 230 22.5 c 128,-1,68
 215 35 215 35 213 54 c 2,69,-1
 213 62 l 2,70,71
 212 70 212 70 211 89 c 0,72,73
 211 107 211 107 210 125 c 0,74,75
 209 144 209 144 208 172 c 256,76,77
 207 200 207 200 208 233 c 0,78,79
 209 264 209 264 210 294 c 0,80,81
 211 323 211 323 212 352 c 0,82,83
 212 380 212 380 212 410 c 0,84,85
 212 441 212 441 212 467 c 0,86,87
 212 494 212 494 212 519 c 0,88,89
 212 530 212 530 212 539 c 1,90,91
 198 530 198 530 186 520 c 0,92,93
 163 502 163 502 146 486 c 0,94,95
 135 476 135 476 132 470 c 2,96,-1
 126 458 l 2,97,98
 118 441 118 441 99.5 434.5 c 128,-1,0
 81 428 81 428 63.5 436 c 128,-1,1
306 408 m 1,99,100
 310 410 310 410 313 412 c 2,101,-1
 335 422 l 2,102,103
 359 432 359 432 388 443 c 0,104,105
 417 453 417 453 444 463 c 128,-1,106
 471 473 471 473 485 478 c 0,107,108
 495 482 495 482 504 487 c 0,109,110
 512 492 512 492 521 499 c 0,111,112
 532 508 532 508 544 519 c 0,113,114
 553 527 553 527 561 537 c 0,115,116
 568 545 568 545 572 556 c 0,117,118
 575 564 575 564 575 568 c 0,119,120
 575 575 575 575 571 585 c 0,121,122
 569 591 569 591 566 593 c 0,123,124
 559 599 559 599 546 605 c 0,125,126
 532 611 532 611 517 613 c 0,127,128
 497 615 497 615 471 615 c 0,129,130
 444 615 444 615 417 613 c 0,131,132
 389 611 389 611 367 609 c 0,133,134
 354 608 354 608 335 598 c 0,135,136
 318 590 318 590 303 583 c 1,137,138
 304 569 304 569 305 559 c 0,139,140
 306 546 306 546 306 520 c 0,141,142
 306 495 306 495 306 467 c 0,143,144
 306 441 306 441 306 410 c 2,145,-1
 306 408 l 1,99,100
EndSplineSet
EndChar

StartChar: Q
Encoding: 81 81 52
Width: 639
Flags: W
LayerCount: 2
Fore
SplineSet
337 169 m 128,-1,1
 351 182 351 182 371 181 c 128,-1,2
 391 180 391 180 404 166 c 2,3,-1
 414 154 l 2,4,5
 416 151 416 151 419 149 c 0,6,7
 421 151 421 151 422 154 c 0,8,9
 436 175 436 175 446 198 c 0,10,11
 456 219 456 219 460 236 c 128,-1,12
 464 253 464 253 465 276 c 0,13,14
 467 301 467 301 467 324 c 0,15,16
 466 346 466 346 464 367 c 0,17,18
 461 389 461 389 457 412 c 0,19,20
 452 436 452 436 447 456 c 0,21,22
 442 474 442 474 436 490 c 0,23,24
 431 503 431 503 422 515 c 0,25,26
 412 528 412 528 401 538 c 256,27,28
 390 548 390 548 377 556 c 0,29,30
 368 561 368 561 355 567 c 1,31,32
 332 552 332 552 308 564 c 2,33,-1
 301 568 l 2,34,35
 298 567 298 567 296 566 c 0,36,37
 277 557 277 557 265 552 c 0,38,39
 257 549 257 549 246 543 c 0,40,41
 235 538 235 538 223 529 c 0,42,43
 212 522 212 522 202 511 c 0,44,45
 191 499 191 499 182 485 c 256,46,47
 173 471 173 471 166 456 c 0,48,49
 158 440 158 440 151 420 c 0,50,51
 144 401 144 401 140 382 c 128,-1,52
 136 363 136 363 134 341 c 256,53,54
 132 319 132 319 131.5 297 c 128,-1,55
 131 275 131 275 132 253 c 0,56,57
 133 233 133 233 136 215 c 0,58,59
 139 198 139 198 145 180 c 0,60,61
 152 159 152 159 159 142 c 0,62,63
 164 128 164 128 170 117 c 0,64,65
 175 107 175 107 185 97 c 0,66,67
 194 86 194 86 203 79 c 0,68,69
 214 72 214 72 226 66 c 0,70,71
 234 62 234 62 243 60 c 0,72,73
 254 59 254 59 267 60 c 0,74,75
 282 61 282 61 298 65 c 0,76,77
 315 69 315 69 332 76 c 0,78,79
 341 80 341 80 350 85 c 1,80,81
 347 88 347 88 344 91 c 2,82,-1
 334 103 l 2,83,84
 321 117 321 117 322 136.5 c 128,-1,0
 323 156 323 156 337 169 c 128,-1,1
302 680 m 0,85,86
 320 682 320 682 336 678 c 0,87,88
 349 674 349 674 379 661 c 0,89,90
 407 648 407 648 426 636 c 0,91,92
 446 624 446 624 464 608 c 256,93,94
 482 592 482 592 498 570 c 256,95,96
 514 548 514 548 523 525 c 0,97,98
 531 504 531 504 538 480 c 0,99,100
 544 457 544 457 549 430 c 256,101,102
 554 403 554 403 557 378 c 0,103,104
 560 352 560 352 561 325 c 0,105,106
 561 299 561 299 559 270 c 0,107,108
 557 239 557 239 551 213.5 c 128,-1,109
 545 188 545 188 532 159 c 256,110,111
 519 130 519 130 501 103 c 0,112,113
 495 94 495 94 489 86 c 1,114,115
 497 79 497 79 505 72 c 0,116,117
 518 60 518 60 531 47 c 0,118,119
 543 34 543 34 556 20 c 0,120,121
 570 4 570 4 583 -13 c 2,122,-1
 594 -29 l 2,123,124
 605 -45 605 -45 602 -64 c 128,-1,125
 599 -83 599 -83 583 -94.5 c 128,-1,126
 567 -106 567 -106 548 -102.5 c 128,-1,127
 529 -99 529 -99 517 -84 c 2,128,-1
 506 -68 l 2,129,130
 497 -55 497 -55 486 -43 c 0,131,132
 474 -30 474 -30 463 -19 c 0,133,134
 453 -8 453 -8 442 2 c 0,135,136
 433 10 433 10 423 19 c 0,137,138
 420 17 420 17 418 15 c 0,139,140
 394 1 394 1 370 -10 c 0,141,142
 345 -21 345 -21 321 -26 c 0,143,144
 297 -32 297 -32 275 -34 c 0,145,146
 251 -36 251 -36 230 -33 c 0,147,148
 206 -29 206 -29 184 -18 c 0,149,150
 165 -9 165 -9 149 3 c 0,151,152
 131 15 131 15 114 34 c 256,153,154
 97 53 97 53 87 72 c 0,155,156
 78 90 78 90 70 110 c 0,157,158
 64 127 64 127 56 149 c 0,159,160
 47 174 47 174 43 199 c 0,161,162
 39 223 39 223 38 248 c 256,163,164
 37 273 37 273 37.5 298.5 c 128,-1,165
 38 324 38 324 40 350 c 0,166,167
 42 377 42 377 48 402.5 c 128,-1,168
 54 428 54 428 63 452 c 0,169,170
 71 476 71 476 81 496 c 0,171,172
 90 516 90 516 103 536 c 0,173,174
 117 557 117 557 133 575 c 0,175,176
 150 593 150 593 169 606 c 0,177,178
 187 619 187 619 203 627 c 256,179,180
 219 635 219 635 231 640 c 0,181,182
 233 641 233 641 233 642 c 2,183,-1
 240 647 l 2,184,185
 249 655 249 655 263 664 c 0,186,187
 283 677 283 677 302 680 c 0,85,86
EndSplineSet
EndChar

StartChar: R
Encoding: 82 82 53
Width: 696
Flags: W
LayerCount: 2
Fore
SplineSet
63 505.5 m 128,-1,1
 46 514 46 514 39.5 532.5 c 128,-1,2
 33 551 33 551 42 568 c 2,3,-1
 48 580 l 2,4,5
 57 599 57 599 83 623 c 0,6,7
 105 643 105 643 129 659 c 0,8,9
 155 677 155 677 190 690 c 0,10,11
 223 703 223 703 249 709 c 0,12,13
 267 713 267 713 293 722 c 0,14,15
 327 735 327 735 356 739 c 0,16,17
 382 743 382 743 408 744 c 0,18,19
 433 744 433 744 459 744 c 0,20,21
 496 744 496 744 522 731 c 0,22,23
 538 724 538 724 556 715 c 0,24,25
 577 705 577 705 597 688 c 0,26,27
 619 671 619 671 632 650 c 0,28,29
 646 630 646 630 654 604 c 0,30,31
 663 573 663 573 657 542 c 0,32,33
 652 517 652 517 638 489 c 256,34,35
 624 461 624 461 603 437 c 0,36,37
 584 415 584 415 557 394 c 0,38,39
 532 375 532 375 507 357 c 0,40,41
 501 353 501 353 496 350 c 1,42,43
 503 343 503 343 508 336 c 0,44,45
 528 313 528 313 538 287 c 0,46,47
 545 268 545 268 551 245 c 0,48,49
 557 225 557 225 563 206 c 0,50,51
 569 186 569 186 575 166 c 0,52,53
 579 149 579 149 592.5 114.5 c 128,-1,54
 606 80 606 80 614 64 c 0,55,56
 621 49 621 49 629 37 c 2,57,-1
 639 23 l 2,58,59
 649 7 649 7 645.5 -12.5 c 128,-1,60
 642 -32 642 -32 626 -42.5 c 128,-1,61
 610 -53 610 -53 591 -49.5 c 128,-1,62
 572 -46 572 -46 561 -30 c 2,63,-1
 551 -16 l 2,64,65
 540 1 540 1 529 23 c 0,66,67
 519 43 519 43 504.5 81 c 128,-1,68
 490 119 490 119 484 141 c 0,69,70
 479 160 479 160 473 178 c 0,71,72
 467 198 467 198 461 220 c 0,73,74
 455 239 455 239 450 255 c 0,75,76
 446 265 446 265 437 275 c 0,77,78
 425 290 425 290 415 298 c 0,79,80
 413 300 413 300 411 301 c 0,81,82
 389 290 389 290 372 284 c 256,83,84
 355 278 355 278 342 276 c 0,85,86
 319 272 319 272 298 282 c 0,87,88
 293 284 293 284 288 287 c 1,89,90
 284 258 284 258 279 226 c 0,91,92
 274 197 274 197 272 174 c 0,93,94
 271 148 271 148 270.5 124 c 128,-1,95
 270 100 270 100 270 78 c 2,96,-1
 272 64 l 1,97,-1
 279 50 l 2,98,99
 287 33 287 33 281 14.5 c 128,-1,100
 275 -4 275 -4 257.5 -12.5 c 128,-1,101
 240 -21 240 -21 221.5 -15 c 128,-1,102
 203 -9 203 -9 195 8 c 2,103,-1
 188 21 l 2,104,105
 176 45 176 45 176 78 c 0,106,107
 176 101 176 101 176.5 126 c 128,-1,108
 177 151 177 151 179 178 c 0,109,110
 180 208 180 208 186 242 c 0,111,112
 191 273 191 273 195 301 c 0,113,114
 199 331 199 331 203 364 c 0,115,116
 207 396 207 396 209 417 c 0,117,118
 210 439 210 439 210 463 c 0,119,120
 211 488 211 488 211 512 c 0,121,122
 212 535 212 535 212 570 c 0,123,124
 212 586 212 586 212 598 c 1,125,126
 195 591 195 591 182 582 c 0,127,128
 163 569 163 569 146 553 c 0,129,130
 135 543 135 543 132 538 c 2,131,-1
 126 526 l 2,132,133
 117 509 117 509 98.5 503 c 128,-1,0
 80 497 80 497 63 505.5 c 128,-1,1
300 378 m 1,134,135
 321 393 321 393 343 399 c 256,136,137
 365 405 365 405 389 403 c 0,138,139
 395 403 395 403 402 402 c 0,140,141
 406 404 406 404 410 406 c 0,142,143
 431 419 431 419 453 434 c 0,144,145
 476 450 476 450 498 468 c 0,146,147
 519 484 519 484 533 500 c 0,148,149
 546 514 546 514 554 531 c 128,-1,150
 562 548 562 548 565 561 c 0,151,152
 566 568 566 568 564 577 c 0,153,154
 560 590 560 590 554 598 c 0,155,156
 549 606 549 606 538 615 c 0,157,158
 526 625 526 625 514 631 c 0,159,160
 497 639 497 639 481 647 c 0,161,162
 474 650 474 650 459 650 c 0,163,164
 434 650 434 650 411 650 c 0,165,166
 390 649 390 649 369 646 c 0,167,168
 351 644 351 644 327 635 c 0,169,170
 316 630 316 630 305 627 c 1,171,-1
 305 624 l 2,172,173
 307 606 307 606 306 569 c 0,174,175
 306 533 306 533 305 509 c 0,176,177
 305 485 305 485 304 461 c 0,178,179
 304 435 304 435 302 412 c 0,180,181
 302 397 302 397 300 378 c 1,134,135
EndSplineSet
EndChar

StartChar: S
Encoding: 83 83 54
Width: 644
Flags: W
LayerCount: 2
Fore
SplineSet
552 425.5 m 128,-1,1
 534 419 534 419 516 427.5 c 128,-1,2
 498 436 498 436 492 454 c 2,3,-1
 489 462 l 2,4,5
 486 470 486 470 481 482 c 0,6,7
 477 492 477 492 473 502 c 0,8,9
 467 515 467 515 461 530 c 0,10,11
 455 543 455 543 448 557 c 0,12,13
 442 568 442 568 435 577 c 0,14,15
 427 587 427 587 415 599 c 0,16,17
 404 609 404 609 391 617 c 0,18,19
 377 625 377 625 362 630 c 0,20,21
 349 635 349 635 334 637 c 0,22,23
 322 638 322 638 306 634 c 0,24,25
 285 628 285 628 269 621 c 0,26,27
 254 615 254 615 235 601 c 0,28,29
 215 585 215 585 200 570 c 0,30,31
 187 558 187 558 177 538 c 0,32,33
 164 513 164 513 155 493 c 0,34,35
 147 474 147 474 141 450 c 256,36,37
 135 426 135 426 132 405 c 0,38,39
 130 385 130 385 132 363 c 0,40,41
 133 340 133 340 137 324 c 0,42,43
 139 312 139 312 145 301 c 0,44,45
 152 289 152 289 159 281 c 0,46,47
 165 274 165 274 174 267 c 0,48,49
 182 262 182 262 194 259 c 0,50,51
 208 256 208 256 232 256 c 0,52,53
 260 257 260 257 283 262 c 0,54,55
 311 267 311 267 341 271 c 0,56,57
 369 274 369 274 395 276 c 0,58,59
 423 279 423 279 448.5 278.5 c 128,-1,60
 474 278 474 278 494 275 c 0,61,62
 521 271 521 271 541 259 c 0,63,64
 559 249 559 249 574 235 c 0,65,66
 589 220 589 220 598 201 c 0,67,68
 609 178 609 178 607 149 c 0,69,70
 604 122 604 122 589 96 c 0,71,72
 576 75 576 75 553 50 c 0,73,74
 527 24 527 24 492 6 c 0,75,76
 462 -9 462 -9 426 -23 c 0,77,78
 387 -39 387 -39 353 -42 c 0,79,80
 322 -45 322 -45 292 -45 c 0,81,82
 260 -44 260 -44 235 -37 c 0,83,84
 213 -31 213 -31 193 -22 c 0,85,86
 176 -14 176 -14 165 -9 c 0,87,88
 153 -4 153 -4 143 1 c 2,89,-1
 133 6 l 2,90,91
 116 14 116 14 109.5 32.5 c 128,-1,92
 103 51 103 51 111.5 68.5 c 128,-1,93
 120 86 120 86 138.5 92.5 c 128,-1,94
 157 99 157 99 174 91 c 2,95,-1
 183 86 l 2,96,97
 192 82 192 82 204 77 c 0,98,99
 215 71 215 71 232 63 c 0,100,101
 244 58 244 58 259 54 c 0,102,103
 273 50 273 50 295 49 c 0,104,105
 319 49 319 49 343 51 c 0,106,107
 364 53 364 53 392 64 c 0,108,109
 424 77 424 77 450 90 c 0,110,111
 471 100 471 100 485 115 c 0,112,113
 501 132 501 132 508 144 c 0,114,115
 513 152 513 152 513 158 c 0,116,117
 513 160 513 160 513 161 c 0,118,119
 511 164 511 164 508 168 c 0,120,121
 502 173 502 173 495 178 c 0,122,123
 490 180 490 180 481 182 c 0,124,125
 466 184 466 184 446 184.5 c 128,-1,126
 426 185 426 185 404 183 c 0,127,128
 379 181 379 181 352 177 c 0,129,130
 326 174 326 174 300 169 c 0,131,132
 270 163 270 163 235 162 c 0,133,134
 198 161 198 161 172 168 c 0,135,136
 144 174 144 174 122 189 c 0,137,138
 102 203 102 203 87 219 c 0,139,140
 74 235 74 235 62 256 c 0,141,142
 50 279 50 279 45 304 c 0,143,144
 40 326 40 326 38 356 c 0,145,146
 36 387 36 387 39 416 c 0,147,148
 42 443 42 443 50 473 c 0,149,150
 58 505 58 505 69 530 c 0,151,152
 79 554 79 554 94 581 c 0,153,154
 111 614 111 614 133 637 c 0,155,156
 153 656 153 656 179 676 c 0,157,158
 207 697 207 697 232 708 c 0,159,160
 255 717 255 717 282 725 c 0,161,162
 315 733 315 733 343 730 c 0,163,164
 369 728 369 728 394 719 c 0,165,166
 417 711 417 711 439 698 c 0,167,168
 462 685 462 685 480 667 c 0,169,170
 497 651 497 651 509 636 c 0,171,172
 522 619 522 619 532 600 c 0,173,174
 540 583 540 583 547 567 c 0,175,176
 553 553 553 553 558 542 c 0,177,178
 564 529 564 529 570 514 c 0,179,180
 574 502 574 502 577 494 c 2,181,-1
 580 486 l 2,182,183
 587 468 587 468 578.5 450 c 128,-1,0
 570 432 570 432 552 425.5 c 128,-1,1
EndSplineSet
EndChar

StartChar: T
Encoding: 84 84 55
Width: 786
Flags: W
LayerCount: 2
Fore
SplineSet
37 586 m 128,-1,1
 37 605 37 605 51 619 c 128,-1,2
 65 633 65 633 84 633 c 2,3,-1
 332 633 l 1,4,5
 344 641 344 641 358 641 c 256,6,7
 372 641 372 641 384 633 c 1,8,9
 402 634 402 634 415 634 c 0,10,11
 441 635 441 635 467 640 c 0,12,13
 496 645 496 645 524 651 c 0,14,15
 555 658 555 658 588 660 c 0,16,17
 619 663 619 663 647 664 c 0,18,19
 675 666 675 666 689 666 c 2,20,-1
 702 666 l 2,21,22
 721 666 721 666 735 652.5 c 128,-1,23
 749 639 749 639 749.5 619.5 c 128,-1,24
 750 600 750 600 736 586 c 128,-1,25
 722 572 722 572 703 572 c 2,26,-1
 690 572 l 2,27,28
 678 572 678 572 652 570 c 0,29,30
 625 569 625 569 595 567 c 0,31,32
 568 565 568 565 543 559 c 0,33,34
 515 553 515 553 484 548 c 0,35,36
 451 541 451 541 418 540 c 0,37,38
 412 540 412 540 404 540 c 1,39,40
 404 537 404 537 404 533 c 0,41,42
 403 508 403 508 401 485 c 0,43,44
 400 455 400 455 399 430 c 0,45,46
 397 401 397 401 395 374 c 0,47,48
 392 345 392 345 387 316 c 256,49,50
 382 287 382 287 378 261 c 0,51,52
 374 233 374 233 371 209 c 0,53,54
 368 186 368 186 366 159.5 c 128,-1,55
 364 133 364 133 364 112 c 0,56,57
 364 90 364 90 364 68 c 0,58,59
 363 48 363 48 365 33 c 0,60,61
 366 17 366 17 367 7 c 2,62,-1
 368 -3 l 2,63,64
 370 -22 370 -22 357.5 -37 c 128,-1,65
 345 -52 345 -52 326 -54 c 128,-1,66
 307 -56 307 -56 291.5 -44 c 128,-1,67
 276 -32 276 -32 274 -12 c 2,68,-1
 273 -3 l 2,69,70
 272 8 272 8 271 25 c 0,71,72
 269 44 269 44 270 69 c 0,73,74
 270 91 270 91 270 114 c 256,75,76
 270 137 270 137 272 166 c 128,-1,77
 274 195 274 195 278 221 c 0,78,79
 281 246 281 246 285 274 c 0,80,81
 289 303 289 303 294 332 c 0,82,83
 299 357 299 357 301 382 c 256,84,85
 303 407 303 407 305 435 c 0,86,87
 306 461 306 461 308 490 c 0,88,89
 310 536 310 536 310 538 c 2,90,91
 310 538 310 538 310 539 c 2,92,-1
 84 539 l 2,93,94
 65 539 65 539 51 553 c 128,-1,0
 37 567 37 567 37 586 c 128,-1,1
EndSplineSet
EndChar

StartChar: U
Encoding: 85 85 56
Width: 595
Flags: W
LayerCount: 2
Fore
SplineSet
121 701.5 m 128,-1,1
 139 695 139 695 147.5 677.5 c 128,-1,2
 156 660 156 660 149 642 c 2,3,-1
 147 634 l 2,4,5
 145 630 145 630 143 619 c 0,6,7
 141 607 141 607 139 590 c 0,8,9
 136 573 136 573 135 551 c 0,10,11
 133 529 133 529 133 504 c 0,12,13
 132 478 132 478 132 455 c 0,14,15
 131 433 131 433 131 406 c 0,16,17
 131 380 131 380 132.5 352.5 c 128,-1,18
 134 325 134 325 137 297 c 0,19,20
 139 273 139 273 144 254 c 0,21,22
 151 230 151 230 159 206 c 0,23,24
 165 183 165 183 172 166 c 0,25,26
 178 152 178 152 186 140 c 0,27,28
 194 127 194 127 203 117 c 256,29,30
 212 107 212 107 222 99 c 256,31,32
 232 91 232 91 241 86 c 0,33,34
 248 82 248 82 261 78 c 0,35,36
 272 74 272 74 285 74 c 0,37,38
 298 73 298 73 312 75 c 0,39,40
 328 78 328 78 344 83 c 0,41,42
 357 88 357 88 370 96 c 0,43,44
 385 104 385 104 396 114 c 0,45,46
 406 123 406 123 418 139 c 0,47,48
 430 154 430 154 436 170 c 0,49,50
 443 190 443 190 448 212 c 0,51,52
 454 235 454 235 457 260 c 0,53,54
 461 286 461 286 463 310 c 0,55,56
 465 332 465 332 464 349 c 0,57,58
 463 368 463 368 460 391 c 128,-1,59
 457 414 457 414 454 433 c 0,60,61
 450 452 450 452 446 472 c 0,62,63
 442 495 442 495 440 516 c 0,64,65
 438 538 438 538 440 570 c 0,66,67
 441 605 441 605 447 620 c 2,68,-1
 450 628 l 2,69,70
 456 646 456 646 473.5 654.5 c 128,-1,71
 491 663 491 663 509.5 656.5 c 128,-1,72
 528 650 528 650 536.5 632.5 c 128,-1,73
 545 615 545 615 538 597 c 2,74,-1
 536 590 l 2,75,76
 534 583 534 583 534 565 c 0,77,78
 532 540 532 540 534 524 c 0,79,80
 535 508 535 508 538 490 c 0,81,82
 542 470 542 470 546 450 c 0,83,84
 550 428 550 428 553 402 c 0,85,86
 557 376 557 376 558 354 c 0,87,88
 559 330 559 330 557 302 c 0,89,90
 554 275 554 275 550 247 c 0,91,92
 546 218 546 218 540 190 c 0,93,94
 533 162 533 162 524 138 c 0,95,96
 513 109 513 109 494 83 c 0,97,98
 476 59 476 59 457 42 c 0,99,100
 439 27 439 27 419 15 c 0,101,102
 397 2 397 2 373 -6 c 0,103,104
 351 -13 351 -13 328 -17 c 0,105,106
 304 -22 304 -22 280 -20 c 0,107,108
 254 -19 254 -19 231 -11 c 0,109,110
 209 -4 209 -4 194 5 c 0,111,112
 180 13 180 13 165 25 c 0,113,114
 148 37 148 37 133 54 c 0,115,116
 119 70 119 70 106 89 c 0,117,118
 94 109 94 109 85 131 c 0,119,120
 77 151 77 151 69 178 c 256,121,122
 61 205 61 205 54 228 c 0,123,124
 46 256 46 256 43 289 c 0,125,126
 40 318 40 318 38 347 c 0,127,128
 37 377 37 377 37 406 c 0,129,130
 37 434 37 434 37.5 457 c 128,-1,131
 38 480 38 480 39 506 c 0,132,133
 39 533 39 533 41 557 c 0,134,135
 43 582 43 582 45 602 c 0,136,137
 48 622 48 622 51 638 c 0,138,139
 54 655 54 655 58 666 c 2,140,-1
 61 673 l 2,141,142
 67 691 67 691 85 699.5 c 128,-1,0
 103 708 103 708 121 701.5 c 128,-1,1
EndSplineSet
EndChar

StartChar: V
Encoding: 86 86 57
Width: 684
Flags: W
LayerCount: 2
Fore
SplineSet
50.5 674.5 m 128,-1,1
 64 688 64 688 84 688 c 128,-1,2
 104 688 104 688 117 674 c 2,3,-1
 125 666 l 2,4,5
 139 653 139 653 150 631 c 0,6,7
 159 616 159 616 168 599 c 0,8,9
 180 579 180 579 191 549 c 0,10,11
 200 523 200 523 209 499 c 0,12,13
 217 476 217 476 225 454 c 0,14,15
 235 429 235 429 244 401 c 0,16,17
 252 376 252 376 260 357 c 0,18,19
 270 331 270 331 279 306 c 0,20,21
 287 282 287 282 298 256 c 0,22,23
 309 228 309 228 315 207 c 0,24,25
 319 197 319 197 323 187 c 1,26,27
 326 201 326 201 331 216 c 0,28,29
 339 245 339 245 347 270 c 0,30,31
 355 298 355 298 367 328 c 0,32,33
 379 355 379 355 390.5 382.5 c 128,-1,34
 402 410 402 410 415.5 440.5 c 128,-1,35
 429 471 429 471 443 500 c 0,36,37
 456 529 456 529 465 551 c 0,38,39
 476 574 476 574 489 598 c 0,40,41
 504 624 504 624 527 649 c 0,42,43
 553 676 553 676 573 684 c 2,44,-1
 583 688 l 2,45,46
 601 695 601 695 619 687 c 128,-1,47
 637 679 637 679 644 661 c 128,-1,48
 651 643 651 643 643 625.5 c 128,-1,49
 635 608 635 608 617 601 c 2,50,-1
 610 598 l 2,51,52
 604 593 604 593 595 584 c 0,53,54
 580 568 580 568 571 552 c 0,55,56
 560 532 560 532 551 513 c 0,57,58
 542 491 542 491 528 461 c 0,59,60
 515 432 515 432 502 403 c 0,61,62
 489 373 489 373 477 346 c 128,-1,63
 465 319 465 319 454 292 c 0,64,65
 444 267 444 267 437 243 c 0,66,67
 429 217 429 217 421 189 c 0,68,69
 413 164 413 164 408 139 c 0,70,71
 403 113 403 113 400 90 c 0,72,73
 395 63 395 63 386 37 c 0,74,75
 384 35 384 35 382 31.5 c 128,-1,76
 380 28 380 28 373 20 c 128,-1,77
 366 12 366 12 359 5.5 c 128,-1,78
 352 -1 352 -1 342 -6.5 c 128,-1,79
 332 -12 332 -12 323.5 -12 c 128,-1,80
 315 -12 315 -12 305 -4.5 c 128,-1,81
 295 3 295 3 288 19 c 0,82,83
 284 27 284 27 281 34 c 0,84,85
 277 41 277 41 273 51 c 256,86,87
 269 61 269 61 264 75 c 0,88,89
 261 85 261 85 254 101 c 0,90,91
 247 119 247 119 240 139 c 0,92,93
 233 158 233 158 226 178 c 0,94,95
 220 195 220 195 210 221 c 0,96,97
 199 249 199 249 190 275 c 0,98,99
 182 298 182 298 173 321 c 0,100,101
 163 344 163 344 154 373 c 0,102,103
 146 398 146 398 138 419 c 0,104,105
 128 443 128 443 120 468 c 0,106,107
 112 491 112 491 102 517 c 0,108,109
 94 539 94 539 86 553 c 0,110,111
 76 570 76 570 68 586 c 0,112,113
 62 596 62 596 59 600 c 2,114,-1
 50 608 l 2,115,116
 37 622 37 622 37 641.5 c 128,-1,0
 37 661 37 661 50.5 674.5 c 128,-1,1
EndSplineSet
EndChar

StartChar: W
Encoding: 87 87 58
Width: 774
Flags: W
LayerCount: 2
Fore
SplineSet
69 694.5 m 128,-1,1
 87 701 87 701 104.5 692 c 128,-1,2
 122 683 122 683 129 665 c 2,3,-1
 131 658 l 2,4,5
 133 651 133 651 136 641 c 0,6,7
 140 629 140 629 144 616 c 0,8,9
 148 602 148 602 153 577 c 0,10,11
 158 553 158 553 162 531 c 0,12,13
 166 511 166 511 171 490 c 0,14,15
 177 466 177 466 181.5 435.5 c 128,-1,16
 186 405 186 405 187 373 c 0,17,18
 189 345 189 345 193 318 c 0,19,20
 196 292 196 292 202 269 c 0,21,22
 207 246 207 246 214 224 c 0,23,24
 220 204 220 204 225 189 c 1,25,26
 231 219 231 219 237 245 c 0,27,28
 243 270 243 270 249 301 c 0,29,30
 256 331 256 331 264 359 c 0,31,32
 271 386 271 386 279 415 c 0,33,34
 286 441 286 441 290 464 c 0,35,36
 294 488 294 488 296 507 c 0,37,38
 299 528 299 528 302 545 c 0,39,40
 306 562 306 562 309 574 c 0,41,42
 313 588 313 588 317 598 c 0,43,44
 325 618 325 618 346 631 c 0,45,46
 364 643 364 643 382 638.5 c 128,-1,47
 400 634 400 634 412 624 c 128,-1,48
 424 614 424 614 428 604 c 0,49,50
 437 586 437 586 441 563 c 0,51,52
 444 545 444 545 448 523 c 0,53,54
 451 503 451 503 456 482 c 0,55,56
 461 456 461 456 465 431 c 0,57,58
 469 409 469 409 473 387 c 0,59,60
 478 365 478 365 485 337 c 0,61,62
 493 308 493 308 500 279 c 256,63,64
 507 250 507 250 512 222 c 0,65,66
 513 217 513 217 514 211 c 1,67,68
 515 218 515 218 516 225 c 0,69,70
 526 285 526 285 533 316 c 0,71,72
 540 350 540 350 565 428 c 0,73,74
 590 505 590 505 602 537 c 0,75,76
 614 570 614 570 632 606 c 2,77,-1
 649 639 l 2,78,79
 657 656 657 656 675.5 662.5 c 128,-1,80
 694 669 694 669 711.5 660.5 c 128,-1,81
 729 652 729 652 735 633 c 128,-1,82
 741 614 741 614 733 597 c 2,83,-1
 716 564 l 2,84,85
 700 533 700 533 690 504 c 0,86,87
 679 474 679 474 655 399 c 0,88,89
 631 326 631 326 625 298 c 0,90,91
 619 268 619 268 609 209 c 0,92,93
 599 149 599 149 595 123.5 c 128,-1,94
 591 98 591 98 588 72 c 0,95,96
 584 42 584 42 577 19 c 0,97,98
 569 -12 569 -12 555 -27 c 0,99,100
 537 -46 537 -46 506.5 -39.5 c 128,-1,101
 476 -33 476 -33 468 -10 c 0,102,103
 463 1 463 1 460 15 c 0,104,105
 457 27 457 27 453 44 c 0,106,107
 450 59 450 59 447 75 c 0,108,109
 445 89 445 89 439 110 c 0,110,111
 433 133 433 133 429 156 c 0,112,113
 424 178 424 178 419 206 c 0,114,115
 414 231 414 231 408 258 c 256,116,117
 402 285 402 285 394 313 c 0,118,119
 386 343 386 343 381 368 c 0,120,121
 377 388 377 388 374 408 c 1,122,123
 372 399 372 399 369 390 c 0,124,125
 361 362 361 362 355 335 c 0,126,127
 348 309 348 309 341 280 c 0,128,129
 334 246 334 246 329 225 c 0,130,131
 323 200 323 200 318 173 c 256,132,133
 313 146 313 146 309 121 c 0,134,135
 304 94 304 94 299 71 c 0,136,137
 293 45 293 45 283 26 c 0,138,139
 269 -2 269 -2 245 -12 c 0,140,141
 229 -20 229 -20 203.5 -11.5 c 128,-1,142
 178 -3 178 -3 171 22 c 0,143,144
 170 29 170 29 167 39 c 0,145,146
 164 50 164 50 162 60 c 0,147,148
 159 72 159 72 155 89 c 0,149,150
 151 104 151 104 147 122 c 0,151,152
 142 140 142 140 137 155 c 0,153,154
 132 172 132 172 125 195 c 0,155,156
 117 220 117 220 110 247 c 0,157,158
 104 275 104 275 99 306 c 0,159,160
 95 336 95 336 94 368 c 0,161,162
 92 396 92 396 88 422 c 128,-1,163
 84 448 84 448 79 468 c 0,164,165
 74 491 74 491 70 513 c 0,166,167
 65 534 65 534 61 558 c 0,168,169
 56 580 56 580 53 591 c 0,170,171
 50 603 50 603 47 612 c 0,172,173
 44 622 44 622 42 628 c 2,174,-1
 39 635 l 2,175,176
 33 653 33 653 42 670.5 c 128,-1,0
 51 688 51 688 69 694.5 c 128,-1,1
EndSplineSet
EndChar

StartChar: X
Encoding: 88 88 59
Width: 640
Flags: W
LayerCount: 2
Fore
SplineSet
68 682 m 128,-1,1
 81 696 81 696 101 696 c 128,-1,2
 121 696 121 696 134 683 c 2,3,-1
 143 675 l 2,4,5
 154 664 154 664 166 647 c 0,6,7
 177 633 177 633 185 622 c 0,8,9
 195 609 195 609 213 583 c 0,10,11
 230 557 230 557 244 536 c 256,12,13
 258 515 258 515 271 498 c 0,14,15
 285 478 285 478 298 460 c 0,16,17
 309 441 309 441 323 419 c 1,18,19
 338 443 338 443 359 474 c 0,20,21
 384 510 384 510 409 536 c 0,22,23
 429 557 429 557 440 573 c 0,24,25
 455 594 455 594 471 613 c 0,26,27
 485 628 485 628 491 635 c 1,28,29
 491 635 491 635 491 636 c 0,30,31
 498 654 498 654 514 670 c 2,32,-1
 523 679 l 2,33,34
 536 693 536 693 556 693 c 128,-1,35
 576 693 576 693 589.5 679.5 c 128,-1,36
 603 666 603 666 603 646.5 c 128,-1,37
 603 627 603 627 590 613 c 2,38,-1
 581 604 l 2,39,40
 580 603 580 603 579 602 c 0,41,42
 572 585 572 585 562 573 c 0,43,44
 556 567 556 567 542 550 c 0,45,46
 529 536 529 536 517 519 c 0,47,48
 502 497 502 497 477 471 c 0,49,50
 457 451 457 451 437 421 c 0,51,52
 414 388 414 388 400 364 c 0,53,54
 389 347 389 347 376 329 c 1,55,56
 384 315 384 315 392 303 c 0,57,58
 402 289 402 289 424 255 c 0,59,60
 445 224 445 224 453 212 c 0,61,62
 460 201 460 201 467 192 c 0,63,64
 475 181 475 181 483 170.5 c 128,-1,65
 491 160 491 160 505.5 140.5 c 128,-1,66
 520 121 520 121 525 113 c 0,67,68
 533 102 533 102 537 91 c 2,69,-1
 540 85 l 2,70,71
 547 67 547 67 539 49 c 128,-1,72
 531 31 531 31 513.5 23.5 c 128,-1,73
 496 16 496 16 478 24 c 128,-1,74
 460 32 460 32 452 50 c 2,75,-1
 450 56 l 2,76,77
 449 57 449 57 448 59 c 0,78,79
 443 66 443 66 429 85 c 128,-1,80
 415 104 415 104 408 114 c 0,81,82
 400 124 400 124 392 135 c 0,83,84
 382 147 382 147 374 161 c 0,85,86
 366 172 366 172 346 203 c 0,87,88
 325 234 325 234 314 250 c 0,89,90
 314 251 314 251 313 252 c 1,91,92
 295 229 295 229 281 209 c 0,93,94
 263 183 263 183 239 157 c 0,95,96
 221 136 221 136 214 125 c 0,97,98
 203 108 203 108 187 86 c 0,99,100
 171 65 171 65 161 52 c 0,101,102
 148 33 148 33 129 18 c 2,103,-1
 114 5 l 2,104,105
 100 -7 100 -7 80.5 -5.5 c 128,-1,106
 61 -4 61 -4 48.5 10.5 c 128,-1,107
 36 25 36 25 37.5 44.5 c 128,-1,108
 39 64 39 64 53 77 c 2,109,-1
 68 89 l 2,110,111
 79 98 79 98 86 108 c 0,112,113
 96 122 96 122 112 142 c 0,114,115
 126 161 126 161 134 174 c 0,116,117
 145 193 145 193 170 220 c 0,118,119
 189 241 189 241 203 262 c 0,120,121
 221 288 221 288 245 317 c 0,122,123
 253 327 253 327 262 338 c 1,124,125
 253 353 253 353 242 371 c 0,126,127
 230 391 230 391 219 408 c 0,128,129
 208 424 208 424 195 442 c 0,130,131
 181 461 181 461 166 483 c 0,132,133
 151 506 151 506 135 530 c 0,134,135
 118 554 118 554 110 565 c 0,136,137
 101 577 101 577 91 591 c 0,138,139
 83 602 83 602 77 607 c 2,140,-1
 69 615 l 2,141,142
 55 629 55 629 55 648.5 c 128,-1,0
 55 668 55 668 68 682 c 128,-1,1
EndSplineSet
EndChar

StartChar: Y
Encoding: 89 89 60
Width: 574
Flags: W
LayerCount: 2
Fore
SplineSet
399 253 m 0,0,1
 396 247 396 247 392 238 c 0,2,3
 386 224 386 224 381 215 c 0,4,5
 355 158 355 158 344 135 c 0,6,7
 333 114 333 114 326 96 c 0,8,9
 318 75 318 75 310 59 c 0,10,11
 304 47 304 47 302 40 c 0,12,13
 299 33 299 33 298 27 c 2,14,-1
 296 20 l 2,15,16
 292 2 292 2 275 -8 c 128,-1,17
 258 -18 258 -18 239 -13.5 c 128,-1,18
 220 -9 220 -9 210 8 c 128,-1,19
 200 25 200 25 205 43 c 2,20,-1
 207 51 l 2,21,22
 209 60 209 60 213 71 c 0,23,24
 218 83 218 83 226 100 c 0,25,26
 232 113 232 113 239 131 c 0,27,28
 247 152 247 152 259 176 c 0,29,30
 267 192 267 192 283 227 c 0,31,32
 281 228 281 228 281 228 c 2,33,34
 267 232 267 232 254 240 c 0,35,36
 239 250 239 250 228 266 c 0,37,38
 220 276 220 276 207 296 c 0,39,40
 193 318 193 318 188 328 c 0,41,42
 182 337 182 337 169 364 c 0,43,44
 155 392 155 392 146 418 c 0,45,46
 142 432 142 432 137 438 c 0,47,48
 120 459 120 459 113 489 c 0,49,50
 109 504 109 504 101 523 c 0,51,52
 92 543 92 543 84 555 c 0,53,54
 74 571 74 571 62 589 c 0,55,56
 50 608 50 608 46 616 c 2,57,-1
 43 622 l 2,58,59
 33 639 33 639 39 657.5 c 128,-1,60
 45 676 45 676 61.5 685.5 c 128,-1,61
 78 695 78 695 97 689.5 c 128,-1,62
 116 684 116 684 125 667 c 2,63,-1
 129 661 l 2,64,65
 131 656 131 656 142 639 c 256,66,67
 153 622 153 622 162 607 c 0,68,69
 175 588 175 588 187 561 c 256,70,71
 199 534 199 534 204 510 c 0,72,73
 206 501 206 501 210 497 c 0,74,75
 226 478 226 478 236 447 c 0,76,77
 242 428 242 428 253 406 c 0,78,79
 265 382 265 382 270 374 c 0,80,81
 274 367 274 367 286 348 c 128,-1,82
 298 329 298 329 304 320 c 1,83,84
 304 320 304 320 305 320 c 0,85,86
 307 318 307 318 310 318 c 0,87,88
 311 317 311 317 316 317 c 256,89,90
 321 317 321 317 325 317 c 0,91,92
 330 327 330 327 332 333 c 0,93,94
 343 355 343 355 355 381 c 0,95,96
 367 409 367 409 378 432 c 0,97,98
 389 454 389 454 400 478 c 0,99,100
 412 504 412 504 426 526 c 0,101,102
 438 546 438 546 450 565 c 0,103,104
 453 568 453 568 462.5 566.5 c 128,-1,105
 472 565 472 565 485.5 559.5 c 128,-1,106
 499 554 499 554 511 548 c 128,-1,107
 523 542 523 542 531 536 c 128,-1,108
 539 530 539 530 538 528 c 0,109,110
 535 523 535 523 531 515 c 256,111,112
 527 507 527 507 523 498 c 0,113,114
 519 488 519 488 516 478 c 0,115,116
 513 465 513 465 508 451 c 0,117,118
 505 441 505 441 503 432 c 0,119,120
 500 422 500 422 498 411 c 0,121,122
 494 396 494 396 482 370 c 0,123,124
 472 347 472 347 464 331 c 0,125,126
 455 314 455 314 440 294 c 0,127,128
 424 272 424 272 399 253 c 0,0,1
EndSplineSet
EndChar

StartChar: Z
Encoding: 90 90 61
Width: 685
Flags: W
LayerCount: 2
Fore
SplineSet
127 275 m 0,0,1
 126 294 126 294 139 309 c 128,-1,2
 152 324 152 324 171 325 c 2,3,-1
 187 326 l 2,4,5
 202 326 202 326 220 328 c 0,6,7
 232 329 232 329 257 332 c 1,8,9
 270 347 270 347 284 362 c 0,10,11
 306 385 306 385 322 404 c 0,12,13
 340 425 340 425 365 450 c 0,14,15
 386 471 386 471 399 488 c 0,16,17
 415 507 415 507 427 523 c 0,18,19
 432 529 432 529 436 536 c 1,20,21
 425 536 425 536 415 537 c 0,22,23
 401 537 401 537 385 537 c 0,24,25
 368 538 368 538 342 538 c 0,26,27
 317 538 317 538 292 538 c 0,28,29
 266 539 266 539 238 539 c 0,30,31
 209 539 209 539 188.5 540.5 c 128,-1,32
 168 542 168 542 150 545 c 0,33,34
 131 548 131 548 115 552 c 0,35,36
 103 555 103 555 90 558 c 2,37,-1
 75 560 l 2,38,39
 57 564 57 564 45.5 580 c 128,-1,40
 34 596 34 596 37.5 615 c 128,-1,41
 41 634 41 634 57.5 645 c 128,-1,42
 74 656 74 656 93 653 c 2,43,-1
 107 650 l 2,44,45
 124 647 124 647 139 643 c 0,46,47
 150 640 150 640 164 638 c 0,48,49
 179 636 179 636 195 635 c 0,50,51
 212 633 212 633 239 633 c 0,52,53
 268 633 268 633 293 632 c 2,54,-1
 343 632 l 2,55,56
 369 632 369 632 386 631.5 c 128,-1,57
 403 631 403 631 418 631 c 0,58,59
 432 630 432 630 448 630 c 0,60,61
 465 629 465 629 474 629 c 0,62,63
 497 627 497 627 517 609 c 0,64,65
 539 591 539 591 543 563.5 c 128,-1,66
 547 536 547 536 528 504 c 0,67,68
 516 484 516 484 501 466 c 0,69,70
 488 449 488 449 473 430 c 0,71,72
 457 409 457 409 432 384 c 0,73,74
 412 363 412 363 397 346 c 1,75,76
 397 346 397 346 398 346 c 128,-1,77
 399 346 399 346 400 347 c 2,78,-1
 433 349 l 2,79,80
 453 351 453 351 468 338.5 c 128,-1,81
 483 326 483 326 484.5 307 c 128,-1,82
 486 288 486 288 473.5 273 c 128,-1,83
 461 258 461 258 442 256 c 2,84,-1
 408 253 l 2,85,86
 375 250 375 250 313 243 c 0,87,88
 308 243 308 243 304 242 c 0,89,90
 289 224 289 224 274 207 c 0,91,92
 256 184 256 184 241 166 c 0,93,94
 225 147 225 147 206 126 c 256,95,96
 187 105 187 105 173 89 c 0,97,98
 163 78 163 78 155 69 c 1,99,100
 159 69 159 69 162 68 c 0,101,102
 180 66 180 66 201 67 c 0,103,104
 223 68 223 68 248 71 c 0,105,106
 275 75 275 75 303 78 c 0,107,108
 331 82 331 82 362.5 84.5 c 128,-1,109
 394 87 394 87 420.5 88.5 c 128,-1,110
 447 90 447 90 472 91 c 0,111,112
 498 92 498 92 524 92 c 0,113,114
 549 92 549 92 575 92 c 2,115,-1
 601 92 l 2,116,117
 620 92 620 92 634 78.5 c 128,-1,118
 648 65 648 65 648 45.5 c 128,-1,119
 648 26 648 26 634.5 12 c 128,-1,120
 621 -2 621 -2 602 -2 c 2,121,-1
 576 -2 l 2,122,123
 550 -2 550 -2 525 -2 c 0,124,125
 499 -2 499 -2 475 -3 c 0,126,127
 450 -4 450 -4 425 -5.5 c 128,-1,128
 400 -7 400 -7 370.5 -9.5 c 128,-1,129
 341 -12 341 -12 314 -15 c 128,-1,130
 287 -18 287 -18 260 -22 c 0,131,132
 230 -26 230 -26 204 -27 c 0,133,134
 177 -28 177 -28 153 -25 c 0,135,136
 127 -23 127 -23 109 -16 c 0,137,138
 85 -8 85 -8 68 11 c 0,139,140
 42 38 42 38 47 67 c 0,141,142
 50 82 50 82 60 99 c 0,143,144
 68 112 68 112 80 126 c 0,145,146
 89 137 89 137 103 152 c 0,147,148
 117 168 117 168 135.5 188.5 c 128,-1,149
 154 209 154 209 168 226 c 0,150,151
 169 227 169 227 170.5 228.5 c 128,-1,152
 172 230 172 230 172 231 c 1,153,154
 154 231 154 231 141 244 c 128,-1,155
 128 257 128 257 127 275 c 0,0,1
EndSplineSet
EndChar

StartChar: bracketleft
Encoding: 91 91 62
Width: 366
Flags: W
LayerCount: 2
Fore
SplineSet
329 688 m 128,-1,1
 326 669 326 669 310 657.5 c 128,-1,2
 294 646 294 646 275 649 c 2,3,-1
 267 650 l 2,4,5
 256 652 256 652 246 655 c 0,6,7
 241 656 241 656 234 657 c 0,8,9
 225 658 225 658 213 659 c 128,-1,10
 201 660 201 660 190 660 c 0,11,12
 179 661 179 661 168 662 c 0,13,14
 158 662 158 662 151 663 c 1,15,16
 150 659 150 659 150 648 c 128,-1,17
 150 637 150 637 150 629 c 0,18,19
 151 610 151 610 152 590 c 0,20,21
 153 568 153 568 153 544 c 0,22,23
 153 522 153 522 154 497 c 256,24,25
 155 472 155 472 156 445 c 256,26,27
 157 418 157 418 157 389 c 0,28,29
 157 362 157 362 157 333 c 0,30,31
 157 303 157 303 154 271 c 0,32,33
 151 240 151 240 147.5 210.5 c 128,-1,34
 144 181 144 181 141 153 c 0,35,36
 138 126 138 126 136.5 99.5 c 128,-1,37
 135 73 135 73 135 50 c 0,38,39
 134 26 134 26 133.5 6.5 c 128,-1,40
 133 -13 133 -13 132 -29 c 0,41,42
 131 -44 131 -44 131 -56 c 0,43,44
 131 -67 131 -67 131 -75 c 1,45,46
 135 -74 135 -74 139 -73 c 0,47,48
 152 -71 152 -71 167 -68 c 0,49,50
 182 -66 182 -66 195 -63 c 0,51,52
 210 -60 210 -60 225 -59 c 2,53,-1
 238 -57 l 2,54,55
 257 -56 257 -56 272.5 -68.5 c 128,-1,56
 288 -81 288 -81 289.5 -100 c 128,-1,57
 291 -119 291 -119 279 -134 c 128,-1,58
 267 -149 267 -149 247 -151 c 2,59,-1
 234 -152 l 2,60,61
 224 -153 224 -153 213 -155 c 0,62,63
 200 -158 200 -158 184.5 -161 c 128,-1,64
 169 -164 169 -164 156 -166 c 0,65,66
 146 -168 146 -168 142 -169 c 0,67,68
 126 -175 126 -175 110 -175 c 0,69,70
 87 -175 87 -175 67 -161 c 0,71,72
 45 -145 45 -145 40 -119 c 0,73,74
 37 -107 37 -107 37 -94 c 0,75,76
 37 -87 37 -87 37 -78 c 0,77,78
 37 -68 37 -68 37 -55 c 0,79,80
 37 -41 37 -41 38 -25 c 256,81,82
 39 -9 39 -9 39.5 9.5 c 128,-1,83
 40 28 40 28 41 52 c 0,84,85
 41 77 41 77 42.5 105 c 128,-1,86
 44 133 44 133 47 163 c 0,87,88
 50 191 50 191 54 222 c 0,89,90
 57 252 57 252 60 281 c 0,91,92
 63 308 63 308 63 333 c 0,93,94
 63 361 63 361 63 388 c 256,95,96
 63 415 63 415 62 441 c 0,97,98
 61 469 61 469 60 495 c 128,-1,99
 59 521 59 521 59 543 c 256,100,101
 59 565 59 565 58 585 c 0,102,103
 57 607 57 607 56 626 c 0,104,105
 56 647 56 647 56 665 c 0,106,107
 57 685 57 685 60 698 c 0,108,109
 64 717 64 717 75 733 c 0,110,111
 96 761 96 761 128 759 c 0,112,113
 136 759 136 759 145 758 c 0,114,115
 151 757 151 757 157 757 c 0,116,117
 164 756 164 756 174 755 c 0,118,119
 185 755 185 755 195 754 c 0,120,121
 207 754 207 754 220.5 752.5 c 128,-1,122
 234 751 234 751 245 750 c 0,123,124
 258 748 258 748 269 746 c 0,125,126
 275 744 275 744 281 743 c 2,127,-1
 289 742 l 2,128,129
 308 739 308 739 320 723 c 128,-1,0
 332 707 332 707 329 688 c 128,-1,1
EndSplineSet
EndChar

StartChar: backslash
Encoding: 92 92 63
Width: 568
Flags: W
LayerCount: 2
Fore
SplineSet
62 757.5 m 128,-1,1
 79 766 79 766 98 760 c 128,-1,2
 117 754 117 754 126 737 c 2,3,-1
 131 727 l 2,4,5
 135 719 135 719 143 707 c 0,6,7
 151 694 151 694 159.5 680.5 c 128,-1,8
 168 667 168 667 178 649 c 0,9,10
 188 632 188 632 197 616 c 256,11,12
 206 600 206 600 216 582 c 0,13,14
 225 565 225 565 235 547 c 0,15,16
 245 530 245 530 254 513 c 0,17,18
 264 495 264 495 274 476 c 256,19,20
 284 457 284 457 294 436 c 0,21,22
 305 414 305 414 312 394 c 0,23,24
 319 376 319 376 327 357 c 0,25,26
 334 339 334 339 342 322 c 0,27,28
 351 303 351 303 359 285 c 0,29,30
 366 268 366 268 374 252 c 0,31,32
 383 233 383 233 390 213 c 0,33,34
 397 194 397 194 403 177 c 0,35,36
 409 162 409 162 414 148 c 0,37,38
 420 135 420 135 425 125 c 0,39,40
 431 114 431 114 438 102 c 0,41,42
 444 91 444 91 451 81 c 0,43,44
 460 69 460 69 466 60 c 256,45,46
 472 51 472 51 478 41 c 256,47,48
 484 31 484 31 489 22 c 0,49,50
 493 15 493 15 497 9 c 0,51,52
 501 2 501 2 508 -10 c 0,53,54
 513 -20 513 -20 519 -30 c 2,55,-1
 525 -41 l 2,56,57
 535 -58 535 -58 530 -77 c 128,-1,58
 525 -96 525 -96 508.5 -105.5 c 128,-1,59
 492 -115 492 -115 473 -110 c 128,-1,60
 454 -105 454 -105 444 -88 c 2,61,-1
 438 -77 l 2,62,63
 431 -65 431 -65 425 -54 c 0,64,65
 420 -45 420 -45 417 -40 c 0,66,67
 413 -34 413 -34 407 -24 c 0,68,69
 404 -18 404 -18 399 -10 c 0,70,71
 393 0 393 0 387 8 c 0,72,73
 382 16 382 16 374 27 c 0,74,75
 365 40 365 40 357 54 c 256,76,77
 349 68 349 68 342 81 c 0,78,79
 335 95 335 95 328 112 c 0,80,81
 321 128 321 128 315 146 c 0,82,83
 309 162 309 162 302 180 c 0,84,85
 296 196 296 196 289 211 c 0,86,87
 281 228 281 228 272 247 c 0,88,89
 265 264 265 264 257 283 c 0,90,91
 248 302 248 302 240 322 c 256,92,93
 232 342 232 342 225 360 c 0,94,95
 218 377 218 377 209 396 c 256,96,97
 200 415 200 415 191 432.5 c 128,-1,98
 182 450 182 450 172 467 c 256,99,100
 162 484 162 484 153 502 c 0,101,102
 143 519 143 519 134 536 c 0,103,104
 124 554 124 554 115 570 c 256,105,106
 106 586 106 586 96.5 602.5 c 128,-1,107
 87 619 87 619 80 631 c 0,108,109
 72 644 72 644 63 657 c 0,110,111
 53 672 53 672 47 684 c 2,112,-1
 42 694 l 2,113,114
 33 711 33 711 39 730 c 128,-1,0
 45 749 45 749 62 757.5 c 128,-1,1
EndSplineSet
EndChar

StartChar: bracketright
Encoding: 93 93 64
Width: 359
Flags: W
LayerCount: 2
Fore
SplineSet
37 705 m 128,-1,1
 37 724 37 724 51 738 c 128,-1,2
 65 752 65 752 84 752 c 2,3,-1
 95 752 l 2,4,5
 108 752 108 752 119 751 c 128,-1,6
 130 750 130 750 144 747 c 0,7,8
 152 746 152 746 165 746 c 0,9,10
 186 745 186 745 196 745 c 2,11,-1
 217 745 l 2,12,13
 219 745 219 745 220 745 c 0,14,15
 234 750 234 750 249 751 c 0,16,17
 259 752 259 752 267 752 c 0,18,19
 286 752 286 752 303 737.5 c 128,-1,20
 320 723 320 723 322 704 c 0,21,22
 323 695 323 695 323 685.5 c 128,-1,23
 323 676 323 676 321 662 c 0,24,25
 320 651 320 651 319 636 c 0,26,27
 318 619 318 619 316 598 c 0,28,29
 315 578 315 578 314 557 c 0,30,31
 312 537 312 537 311 514 c 0,32,33
 309 489 309 489 307 466 c 0,34,35
 306 444 306 444 305 422 c 0,36,37
 305 399 305 399 304 381 c 0,38,39
 304 364 304 364 304 335 c 2,40,41
 304 335 304 335 304 285 c 0,42,43
 304 261 304 261 304 236 c 256,44,45
 304 211 304 211 304 186 c 256,46,47
 304 161 304 161 303 137 c 0,48,49
 303 113 303 113 302 91 c 0,50,51
 302 69 302 69 302 49 c 0,52,53
 301 30 301 30 301 13 c 2,54,-1
 301 -21 l 2,55,56
 301 -33 301 -33 303 -40 c 0,57,58
 305 -54 305 -54 306 -67 c 0,59,60
 307 -78 307 -78 308 -85 c 0,61,62
 308 -93 308 -93 308.5 -103 c 128,-1,63
 309 -113 309 -113 309 -121 c 0,64,65
 309 -139 309 -139 298 -152.5 c 128,-1,66
 287 -166 287 -166 277 -170 c 128,-1,67
 267 -174 267 -174 258 -176 c 0,68,69
 230 -181 230 -181 207 -167 c 0,70,71
 206 -167 206 -167 204 -166 c 0,72,73
 192 -164 192 -164 181 -161 c 0,74,75
 171 -159 171 -159 156 -154 c 0,76,77
 148 -152 148 -152 142 -150 c 0,78,79
 135 -149 135 -149 129 -148 c 0,80,81
 122 -147 122 -147 116 -146 c 0,82,83
 112 -146 112 -146 108 -146 c 2,84,-1
 102 -146 l 2,85,86
 83 -146 83 -146 68.5 -132.5 c 128,-1,87
 54 -119 54 -119 54 -99.5 c 128,-1,88
 54 -80 54 -80 68 -66 c 128,-1,89
 82 -52 82 -52 101 -52 c 2,90,-1
 108 -52 l 2,91,92
 117 -52 117 -52 125 -53 c 0,93,94
 133 -53 133 -53 142 -55 c 0,95,96
 152 -56 152 -56 162 -58 c 0,97,98
 172 -61 172 -61 183 -64 c 0,99,100
 196 -68 196 -68 205 -70 c 0,101,102
 208 -71 208 -71 212 -72 c 1,103,104
 212 -65 212 -65 210 -57 c 0,105,106
 207 -42 207 -42 207 -21 c 2,107,-1
 207 13 l 2,108,109
 207 31 207 31 208 51 c 0,110,111
 208 70 208 70 208 92 c 0,112,113
 209 115 209 115 209 139 c 0,114,115
 210 162 210 162 210 186 c 0,116,117
 210 211 210 211 210 237 c 0,118,119
 210 261 210 261 210 285 c 2,120,-1
 210 335 l 2,121,122
 210 364 210 364 210 383 c 0,123,124
 211 402 211 402 211 424 c 0,125,126
 212 449 212 449 214 473 c 0,127,128
 215 496 215 496 217 519 c 0,129,130
 218 543 218 543 219.5 563 c 128,-1,131
 221 583 221 583 222.5 604 c 128,-1,132
 224 625 224 625 225 643 c 0,133,134
 226 647 226 647 226 651 c 1,135,136
 221 651 221 651 217 651 c 2,137,-1
 196 651 l 2,138,139
 185 651 185 651 162 652 c 0,140,141
 136 652 136 652 122 655 c 0,142,143
 116 657 116 657 110 657 c 0,144,145
 104 658 104 658 95 658 c 2,146,-1
 84 658 l 2,147,148
 65 658 65 658 51 672 c 128,-1,0
 37 686 37 686 37 705 c 128,-1,1
EndSplineSet
EndChar

StartChar: asciicircum
Encoding: 94 94 65
Width: 337
Flags: W
LayerCount: 2
Fore
SplineSet
55.5 369.5 m 128,-1,1
 40 381 40 381 37.5 400.5 c 128,-1,2
 35 420 35 420 46 435 c 2,3,-1
 60 453 l 2,4,5
 73 470 73 470 82 483 c 256,6,7
 91 496 91 496 103 517 c 256,8,9
 115 538 115 538 121 550 c 256,10,11
 127 562 127 562 132 572 c 0,12,13
 138 584 138 584 143 594 c 0,14,15
 150 607 150 607 158 618 c 0,16,17
 173 637 173 637 200 637.5 c 128,-1,18
 227 638 227 638 240 625 c 0,19,20
 259 608 259 608 266 580 c 0,21,22
 270 563 270 563 273.5 545 c 128,-1,23
 277 527 277 527 279 509 c 0,24,25
 280 497 280 497 282.5 487.5 c 128,-1,26
 285 478 285 478 287 472 c 0,27,28
 290 463 290 463 293 458 c 2,29,-1
 296 451 l 2,30,31
 304 434 304 434 297.5 415.5 c 128,-1,32
 291 397 291 397 273.5 389 c 128,-1,33
 256 381 256 381 237.5 387.5 c 128,-1,34
 219 394 219 394 211 412 c 2,35,-1
 208 418 l 2,36,37
 204 426 204 426 200 436 c 0,38,39
 195 448 195 448 191 465 c 0,40,41
 190 470 190 470 188 477 c 1,42,43
 186 474 186 474 184 470 c 0,44,45
 170 446 170 446 160 430 c 0,46,47
 149 415 149 415 135 396 c 2,48,-1
 121 378 l 2,49,50
 110 363 110 363 90.5 360.5 c 128,-1,0
 71 358 71 358 55.5 369.5 c 128,-1,1
EndSplineSet
EndChar

StartChar: underscore
Encoding: 95 95 66
Width: 737
Flags: W
LayerCount: 2
Fore
SplineSet
37 -13 m 128,-1,1
 37 6 37 6 51 20 c 128,-1,2
 65 34 65 34 84 34 c 2,3,-1
 94 34 l 2,4,5
 100 34 100 34 106 35 c 0,6,7
 116 36 116 36 126 37 c 256,8,9
 136 38 136 38 146 39 c 256,10,11
 156 40 156 40 169 40 c 0,12,13
 183 41 183 41 196 41 c 2,14,-1
 297 41 l 2,15,16
 314 41 314 41 332 37 c 0,17,18
 342 35 342 35 352 35 c 0,19,20
 367 34 367 34 379 33 c 256,21,22
 391 32 391 32 403 31 c 256,23,24
 415 30 415 30 424 29 c 0,25,26
 433 29 433 29 443 29 c 2,27,-1
 612 29 l 2,28,29
 624 29 624 29 634 28 c 0,30,31
 642 28 642 28 648 28 c 2,32,-1
 654 28 l 2,33,34
 673 28 673 28 687 14 c 128,-1,35
 701 0 701 0 701 -19 c 128,-1,36
 701 -38 701 -38 687 -52 c 128,-1,37
 673 -66 673 -66 654 -66 c 2,38,-1
 648 -66 l 2,39,40
 640 -66 640 -66 630 -66 c 0,41,42
 622 -65 622 -65 612 -65 c 2,43,-1
 443 -65 l 2,44,45
 431 -65 431 -65 420 -65 c 0,46,47
 409 -64 409 -64 395 -63 c 0,48,49
 382 -62 382 -62 370 -61 c 0,50,51
 360 -60 360 -60 346 -59 c 0,52,53
 331 -58 331 -58 315 -55 c 0,54,55
 306 -53 306 -53 297 -53 c 2,56,-1
 196 -53 l 2,57,58
 185 -53 185 -53 173 -54 c 0,59,60
 161 -54 161 -54 152 -55 c 0,61,62
 144 -55 144 -55 136 -56 c 256,63,64
 128 -57 128 -57 120 -58 c 0,65,66
 107 -60 107 -60 94 -60 c 2,67,-1
 84 -60 l 2,68,69
 65 -60 65 -60 51 -46 c 128,-1,0
 37 -32 37 -32 37 -13 c 128,-1,1
EndSplineSet
EndChar

StartChar: grave
Encoding: 96 96 67
Width: 274
Flags: W
LayerCount: 2
Fore
SplineSet
54 732 m 128,-1,1
 69 744 69 744 88.5 742 c 128,-1,2
 108 740 108 740 120 725 c 2,3,-1
 134 709 l 2,4,5
 147 693 147 693 159 680 c 0,6,7
 172 665 172 665 189 643 c 0,8,9
 208 620 208 620 221 594 c 2,10,-1
 233 571 l 2,11,12
 241 554 241 554 235 535.5 c 128,-1,13
 229 517 229 517 212 508.5 c 128,-1,14
 195 500 195 500 176 506 c 128,-1,15
 157 512 157 512 149 529 c 2,16,-1
 138 551 l 2,17,18
 129 568 129 568 116 585 c 0,19,20
 101 604 101 604 89 617 c 0,21,22
 76 631 76 631 61 649 c 2,23,-1
 48 666 l 2,24,25
 35 681 35 681 37 700.5 c 128,-1,0
 39 720 39 720 54 732 c 128,-1,1
EndSplineSet
EndChar

StartChar: a
Encoding: 97 97 68
Width: 487
Flags: W
LayerCount: 2
Fore
SplineSet
334 336 m 1,0,1
 328 339 328 339 317 343 c 0,2,3
 299 350 299 350 284 356 c 0,4,5
 277 360 277 360 266 361 c 0,6,7
 254 362 254 362 242 360 c 0,8,9
 228 357 228 357 216 352 c 128,-1,10
 204 347 204 347 193 341 c 0,11,12
 184 335 184 335 172.5 322.5 c 128,-1,13
 161 310 161 310 154 299 c 0,14,15
 148 287 148 287 142 268 c 0,16,17
 135 247 135 247 133 232 c 0,18,19
 130 218 130 218 131 202 c 0,20,21
 132 184 132 184 135 171 c 0,22,23
 137 161 137 161 141 155 c 0,24,25
 146 146 146 146 152 139 c 0,26,27
 155 135 155 135 158 133 c 0,28,29
 160 132 160 132 163 132 c 256,30,31
 166 132 166 132 173 134 c 0,32,33
 185 139 185 139 201 148 c 0,34,35
 217 158 217 158 234 173 c 0,36,37
 252 189 252 189 268 206 c 0,38,39
 282 222 282 222 291 237 c 0,40,41
 302 256 302 256 311 272 c 0,42,43
 319 287 319 287 324 300 c 0,44,45
 328 307 328 307 330 314 c 0,46,47
 331 317 331 317 331 318 c 0,48,49
 332 328 332 328 334 336 c 1,0,1
381 418 m 0,50,51
 404 423 404 423 418.5 419 c 128,-1,52
 433 415 433 415 439.5 405 c 128,-1,53
 446 395 446 395 448.5 385 c 128,-1,54
 451 375 451 375 450 367 c 2,55,-1
 449 360 l 2,56,57
 447 349 447 349 440 336 c 0,58,59
 436 328 436 328 433 318 c 0,60,61
 428 308 428 308 423 295 c 0,62,63
 423 294 423 294 422 291 c 0,64,65
 420 278 420 278 419 266 c 0,66,67
 417 245 417 245 413 217 c 0,68,69
 411 206 411 206 409 195 c 0,70,71
 406 179 406 179 403 162 c 0,72,73
 397 136 397 136 393 111 c 0,74,75
 389 89 389 89 388 72 c 2,76,-1
 388 52 l 2,77,78
 388 33 388 33 373.5 19.5 c 128,-1,79
 359 6 359 6 340 6.5 c 128,-1,80
 321 7 321 7 307.5 21 c 128,-1,81
 294 35 294 35 294 54 c 2,82,-1
 294 74 l 2,83,84
 295 87 295 87 296 103 c 1,85,86
 273 82 273 82 249 68 c 0,87,88
 226 53 226 53 204 46 c 0,89,90
 178 36 178 36 154 39 c 0,91,92
 130 41 130 41 111 52 c 0,93,94
 94 62 94 62 80 79 c 0,95,96
 68 93 68 93 59 108 c 0,97,98
 49 127 49 127 44 150 c 0,99,100
 39 170 39 170 37 197 c 0,101,102
 36 224 36 224 40 248 c 0,103,104
 44 269 44 269 52 296 c 0,105,106
 61 324 61 324 72 344 c 0,107,108
 84 366 84 366 104 387.5 c 128,-1,109
 124 409 124 409 144 421 c 0,110,111
 161 432 161 432 182 440 c 0,112,113
 202 448 202 448 224 452 c 0,114,115
 250 457 250 457 275 454 c 0,116,117
 301 452 301 452 322 443 c 0,118,119
 335 437 335 437 350 431 c 0,120,121
 369 424 369 424 379 419 c 0,122,123
 380 418 380 418 381 418 c 0,50,51
EndSplineSet
EndChar

StartChar: b
Encoding: 98 98 69
Width: 562
Flags: W
LayerCount: 2
Fore
SplineSet
165 122 m 0,0,1
 168 120 168 120 171 119 c 0,2,3
 182 115 182 115 218 118 c 0,4,5
 256 121 256 121 271 129 c 0,6,7
 290 139 290 139 312 158 c 0,8,9
 336 177 336 177 358 199 c 0,10,11
 378 220 378 220 395 246 c 0,12,13
 412 271 412 271 421 295 c 0,14,15
 430 318 430 318 432 336 c 0,16,17
 433 350 433 350 430 359 c 0,18,19
 427 367 427 367 424 370 c 0,20,21
 419 374 419 374 413 376 c 256,22,23
 407 378 407 378 399 379 c 0,24,25
 388 379 388 379 375 377 c 0,26,27
 361 374 361 374 346 368 c 128,-1,28
 331 362 331 362 317 353 c 0,29,30
 304 344 304 344 286 325 c 0,31,32
 266 302 266 302 255 286 c 256,33,34
 244 270 244 270 230 247 c 0,35,36
 216 223 216 223 203 199 c 0,37,38
 191 177 191 177 179 152 c 0,39,40
 173 139 173 139 165 122 c 0,0,1
45 110 m 1,41,42
 38 133 38 133 52 151 c 0,43,44
 52 153 52 153 52 154 c 0,45,46
 58 184 58 184 62 213 c 0,47,48
 67 243 67 243 72 277 c 0,49,50
 77 312 77 312 84 352 c 0,51,52
 92 390 92 390 100 428 c 0,53,54
 107 463 107 463 111 496 c 0,55,56
 114 531 114 531 117 561.5 c 128,-1,57
 120 592 120 592 121 616 c 0,58,59
 122 641 122 641 124 659 c 0,60,61
 125 674 125 674 125 679 c 2,62,-1
 125 685 l 2,63,64
 125 704 125 704 139 718 c 128,-1,65
 153 732 153 732 172 732 c 128,-1,66
 191 732 191 732 205 718 c 128,-1,67
 219 704 219 704 219 685 c 2,68,-1
 219 679 l 2,69,70
 219 670 219 670 217 651 c 0,71,72
 216 635 216 635 215 611 c 0,73,74
 213 586 213 586 210.5 553.5 c 128,-1,75
 208 521 208 521 204 486 c 0,76,77
 200 448 200 448 192 409 c 0,78,79
 184 375 184 375 178 339 c 1,80,81
 178 340 178 340 178 341 c 0,82,83
 193 361 193 361 216 387 c 0,84,85
 242 416 242 416 265 431 c 0,86,87
 287 446 287 446 311 455.5 c 128,-1,88
 335 465 335 465 358 469 c 256,89,90
 381 473 381 473 403 473 c 0,91,92
 427 472 427 472 448 464 c 0,93,94
 469 455 469 455 487 439 c 0,95,96
 507 421 507 421 518 392 c 0,97,98
 528 364 528 364 525 329 c 0,99,100
 523 297 523 297 509 261 c 0,101,102
 496 227 496 227 474 194 c 256,103,104
 452 161 452 161 425 133 c 0,105,106
 400 108 400 108 372 85 c 0,107,108
 343 61 343 61 315 46 c 0,109,110
 283 29 283 29 225 25 c 0,111,112
 166 20 166 20 136 32 c 1,113,-1
 135 32 l 2,114,115
 130 31 130 31 123 29 c 128,-1,116
 116 27 116 27 98.5 25 c 128,-1,117
 81 23 81 23 68 24.5 c 128,-1,118
 55 26 55 26 45 35.5 c 128,-1,119
 35 45 35 45 37 63 c 0,120,121
 38 71 38 71 40 83 c 0,122,123
 42 94 42 94 45 110 c 1,41,42
EndSplineSet
EndChar

StartChar: c
Encoding: 99 99 70
Width: 524
Flags: W
LayerCount: 2
Fore
SplineSet
452 325 m 128,-1,1
 437 313 437 313 417.5 315.5 c 128,-1,2
 398 318 398 318 386 333 c 2,3,-1
 381 339 l 2,4,5
 379 341 379 341 373 346 c 0,6,7
 358 358 358 358 343 373 c 0,8,9
 331 387 331 387 319 401 c 0,10,11
 310 411 310 411 306 414 c 0,12,13
 304 415 304 415 301 417 c 0,14,15
 297 418 297 418 287 418 c 0,16,17
 274 418 274 418 260 414 c 0,18,19
 245 410 245 410 228.5 402 c 128,-1,20
 212 394 212 394 199 383.5 c 128,-1,21
 186 373 186 373 174 359 c 0,22,23
 164 347 164 347 154 328 c 0,24,25
 145 308 145 308 140 291 c 0,26,27
 135 273 135 273 133 250 c 0,28,29
 131 225 131 225 131 200.5 c 128,-1,30
 131 176 131 176 134 155 c 0,31,32
 136 140 136 140 141 129 c 0,33,34
 148 115 148 115 157 102 c 0,35,36
 162 95 162 95 171 91 c 0,37,38
 183 84 183 84 201 79 c 0,39,40
 221 74 221 74 246 73 c 0,41,42
 273 72 273 72 301 75 c 0,43,44
 331 78 331 78 357 82 c 0,45,46
 382 86 382 86 404 91 c 2,47,-1
 429 98 l 2,48,49
 447 102 447 102 464 92 c 128,-1,50
 481 82 481 82 485.5 63.5 c 128,-1,51
 490 45 490 45 480 28 c 128,-1,52
 470 11 470 11 452 7 c 2,53,-1
 427 0 l 2,54,55
 401 -6 401 -6 371 -11 c 0,56,57
 343 -15 343 -15 311 -19 c 0,58,59
 276 -22 276 -22 242 -21 c 0,60,61
 207 -19 207 -19 178 -12 c 0,62,63
 148 -4 148 -4 126 8 c 0,64,65
 99 22 99 22 81 47 c 0,66,67
 67 67 67 67 57 88 c 0,68,69
 44 113 44 113 41 144 c 0,70,71
 38 169 38 169 37.5 199 c 128,-1,72
 37 229 37 229 39 259 c 0,73,74
 42 290 42 290 49 315 c 0,75,76
 56 341 56 341 70 369 c 0,77,78
 84 398 84 398 102 420 c 0,79,80
 120 441 120 441 141 457 c 128,-1,81
 162 473 162 473 186 486 c 0,82,83
 211 498 211 498 235 505 c 0,84,85
 261 512 261 512 287 512 c 0,86,87
 316 512 316 512 334 505 c 0,88,89
 351 498 351 498 364 488 c 0,90,91
 376 479 376 479 390 462 c 0,92,93
 401 449 401 449 412 437 c 0,94,95
 421 427 421 427 430 421 c 0,96,97
 446 408 446 408 455 397 c 2,98,-1
 460 391 l 2,99,100
 472 376 472 376 469.5 356.5 c 128,-1,0
 467 337 467 337 452 325 c 128,-1,1
EndSplineSet
EndChar

StartChar: d
Encoding: 100 100 71
Width: 572
Flags: W
LayerCount: 2
Fore
SplineSet
441 396 m 1,0,1
 440 407 440 407 439 418 c 0,2,3
 437 444 437 444 430 493 c 0,4,5
 423 545 423 545 421 564 c 0,6,7
 419 585 419 585 418.5 608.5 c 128,-1,8
 418 632 418 632 419 649 c 0,9,10
 421 667 421 667 424 680 c 2,11,-1
 426 690 l 2,12,13
 430 709 430 709 446.5 719.5 c 128,-1,14
 463 730 463 730 482 725.5 c 128,-1,15
 501 721 501 721 511.5 704.5 c 128,-1,16
 522 688 522 688 518 670 c 2,17,-1
 516 660 l 2,18,19
 514 653 514 653 513 641 c 0,20,21
 512 628 512 628 512.5 609 c 128,-1,22
 513 590 513 590 514 574 c 0,23,24
 516 557 516 557 523 507 c 0,25,26
 531 455 531 455 533 426 c 0,27,28
 535 396 535 396 535 366 c 0,29,30
 535 335 535 335 532.5 303.5 c 128,-1,31
 530 272 530 272 524.5 244.5 c 128,-1,32
 519 217 519 217 510 188 c 0,33,34
 500 157 500 157 486 130 c 256,35,36
 472 103 472 103 453 78 c 0,37,38
 434 52 434 52 413 33 c 0,39,40
 390 13 390 13 361 -1 c 0,41,42
 334 -13 334 -13 307 -19 c 0,43,44
 281 -25 281 -25 257 -26 c 0,45,46
 229 -27 229 -27 202 -18 c 0,47,48
 176 -10 176 -10 156 2 c 0,49,50
 137 14 137 14 122 30 c 0,51,52
 106 46 106 46 92 70 c 0,53,54
 80 92 80 92 71 112 c 0,55,56
 63 131 63 131 55 157 c 0,57,58
 46 184 46 184 42 210 c 0,59,60
 38 235 38 235 37 261 c 0,61,62
 36 289 36 289 41 314 c 0,63,64
 46 340 46 340 59 365 c 0,65,66
 71 387 71 387 85 407 c 0,67,68
 102 431 102 431 131 449 c 0,69,70
 154 463 154 463 174 471 c 256,71,72
 194 479 194 479 215 483 c 0,73,74
 233 486 233 486 256 490 c 0,75,76
 290 495 290 495 313 486 c 0,77,78
 325 482 325 482 344.5 473 c 128,-1,79
 364 464 364 464 374 460 c 0,80,81
 391 452 391 452 407 438 c 0,82,83
 425 424 425 424 435 406 c 0,84,85
 438 400 438 400 441 396 c 1,0,1
425 232 m 1,86,87
 406 232 406 232 392.5 246 c 128,-1,88
 379 260 379 260 379 279 c 2,89,-1
 379 285 l 2,90,91
 379 292 379 292 380 308 c 0,92,93
 380 311 380 311 377 317 c 0,94,95
 368 333 368 333 364 340 c 0,96,97
 360 348 360 348 353 359 c 0,98,99
 352 362 352 362 347 366 c 0,100,101
 340 372 340 372 335 374 c 0,102,103
 324 379 324 379 306 387 c 0,104,105
 290 394 290 394 280 398 c 0,106,107
 276 398 276 398 270 397 c 0,108,109
 249 394 249 394 233 391 c 0,110,111
 221 388 221 388 209 383 c 0,112,113
 196 378 196 378 179 368 c 0,114,115
 167 361 167 361 161 352 c 0,116,117
 151 338 151 338 143 322 c 0,118,119
 136 309 136 309 133 296 c 0,120,121
 130 282 130 282 131 264 c 0,122,123
 132 244 132 244 135 224 c 0,124,125
 138 206 138 206 145 185 c 0,126,127
 151 163 151 163 158 148 c 0,128,129
 164 133 164 133 173 117 c 0,130,131
 181 103 181 103 188 96 c 0,132,133
 196 88 196 88 206 82 c 256,134,135
 216 76 216 76 230 71 c 0,136,137
 242 67 242 67 254 68 c 0,138,139
 269 68 269 68 287 72 c 0,140,141
 303 76 303 76 321 84 c 0,142,143
 338 92 338 92 350 103 c 0,144,145
 365 116 365 116 378 134 c 0,146,147
 392 153 392 153 402 173 c 0,148,149
 413 193 413 193 420 216 c 0,150,151
 422 224 422 224 425 232 c 1,86,87
EndSplineSet
EndChar

StartChar: e
Encoding: 101 101 72
Width: 627
Flags: W
LayerCount: 2
Fore
SplineSet
142 298 m 1,0,-1
 145 298 l 2,1,2
 165 296 165 296 182 291 c 0,3,4
 192 287 192 287 201 286 c 0,5,6
 210 284 210 284 227 282 c 0,7,8
 245 279 245 279 252 279 c 0,9,10
 257 278 257 278 281 277 c 0,11,12
 307 277 307 277 321 277 c 0,13,14
 336 277 336 277 354 277 c 2,15,-1
 434 277 l 1,16,17
 431 284 431 284 429 291 c 2,18,19
 429 291 429 291 426 298 c 0,20,21
 420 306 420 306 410 320 c 0,22,23
 401 332 401 332 388 348 c 0,24,25
 372 366 372 366 365 375 c 0,26,27
 362 380 362 380 352 388 c 0,28,29
 341 397 341 397 331 403 c 0,30,31
 324 408 324 408 317 410 c 0,32,33
 309 413 309 413 297 415 c 0,34,35
 288 417 288 417 274 415 c 0,36,37
 259 414 259 414 246 408 c 0,38,39
 231 402 231 402 216 394 c 0,40,41
 203 386 203 386 191 376 c 0,42,43
 179 365 179 365 169 351 c 0,44,45
 158 337 158 337 150 320 c 0,46,47
 145 309 145 309 142 298 c 1,0,-1
132 205 m 1,48,49
 134 189 134 189 139 171 c 0,50,51
 145 151 145 151 152 137 c 0,52,53
 159 122 159 122 170 107 c 256,54,55
 181 92 181 92 195 76 c 0,56,57
 206 64 206 64 219 57 c 0,58,59
 236 48 236 48 254 42 c 0,60,61
 269 38 269 38 293 39 c 0,62,63
 320 40 320 40 352 49 c 0,64,65
 388 58 388 58 419 69 c 0,66,67
 451 81 451 81 489 96 c 2,68,-1
 527 110 l 2,69,70
 545 117 545 117 563 109 c 128,-1,71
 581 101 581 101 588 83.5 c 128,-1,72
 595 66 595 66 587 48 c 128,-1,73
 579 30 579 30 561 23 c 2,74,-1
 523 8 l 2,75,76
 484 -7 484 -7 451 -19 c 0,77,78
 417 -32 417 -32 377 -42 c 0,79,80
 334 -54 334 -54 297 -55 c 0,81,82
 256 -57 256 -57 226 -47 c 0,83,84
 199 -39 199 -39 175 -26 c 0,85,86
 148 -12 148 -12 126 13 c 0,87,88
 107 33 107 33 93 53 c 0,89,90
 78 75 78 75 68 96 c 0,91,92
 57 117 57 117 49 145 c 256,93,94
 41 173 41 173 38 199 c 0,95,96
 36 224 36 224 38.5 254 c 128,-1,97
 41 284 41 284 47 309 c 128,-1,98
 53 334 53 334 65 359 c 0,99,100
 77 385 77 385 93 407 c 0,101,102
 110 429 110 429 128 446 c 0,103,104
 147 463 147 463 169 475 c 0,105,106
 190 487 190 487 212 496 c 0,107,108
 236 505 236 505 263 509 c 0,109,110
 290 512 290 512 313 508 c 0,111,112
 333 504 333 504 348 499 c 0,113,114
 366 493 366 493 382 482 c 0,115,116
 396 473 396 473 412 460 c 0,117,118
 430 446 430 446 439 433 c 0,119,120
 445 425 445 425 459 409 c 0,121,122
 475 390 475 390 486 375 c 0,123,124
 495 363 495 363 501 355 c 0,125,126
 513 339 513 339 519 318 c 0,127,128
 522 309 522 309 524 306 c 0,129,130
 529 296 529 296 536 279 c 0,131,132
 551 243 551 243 534 214 c 0,133,134
 516 181 516 181 482 181 c 0,135,136
 475 181 475 181 467.5 181.5 c 128,-1,137
 460 182 460 182 452 182 c 0,138,139
 445 183 445 183 440 183 c 2,140,-1
 354 183 l 2,141,142
 336 183 336 183 321 183 c 0,143,144
 305 183 305 183 279 183 c 0,145,146
 251 184 251 184 242 185 c 0,147,148
 234 186 234 186 215 188 c 0,149,150
 195 191 195 191 183 194 c 0,151,152
 169 196 169 196 154 201 c 0,153,154
 146 203 146 203 136 204 c 2,155,-1
 132 205 l 1,48,49
EndSplineSet
EndChar

StartChar: f
Encoding: 102 102 73
Width: 603
Flags: W
LayerCount: 2
Fore
SplineSet
38 72 m 128,-1,1
 34 91 34 91 45 107.5 c 128,-1,2
 56 124 56 124 75 127 c 2,3,-1
 93 131 l 2,4,5
 110 134 110 134 144 145 c 0,6,7
 173 153 173 153 203 160 c 1,8,9
 202 165 202 165 201 169 c 0,10,11
 193 203 193 203 188 239 c 0,12,13
 184 272 184 272 180 305 c 0,14,15
 177 338 177 338 177 372 c 0,16,17
 177 405 177 405 178.5 435.5 c 128,-1,18
 180 466 180 466 182 490 c 0,19,20
 185 519 185 519 195 545 c 0,21,22
 205 568 205 568 219 591 c 0,23,24
 234 615 234 615 252 633 c 0,25,26
 271 653 271 653 297 665 c 0,27,28
 319 676 319 676 343 683 c 256,29,30
 367 690 367 690 389 692 c 0,31,32
 415 694 415 694 439 688 c 0,33,34
 457 684 457 684 473 678 c 0,35,36
 492 671 492 671 504 662 c 0,37,38
 516 655 516 655 527 644 c 0,39,40
 539 633 539 633 549 618 c 2,41,-1
 555 609 l 2,42,43
 566 593 566 593 562 573.5 c 128,-1,44
 558 554 558 554 542 543.5 c 128,-1,45
 526 533 526 533 507 536.5 c 128,-1,46
 488 540 488 540 477 556 c 2,47,-1
 471 566 l 2,48,49
 467 571 467 571 463 575 c 0,50,51
 457 581 457 581 452 584 c 0,52,53
 449 586 449 586 440 590 c 0,54,55
 429 594 429 594 416 597 c 0,56,57
 408 599 408 599 398 598 c 0,58,59
 384 597 384 597 369 592 c 0,60,61
 353 588 353 588 338 581 c 0,62,63
 327 575 327 575 319 567 c 0,64,65
 308 556 308 556 299 541 c 0,66,67
 289 526 289 526 283 510 c 0,68,69
 277 496 277 496 276 480 c 0,70,71
 273 459 273 459 272 431 c 128,-1,72
 271 403 271 403 271 373 c 256,73,74
 271 343 271 343 274 314 c 0,75,76
 277 283 277 283 281 251 c 0,77,78
 285 221 285 221 293 192 c 0,79,80
 294 187 294 187 295 182 c 1,81,82
 295 183 295 183 296 183 c 128,-1,83
 297 183 297 183 297 183 c 1,84,85
 334 193 334 193 376 199 c 0,86,87
 415 205 415 205 462 214 c 2,88,-1
 511 223 l 2,89,90
 529 227 529 227 545.5 216 c 128,-1,91
 562 205 562 205 565.5 186 c 128,-1,92
 569 167 569 167 558 150.5 c 128,-1,93
 547 134 547 134 528 131 c 2,94,-1
 480 122 l 2,95,96
 431 113 431 113 391 106 c 0,97,98
 353 100 353 100 320 92 c 0,99,100
 319 92 319 92 317 91 c 0,101,102
 318 88 318 88 319 84 c 0,103,104
 328 53 328 53 334 27 c 0,105,106
 339 1 339 1 342 -24 c 0,107,108
 344 -47 344 -47 346 -67 c 0,109,110
 348 -83 348 -83 351 -94 c 0,111,112
 354 -104 354 -104 357 -111 c 0,113,114
 361 -121 361 -121 365 -129 c 2,115,-1
 370 -138 l 2,116,117
 378 -155 378 -155 371.5 -174 c 128,-1,118
 365 -193 365 -193 348 -201 c 128,-1,119
 331 -209 331 -209 312.5 -203 c 128,-1,120
 294 -197 294 -197 285 -179 c 2,121,-1
 281 -170 l 2,122,123
 276 -161 276 -161 271 -150 c 0,124,125
 265 -136 265 -136 260 -117 c 0,126,127
 256 -100 256 -100 253 -78 c 0,128,129
 251 -57 251 -57 248 -34 c 0,130,131
 246 -14 246 -14 241 8 c 0,132,133
 237 30 237 30 229 58 c 0,134,135
 227 63 227 63 225 69 c 1,136,137
 198 62 198 62 171 54 c 0,138,139
 132 43 132 43 112 39 c 2,140,-1
 93 35 l 2,141,142
 74 31 74 31 58 42 c 128,-1,0
 42 53 42 53 38 72 c 128,-1,1
EndSplineSet
EndChar

StartChar: g
Encoding: 103 103 74
Width: 548
Flags: W
LayerCount: 2
Fore
SplineSet
460 130 m 1,0,1
 460 119 460 119 461 109 c 0,2,3
 463 83 463 83 467 56 c 256,4,5
 471 29 471 29 475 4 c 0,6,7
 480 -26 480 -26 478 -55 c 0,8,9
 477 -84 477 -84 471 -113 c 0,10,11
 465 -137 465 -137 459 -162 c 0,12,13
 452 -191 452 -191 441 -213 c 0,14,15
 431 -234 431 -234 418 -252 c 0,16,17
 402 -275 402 -275 383 -287 c 128,-1,18
 364 -299 364 -299 336 -305 c 0,19,20
 312 -310 312 -310 283 -309 c 0,21,22
 256 -309 256 -309 226 -306 c 0,23,24
 193 -302 193 -302 172 -297 c 0,25,26
 153 -291 153 -291 127 -282 c 0,27,28
 91 -269 91 -269 72 -243 c 0,29,30
 55 -221 55 -221 47 -189 c 0,31,32
 41 -159 41 -159 44 -129 c 0,33,34
 48 -95 48 -95 65 -70 c 0,35,36
 81 -50 81 -50 102 -35 c 0,37,38
 124 -19 124 -19 162 -9 c 0,39,40
 194 -1 194 -1 229 4 c 2,41,-1
 262 9 l 2,42,43
 280 12 280 12 296 0.5 c 128,-1,44
 312 -11 312 -11 315 -30 c 128,-1,45
 318 -49 318 -49 306 -65 c 128,-1,46
 294 -81 294 -81 275 -84 c 2,47,-1
 243 -88 l 2,48,49
 213 -93 213 -93 186 -100 c 0,50,51
 165 -106 165 -106 156 -112 c 256,52,53
 147 -118 147 -118 141 -126 c 0,54,55
 139 -129 139 -129 138 -139 c 0,56,57
 136 -154 136 -154 139 -169 c 0,58,59
 142 -180 142 -180 147 -186 c 0,60,61
 149 -190 149 -190 160 -194 c 0,62,63
 181 -202 181 -202 197 -206 c 0,64,65
 211 -209 211 -209 236 -212 c 0,66,67
 262 -215 262 -215 284 -215 c 0,68,69
 303 -216 303 -216 318 -213 c 0,70,71
 328 -211 328 -211 332 -208.5 c 128,-1,72
 336 -206 336 -206 341 -198 c 0,73,74
 350 -186 350 -186 356 -172 c 0,75,76
 363 -159 363 -159 368 -139 c 0,77,78
 373 -116 373 -116 379 -92 c 0,79,80
 384 -71 384 -71 385 -51 c 0,81,82
 385 -31 385 -31 382 -11 c 0,83,84
 378 15 378 15 374 43 c 0,85,86
 373 50 373 50 372 57 c 1,87,88
 351 45 351 45 330 37 c 0,89,90
 301 27 301 27 271 24 c 0,91,92
 239 20 239 20 190 33 c 0,93,94
 140 47 140 47 119 63 c 0,95,96
 100 78 100 78 86 96 c 0,97,98
 72 113 72 113 61 134 c 0,99,100
 49 157 49 157 43 181 c 128,-1,101
 37 205 37 205 37 232 c 0,102,103
 37 260 37 260 42 281 c 0,104,105
 47 303 47 303 58 325 c 0,106,107
 70 350 70 350 90 371 c 0,108,109
 107 387 107 387 129 405 c 0,110,111
 156 424 156 424 183 433 c 0,112,113
 207 441 207 441 230 445 c 0,114,115
 253 448 253 448 276 449 c 0,116,117
 302 449 302 449 332 440 c 0,118,119
 358 433 358 433 371 427 c 0,120,121
 383 421 383 421 394 415 c 0,122,123
 413 404 413 404 433 376 c 0,124,125
 443 362 443 362 450 351 c 1,126,127
 468 352 468 352 481 343 c 128,-1,128
 494 334 494 334 500 323 c 0,129,130
 508 308 508 308 510 291 c 0,131,132
 511 280 511 280 512 268 c 0,133,134
 512 254 512 254 509 237 c 0,135,136
 507 219 507 219 496 196 c 0,137,138
 488 175 488 175 476 154 c 0,139,140
 470 142 470 142 460 130 c 1,0,1
384 279 m 1,141,142
 379 286 379 286 374 295 c 256,143,144
 369 304 369 304 357 321 c 0,145,146
 350 330 350 330 346 334 c 0,147,148
 338 338 338 338 332 341 c 0,149,150
 325 344 325 344 305 350 c 0,151,152
 289 355 289 355 277 355 c 0,153,154
 261 355 261 355 245 352 c 0,155,156
 229 350 229 350 213 344 c 0,157,158
 199 340 199 340 186 329 c 0,159,160
 169 316 169 316 156 304 c 0,161,162
 148 295 148 295 143 285 c 0,163,164
 136 272 136 272 134 260 c 0,165,166
 131 249 131 249 131 233 c 256,167,168
 131 217 131 217 134.5 204 c 128,-1,169
 138 191 138 191 144 179 c 0,170,171
 152 165 152 165 160 154 c 0,172,173
 167 145 167 145 176 138 c 0,174,175
 185 132 185 132 214 124 c 0,176,177
 246 116 246 116 261 117 c 0,178,179
 279 119 279 119 297 126 c 0,180,181
 316 132 316 132 336 145 c 0,182,183
 348 153 348 153 359 162 c 0,184,185
 363 165 363 165 367 169 c 0,186,187
 368 192 368 192 371 215 c 0,188,189
 374 245 374 245 380 268 c 0,190,191
 382 273 382 273 384 279 c 1,141,142
EndSplineSet
EndChar

StartChar: h
Encoding: 104 104 75
Width: 416
Flags: W
LayerCount: 2
Fore
SplineSet
88 741.5 m 128,-1,1
 107 740 107 740 120 725 c 128,-1,2
 133 710 133 710 132 691 c 2,3,-1
 131 683 l 2,4,5
 131 680 131 680 132 675 c 0,6,7
 135 661 135 661 137 639 c 0,8,9
 140 617 140 617 142.5 592.5 c 128,-1,10
 145 568 145 568 146 542 c 0,11,12
 147 518 147 518 149 492 c 256,13,14
 151 466 151 466 153 448 c 0,15,16
 154 430 154 430 157 392 c 0,17,18
 158 364 158 364 159 344 c 1,19,20
 167 348 167 348 177 352 c 0,21,22
 198 362 198 362 221 372 c 0,23,24
 253 388 253 388 275 388 c 0,25,26
 303 390 303 390 332 369 c 0,27,28
 360 351 360 351 371 327 c 0,29,30
 381 306 381 306 380 277 c 0,31,32
 379 255 379 255 371 225 c 0,33,34
 364 199 364 199 356 175 c 0,35,36
 349 152 349 152 343 131 c 0,37,38
 338 111 338 111 333 88 c 0,39,40
 329 67 329 67 328 52 c 0,41,42
 327 34 327 34 327 10 c 2,43,-1
 327 -16 l 2,44,45
 327 -35 327 -35 313 -49 c 128,-1,46
 299 -63 299 -63 280 -62.5 c 128,-1,47
 261 -62 261 -62 247 -48 c 128,-1,48
 233 -34 233 -34 233 -15 c 2,49,-1
 233 10 l 2,50,51
 233 37 233 37 234 57 c 0,52,53
 235 79 235 79 241 107 c 0,54,55
 246 132 246 132 252 156 c 0,56,57
 259 179 259 179 267 203 c 0,58,59
 274 226 274 226 280 249 c 0,60,61
 285 269 285 269 286 281 c 0,62,63
 286 285 286 285 286 287 c 0,64,65
 283 289 283 289 280 292 c 0,66,67
 278 293 278 293 276 294 c 0,68,69
 270 292 270 292 261 288 c 0,70,71
 238 276 238 276 215 266 c 0,72,73
 196 257 196 257 182 249 c 0,74,75
 172 244 172 244 161 237 c 1,76,77
 161 221 161 221 162 206 c 0,78,79
 162 178 162 178 162 152 c 256,80,81
 162 126 162 126 161 103 c 0,82,83
 161 79 161 79 160 65 c 0,84,85
 160 52 160 52 160 37 c 2,86,-1
 159 22 l 2,87,88
 159 3 159 3 145 -11 c 128,-1,89
 131 -25 131 -25 112 -24.5 c 128,-1,90
 93 -24 93 -24 79 -10 c 128,-1,91
 65 4 65 4 65 23 c 2,92,-1
 66 38 l 2,93,94
 66 54 66 54 66 68 c 0,95,96
 67 82 67 82 67 105 c 0,97,98
 68 128 68 128 68 153 c 256,99,100
 68 178 68 178 68 204 c 0,101,102
 68 205 68 205 68 206.5 c 128,-1,103
 68 208 68 208 68 208 c 1,104,105
 63 214 63 214 60 221 c 2,106,-1
 58 228 l 2,107,108
 45 261 45 261 67 285 c 1,109,110
 66 310 66 310 66 326 c 0,111,112
 65 351 65 351 63 387 c 0,113,114
 61 422 61 422 59 440 c 0,115,116
 58 459 58 459 55 485 c 0,117,118
 53 511 53 511 52 537 c 0,119,120
 51 561 51 561 49 584 c 128,-1,121
 47 607 47 607 44 627 c 0,122,123
 42 647 42 647 40 658 c 0,124,125
 36 676 36 676 37 690 c 2,126,-1
 38 698 l 2,127,128
 39 717 39 717 54 730 c 128,-1,0
 69 743 69 743 88 741.5 c 128,-1,1
EndSplineSet
EndChar

